<svg width="1440" height="53" viewBox="0 0 1440 53" fill="none" xmlns="http://www.w3.org/2000/svg">
<path d="M311.4 2.51L299.57 52H284.73L276.82 18.89L268.84 52H254L242.17 2.51H255.19L261.56 38.35L270.24 2.51H283.33L292.01 38.35L298.45 2.51H311.4ZM342.465 12.52C346.945 12.52 350.491 14.0133 353.105 17C355.765 19.9867 357.095 24.0933 357.095 29.32V52H345.125V30.72C345.125 28.1067 344.425 26.0767 343.025 24.63C341.671 23.1367 339.851 22.39 337.565 22.39C335.138 22.39 333.201 23.16 331.755 24.7C330.355 26.24 329.655 28.4333 329.655 31.28V52H317.685V0.199999H329.655V20.08C330.775 17.7467 332.431 15.9033 334.625 14.55C336.865 13.1967 339.478 12.52 342.465 12.52ZM383.259 12.45C387.133 12.45 390.586 13.2667 393.619 14.9C396.699 16.4867 399.103 18.7967 400.829 21.83C402.603 24.8633 403.489 28.41 403.489 32.47C403.489 36.53 402.603 40.0767 400.829 43.11C399.103 46.1433 396.699 48.4767 393.619 50.11C390.586 51.6967 387.133 52.49 383.259 52.49C379.386 52.49 375.909 51.6967 372.829 50.11C369.749 48.4767 367.323 46.1433 365.549 43.11C363.823 40.0767 362.959 36.53 362.959 32.47C362.959 28.41 363.823 24.8633 365.549 21.83C367.323 18.7967 369.749 16.4867 372.829 14.9C375.909 13.2667 379.386 12.45 383.259 12.45ZM383.259 22.81C380.973 22.81 379.036 23.65 377.449 25.33C375.909 26.9633 375.139 29.3433 375.139 32.47C375.139 35.5967 375.909 37.9767 377.449 39.61C379.036 41.2433 380.973 42.06 383.259 42.06C385.546 42.06 387.459 41.2433 388.999 39.61C390.539 37.9767 391.309 35.5967 391.309 32.47C391.309 29.3433 390.539 26.9633 388.999 25.33C387.459 23.65 385.546 22.81 383.259 22.81ZM490.98 2.51L479.15 52H464.31L456.4 18.89L448.42 52H433.58L421.75 2.51H434.77L441.14 38.35L449.82 2.51H462.91L471.59 38.35L478.03 2.51H490.98ZM534.365 31.42C534.365 32.4 534.248 33.4733 534.015 34.64H506.925C507.065 37.58 507.811 39.7033 509.165 41.01C510.518 42.27 512.245 42.9 514.345 42.9C516.118 42.9 517.588 42.4567 518.755 41.57C519.921 40.6833 520.691 39.54 521.065 38.14H533.735C533.221 40.8933 532.101 43.3667 530.375 45.56C528.648 47.7067 526.455 49.41 523.795 50.67C521.135 51.8833 518.171 52.49 514.905 52.49C511.078 52.49 507.671 51.6967 504.685 50.11C501.745 48.4767 499.435 46.1433 497.755 43.11C496.075 40.0767 495.235 36.53 495.235 32.47C495.235 28.3633 496.051 24.8167 497.685 21.83C499.365 18.7967 501.698 16.4867 504.685 14.9C507.671 13.2667 511.078 12.45 514.905 12.45C518.778 12.45 522.185 13.2433 525.125 14.83C528.065 16.4167 530.328 18.6567 531.915 21.55C533.548 24.3967 534.365 27.6867 534.365 31.42ZM522.255 29.6C522.301 27.0333 521.601 25.12 520.155 23.86C518.755 22.5533 517.005 21.9 514.905 21.9C512.711 21.9 510.891 22.5533 509.445 23.86C507.998 25.1667 507.181 27.08 506.995 29.6H522.255ZM585.278 42.97H566.728L563.648 52H551.048L569.178 2.86H582.968L601.098 52H588.358L585.278 42.97ZM582.198 33.87L576.038 15.67L569.808 33.87H582.198ZM617.721 20.29C619.214 17.91 621.128 16.02 623.461 14.62C625.841 13.22 628.408 12.52 631.161 12.52V25.33H627.731C624.558 25.33 622.084 26.0067 620.311 27.36C618.584 28.7133 617.721 31 617.721 34.22V52H605.751V12.94H617.721V20.29ZM673.271 31.42C673.271 32.4 673.154 33.4733 672.921 34.64H645.831C645.971 37.58 646.718 39.7033 648.071 41.01C649.424 42.27 651.151 42.9 653.251 42.9C655.024 42.9 656.494 42.4567 657.661 41.57C658.828 40.6833 659.598 39.54 659.971 38.14H672.641C672.128 40.8933 671.008 43.3667 669.281 45.56C667.554 47.7067 665.361 49.41 662.701 50.67C660.041 51.8833 657.078 52.49 653.811 52.49C649.984 52.49 646.578 51.6967 643.591 50.11C640.651 48.4767 638.341 46.1433 636.661 43.11C634.981 40.0767 634.141 36.53 634.141 32.47C634.141 28.3633 634.958 24.8167 636.591 21.83C638.271 18.7967 640.604 16.4867 643.591 14.9C646.578 13.2667 649.984 12.45 653.811 12.45C657.684 12.45 661.091 13.2433 664.031 14.83C666.971 16.4167 669.234 18.6567 670.821 21.55C672.454 24.3967 673.271 27.6867 673.271 31.42ZM661.161 29.6C661.208 27.0333 660.508 25.12 659.061 23.86C657.661 22.5533 655.911 21.9 653.811 21.9C651.618 21.9 649.798 22.5533 648.351 23.86C646.904 25.1667 646.088 27.08 645.901 29.6H661.161Z" fill="#352A3A"/>
<rect x="950" y="2" width="34" height="15" fill="#C960FF"/>
<rect x="1201" y="2" width="50" height="50" fill="#C960FF"/>
<rect x="1001.5" y="3.5" width="191" height="47" fill="#DB99FD" stroke="#DB99FD" stroke-width="3"/>
<rect x="707" y="2" width="97" height="50" fill="#C960FF"/>
<rect x="950" y="2" width="34" height="50" fill="#C960FF"/>
<rect x="1292" y="2" width="148" height="50" fill="#A44BD1"/>
<rect x="142" y="2" width="49" height="50" fill="#DB99FD"/>
<rect x="861" y="2" width="75" height="50" fill="#A44BD1"/>
<rect y="2" width="94" height="50" fill="#C960FF"/>
</svg>
