<svg width="7000" height="3919" viewBox="0 0 7000 3919" fill="none" xmlns="http://www.w3.org/2000/svg">
<rect width="7000" height="3918.62" fill="#352A3A"/>
<g opacity="0.8" filter="url(#filter0_f)">
<path d="M1437.57 632.036C1478.15 640.636 1522.12 630.223 1553.65 600.668C1580.73 575.275 1592.88 540.994 1589.64 507.654C1587.2 481.046 1527.14 553.195 1502.29 552.521C1475.97 551.739 1429.4 507.231 1427.66 482.547C1426.14 459.146 1494.66 402.181 1475.51 400.66C1440.07 397.729 1403.39 409.007 1376.3 434.4C1344.89 463.848 1333.67 505.182 1342.84 543.231L1230.74 648.326C1211.85 666.038 1221.01 690.197 1250.91 718.229C1280.81 746.261 1304.87 756.443 1325.47 737.131L1437.57 632.036Z" fill="white"/>
<path d="M722.954 1736.34C756.147 1751.77 797.419 1751.45 832.946 1732.14C863.472 1715.55 883.314 1688.34 889.444 1658.9C894.471 1635.44 822.519 1685.91 800.964 1680.43C778.142 1674.56 749.374 1626.93 754.483 1605.27C759.45 1584.76 834.716 1549.07 818.373 1543.98C788.149 1534.46 753.026 1536.96 722.501 1553.55C687.102 1572.79 666.17 1606.28 663.964 1640.95L537.631 1709.61C516.341 1721.18 517.852 1743.85 536.473 1773.96C555.093 1804.07 573.406 1817.61 596.621 1805L722.954 1736.34Z" fill="white"/>
<path d="M1845.07 1103.1C1805.62 1094.79 1762.85 1104.97 1732.16 1133.74C1705.79 1158.46 1693.94 1191.81 1697.04 1224.22C1699.37 1250.09 1757.87 1179.87 1782.03 1180.49C1807.63 1181.22 1852.84 1224.44 1854.5 1248.43C1855.94 1271.18 1789.24 1326.65 1807.86 1328.11C1842.32 1330.92 1878 1319.91 1904.37 1295.18C1934.95 1266.51 1945.91 1226.31 1937.05 1189.33L2046.18 1087.01C2064.58 1069.77 2055.71 1046.29 2026.68 1019.07C1997.64 991.85 1974.26 981.98 1954.21 1000.78L1845.07 1103.1Z" fill="white"/>
<path d="M3590.68 3509.55C3558.27 3502.72 3523.13 3511.09 3497.92 3534.73C3476.25 3555.04 3466.51 3582.44 3469.06 3609.07C3470.97 3630.32 3519.04 3572.62 3538.88 3573.14C3559.91 3573.74 3597.06 3609.24 3598.43 3628.96C3599.61 3647.65 3544.81 3693.23 3560.1 3694.42C3588.42 3696.73 3617.73 3687.68 3639.4 3667.37C3664.52 3643.82 3673.53 3610.78 3666.25 3580.4L3755.91 3496.33C3771.03 3482.17 3763.74 3462.88 3739.89 3440.51C3716.04 3418.15 3696.83 3410.04 3680.35 3425.49L3590.68 3509.55Z" fill="white"/>
<path d="M4964.92 2959.72C4964.35 2946.8 4957 2934.49 4944.18 2927.55C4933.16 2921.58 4920.4 2920.87 4909.28 2924.69C4900.39 2927.69 4930.24 2939.56 4932.15 2947.08C4934.16 2955.05 4922.96 2972.83 4914.67 2975.46C4906.8 2977.92 4881.42 2962.21 4882.55 2968.09C4884.61 2978.98 4891.63 2989.03 4902.64 2994.99C4915.42 3001.91 4930.52 3001.75 4942.73 2995.74L4988.33 3020.42C4996.01 3024.58 5003.48 3019.77 5010.48 3008.4C5017.48 2997.03 5018.89 2988.93 5010.51 2984.4L4964.92 2959.72Z" fill="white"/>
<path d="M2362 3340.4C2349.19 3353.43 2343.59 3372.03 2348.84 3390.4C2353.35 3406.18 2364.98 3418.47 2379.69 3424.87C2391.4 3430.03 2374.76 3391.43 2380.67 3382.41C2386.97 3372.86 2416.19 3365.81 2426.94 3370.78C2437.09 3375.55 2445.45 3413.82 2450.43 3407.1C2459.7 3394.68 2463.28 3378.57 2458.77 3362.79C2453.54 3344.49 2438.75 3330.93 2420.71 3325.65L2402.04 3260.34C2398.9 3249.33 2386.69 3247.21 2368.16 3251.86C2349.62 3256.52 2339.9 3263.09 2343.33 3275.09L2362 3340.4Z" fill="white"/>
<path d="M3725.38 2811.61C3734.99 2819.92 3748.72 2823.55 3762.28 2820.15C3773.92 2817.22 3782.99 2809.68 3787.71 2800.13C3791.52 2792.54 3763.03 2803.33 3756.37 2799.5C3749.33 2795.41 3744.13 2776.46 3747.8 2769.49C3751.32 2762.9 3779.56 2757.48 3774.6 2754.25C3765.43 2748.24 3753.54 2745.92 3741.9 2748.84C3728.39 2752.24 3718.39 2761.83 3714.49 2773.53L3666.29 2785.64C3658.17 2787.68 3656.6 2795.6 3660.04 2807.62C3663.47 2819.64 3668.32 2825.95 3677.18 2823.72L3725.38 2811.61Z" fill="white"/>
<path d="M2896.38 1886.57C2880.51 1863.06 2852.68 1847.54 2820.83 1847.54C2793.46 1847.54 2768.86 1859.07 2752.53 1877.4C2739.42 1891.96 2808.64 1883.98 2820.83 1896.05C2833.71 1908.88 2833.25 1953.31 2820.83 1966.57C2808.99 1979.08 2743.67 1975.41 2752.53 1985.22C2768.86 2003.44 2793.46 2015.09 2820.83 2015.09C2852.57 2015.09 2880.51 1999.56 2896.38 1976.06H3009.65C3028.73 1976.06 3037.13 1959.56 3037.13 1931.31C3037.13 1903.06 3030.46 1886.57 3009.65 1886.57H2896.38Z" fill="white"/>
<path d="M2839.99 3088.73C2854.83 3072.67 2860.8 3050.17 2853.77 3028.33C2847.74 3009.57 2833.31 2995.24 2815.41 2988.09C2801.17 2982.31 2822.66 3028.01 2815.93 3039.03C2808.76 3050.69 2774.01 3060.17 2760.93 3054.58C2748.56 3049.22 2737.01 3003.64 2731.31 3011.87C2720.7 3027.08 2717.05 3046.52 2723.08 3065.29C2730.08 3087.04 2748.36 3102.78 2770.19 3108.47L2795.17 3186.12C2799.39 3199.21 2814.1 3201.33 2836.14 3195.09C2858.17 3188.86 2869.57 3180.65 2864.98 3166.38L2839.99 3088.73Z" fill="white"/>
<path d="M4375.26 2706.4C4386.19 2694.56 4390.59 2677.97 4385.42 2661.87C4380.97 2648.04 4370.33 2637.48 4357.14 2632.21C4346.64 2627.95 4362.48 2661.64 4357.52 2669.76C4352.24 2678.35 4326.62 2685.35 4316.98 2681.23C4307.86 2677.27 4299.35 2643.67 4295.14 2649.74C4287.32 2660.95 4284.63 2675.28 4289.08 2689.11C4294.24 2705.15 4307.71 2716.75 4323.8 2720.95L4342.22 2778.19C4345.32 2787.84 4356.17 2789.4 4372.42 2784.8C4388.66 2780.21 4397.06 2774.16 4393.67 2763.64L4375.26 2706.4Z" fill="white"/>
<path d="M4454.93 3420.11C4474.53 3398.89 4482.42 3369.16 4473.13 3340.31C4465.16 3315.52 4446.1 3296.59 4422.45 3287.14C4403.63 3279.51 4432.03 3339.89 4423.14 3354.45C4413.67 3369.85 4367.76 3382.38 4350.47 3374.99C4334.13 3367.91 4318.88 3307.69 4311.35 3318.56C4297.33 3338.66 4292.5 3364.35 4300.48 3389.13C4309.73 3417.88 4333.87 3438.66 4362.71 3446.19L4395.72 3548.77C4401.28 3566.06 4420.73 3568.86 4449.84 3560.63C4478.95 3552.4 4494 3541.55 4487.94 3522.7L4454.93 3420.11Z" fill="white"/>
<path d="M1656.34 3266.51C1685.45 3207.22 1682.49 3137.19 1641.74 3080.52C1606.73 3031.82 1551 3003.28 1491.58 2998.45C1444.22 2994.36 1549.54 3106.98 1539.75 3144.63C1529.26 3184.5 1435.29 3242.38 1391.53 3237.8C1350.09 3233.26 1274.24 3112.2 1264.94 3140.92C1247.53 3194.05 1254.53 3253.22 1289.54 3301.91C1330.14 3358.38 1398.52 3387.58 1468.23 3384.76L1613.12 3586.28C1637.54 3620.25 1682.96 3613.38 1742.34 3576.06C1801.72 3538.73 1827.86 3505.07 1801.24 3468.03L1656.34 3266.51Z" fill="white"/>
<path d="M2884.99 2505C2903.81 2472.58 2905.04 2432.66 2884.47 2398.66C2866.79 2369.45 2836.62 2350.79 2803.4 2345.43C2776.92 2341.03 2831.51 2409.65 2824.45 2430.62C2816.89 2452.81 2761.64 2481.58 2737.21 2477.06C2714.09 2472.66 2676.43 2400.53 2670.01 2416.45C2658.02 2445.87 2659.51 2479.81 2677.19 2509.02C2697.69 2542.89 2734.95 2562.48 2774.28 2563.94L2847.45 2684.82C2859.78 2705.19 2885.61 2703.29 2920.56 2684.68C2955.5 2666.08 2971.6 2648.09 2958.16 2625.88L2884.99 2505Z" fill="white"/>
</g>
<path d="M1504.46 617.225C1562.85 630.437 1626.12 614.44 1671.48 569.039C1710.45 530.03 1727.92 477.368 1723.25 426.152C1719.75 385.279 1633.34 496.111 1597.59 495.077C1559.71 493.875 1492.72 425.502 1490.21 387.584C1488.03 351.636 1586.61 264.127 1559.06 261.791C1508.06 257.288 1455.29 274.613 1416.32 313.622C1371.13 358.859 1354.99 422.356 1368.18 480.805L1206.9 642.25C1179.72 669.458 1192.89 706.57 1235.91 749.633C1278.93 792.696 1313.55 808.337 1343.18 778.67L1504.46 617.225Z" fill="#C960FF"/>
<path d="M1031.99 1050.69C1041.3 1004.92 1027.77 955.787 991.642 921.097C960.601 891.292 919.288 878.477 879.474 882.915C847.697 886.284 935.482 952.003 935.279 979.918C934.981 1009.5 882.856 1062.85 853.364 1065.4C825.401 1067.67 755.577 992.089 754.222 1013.63C751.575 1053.5 765.959 1094.42 797 1124.22C832.998 1158.79 882.728 1170.4 928.031 1159.18L1056.5 1282.54C1078.15 1303.33 1106.84 1292.47 1139.65 1258.23C1172.47 1223.98 1184.07 1196.72 1160.46 1174.05L1031.99 1050.69Z" fill="#C960FF"/>
<path d="M1438.15 1262.71C1376.53 1281.95 1326.07 1331.15 1308.13 1398.15C1292.72 1455.72 1304.73 1514.41 1336.61 1559.78C1361.86 1596.1 1382.95 1445.7 1416.88 1427.32C1452.88 1407.94 1552.19 1435.61 1574.92 1469.71C1596.28 1502.14 1551.29 1637.32 1578.27 1624.59C1628.3 1601.2 1668.25 1556.44 1683.66 1498.88C1701.53 1432.12 1682.47 1364.01 1638.72 1316.5L1702.49 1078.26C1713.24 1038.11 1680.99 1010.54 1617.68 993.554C1554.37 976.572 1513.64 980.684 1501.92 1024.46L1438.15 1262.71Z" fill="#DB99FD"/>
<path d="M1032.23 2980.89C1085.94 2978.6 1137.17 2949.76 1166.11 2899.58C1190.98 2856.46 1194.06 2806.55 1178.26 2763.12C1165.84 2728.41 1116.28 2845.17 1085.02 2852.71C1051.88 2860.61 978.05 2816.97 967.169 2784.6C957.028 2753.86 1022.5 2654.5 998.057 2658.98C952.767 2667.1 910.945 2694.62 886.078 2737.73C857.241 2787.73 857.801 2846.75 882.666 2894.45L779.75 3072.89C762.406 3102.96 782.349 3132.12 829.562 3159.41C876.775 3186.7 910.406 3192.12 929.317 3159.33L1032.23 2980.89Z" fill="#C960FF"/>
<path d="M1581.36 2042.9C1614.52 2006.89 1629.02 1955.45 1615.43 1904.66C1603.75 1861.03 1573.65 1827.05 1535.54 1809.37C1505.21 1795.1 1548.31 1901.83 1533 1926.77C1516.7 1953.15 1441.03 1972.66 1413.2 1958.9C1386.9 1945.72 1365.25 1839.91 1352.36 1858.5C1328.37 1892.84 1319.09 1937.38 1330.77 1981.01C1344.32 2031.62 1382.62 2069.09 1429.32 2083.68L1477.66 2264.28C1485.81 2294.71 1517.42 2300.58 1565.41 2287.71C1613.41 2274.83 1638.59 2256.68 1629.7 2223.5L1581.36 2042.9Z" fill="#C960FF"/>
<path d="M2016.59 1770.08C2065.9 1781.18 2119.36 1767.59 2157.73 1729.19C2190.69 1696.19 2205.51 1651.68 2201.63 1608.42C2198.71 1573.9 2125.59 1667.62 2095.39 1666.79C2063.4 1665.82 2006.88 1608.14 2004.8 1576.11C2003 1545.74 2086.38 1471.71 2063.11 1469.76C2020.03 1466.02 1975.43 1480.71 1942.47 1513.71C1904.24 1551.97 1890.53 1605.63 1901.61 1654.99L1765.19 1791.56C1742.2 1814.57 1753.28 1845.91 1789.57 1882.24C1825.87 1918.57 1855.09 1931.74 1880.16 1906.65L2016.59 1770.08Z" fill="#C960FF"/>
<path d="M1975.39 2197.82C1918.63 2185.05 1857.1 2200.68 1812.94 2244.88C1775 2282.86 1757.95 2334.09 1762.41 2383.88C1765.76 2423.61 1849.93 2315.74 1884.68 2316.7C1921.51 2317.82 1986.56 2384.21 1988.95 2421.07C1991.03 2456.02 1895.06 2541.23 1921.84 2543.47C1971.42 2547.78 2022.75 2530.87 2060.69 2492.89C2104.69 2448.85 2120.47 2387.09 2107.71 2330.28L2264.73 2173.1C2291.19 2146.61 2278.44 2110.54 2236.67 2068.73C2194.9 2026.92 2161.26 2011.75 2132.41 2040.64L1975.39 2197.82Z" fill="#DB99FD"/>
<path d="M2579.6 2769.89C2621.25 2779.26 2666.41 2767.79 2698.81 2735.35C2726.65 2707.48 2739.17 2669.89 2735.89 2633.35C2733.43 2604.19 2671.67 2683.35 2646.16 2682.65C2619.14 2681.82 2571.4 2633.1 2569.64 2606.05C2568.12 2580.4 2638.55 2517.87 2618.89 2516.23C2582.51 2513.06 2544.84 2525.48 2517 2553.35C2484.71 2585.67 2473.13 2630.99 2482.49 2672.68L2367.26 2788.03C2347.84 2807.47 2357.2 2833.94 2387.86 2864.62C2418.51 2895.31 2443.2 2906.43 2464.37 2885.24L2579.6 2769.89Z" fill="#C960FF"/>
<path d="M3134.66 2366.58C3088.03 2356.09 3037.48 2368.94 3001.2 2405.25C2970.03 2436.46 2956.01 2478.54 2959.68 2519.45C2962.44 2552.1 3031.59 2463.47 3060.14 2464.26C3090.4 2465.18 3143.84 2519.73 3145.81 2550.01C3147.51 2578.73 3068.67 2648.74 3090.67 2650.57C3131.41 2654.12 3173.58 2640.22 3204.75 2609.02C3240.9 2572.83 3253.86 2522.09 3243.38 2475.42L3372.39 2346.28C3394.13 2324.51 3383.65 2294.88 3349.33 2260.53C3315.01 2226.17 3287.38 2213.72 3263.67 2237.45L3134.66 2366.58Z" fill="#EBBFFF"/>
<path d="M2696.4 2163C2695.12 2131.34 2678.24 2101.17 2648.82 2084.17C2623.54 2069.56 2594.24 2067.8 2568.73 2077.16C2548.34 2084.52 2616.83 2113.6 2621.22 2132.02C2625.82 2151.55 2600.12 2195.12 2581.11 2201.57C2563.05 2207.58 2504.8 2169.1 2507.4 2183.5C2512.12 2210.19 2528.22 2234.82 2553.5 2249.43C2582.82 2266.37 2617.47 2265.98 2645.5 2251.26L2750.13 2311.73C2767.76 2321.92 2784.9 2310.14 2800.97 2282.27C2817.04 2254.41 2820.26 2234.58 2801.03 2223.47L2696.4 2163Z" fill="#C960FF"/>
<path d="M4556.65 2956.91C4555.84 2937.07 4545.26 2918.15 4526.81 2907.49C4510.96 2898.33 4492.6 2897.23 4476.6 2903.09C4463.82 2907.71 4506.75 2925.94 4509.51 2937.49C4512.39 2949.74 4496.28 2977.05 4484.36 2981.1C4473.04 2984.87 4436.52 2960.74 4438.15 2969.77C4441.1 2986.5 4451.2 3001.94 4467.05 3011.1C4485.43 3021.72 4507.15 3021.48 4524.73 3012.25L4590.33 3050.16C4601.38 3056.55 4612.13 3049.16 4622.2 3031.69C4632.28 3014.23 4634.3 3001.79 4622.25 2994.82L4556.65 2956.91Z" fill="#DB99FD"/>
<path d="M3370.13 2895.42C3351.71 2915.43 3343.65 2944.01 3351.21 2972.23C3357.7 2996.47 3374.42 3015.35 3395.59 3025.17C3412.44 3033.1 3388.5 2973.8 3397 2959.94C3406.06 2945.29 3448.1 2934.45 3463.56 2942.09C3478.18 2949.42 3490.21 3008.2 3497.37 2997.88C3510.7 2978.8 3515.85 2954.05 3509.36 2929.81C3501.84 2901.69 3480.56 2880.87 3454.61 2872.76L3427.75 2772.43C3423.22 2755.52 3405.66 2752.26 3379 2759.41C3352.33 2766.56 3338.34 2776.65 3343.28 2795.08L3370.13 2895.42Z" fill="#C960FF"/>
<path d="M4037.95 3010.28C4051.78 3023.04 4071.53 3028.62 4091.04 3023.39C4107.79 3018.89 4120.84 3007.31 4127.63 2992.64C4133.11 2980.98 4092.12 2997.56 4082.55 2991.67C4072.41 2985.39 4064.92 2956.28 4070.21 2945.57C4075.27 2935.45 4115.9 2927.12 4108.76 2922.16C4095.58 2912.93 4078.47 2909.36 4061.72 2913.85C4042.28 2919.06 4027.89 2933.8 4022.29 2951.77L3952.94 2970.37C3941.25 2973.51 3939 2985.67 3943.94 3004.14C3948.89 3022.61 3955.86 3032.3 3968.6 3028.88L4037.95 3010.28Z" fill="#C960FF"/>
<path d="M3770.32 2823.15C3771.08 2841.96 3781.11 2859.89 3798.6 2870C3813.62 2878.68 3831.03 2879.72 3846.19 2874.16C3858.3 2869.79 3817.61 2852.5 3815 2841.56C3812.27 2829.95 3827.53 2804.06 3838.84 2800.23C3849.57 2796.65 3884.18 2819.52 3882.64 2810.96C3879.83 2795.1 3870.26 2780.47 3855.24 2771.79C3837.82 2761.72 3817.23 2761.96 3800.57 2770.7L3738.39 2734.76C3727.92 2728.71 3717.73 2735.71 3708.18 2752.27C3698.63 2768.83 3696.72 2780.61 3708.14 2787.22L3770.32 2823.15Z" fill="#C960FF"/>
<path d="M3827.15 3247.63C3827.95 3204.91 3807.63 3162.97 3769.36 3137.76C3736.48 3116.09 3697.16 3111.42 3662.06 3122C3634.01 3130.3 3723.92 3174.86 3728.37 3200C3733 3226.65 3694.91 3283.28 3668.79 3290.46C3643.99 3297.13 3568.61 3240.73 3570.96 3260.32C3575.18 3296.62 3594.91 3331.04 3627.79 3352.7C3665.92 3377.83 3712.62 3380.03 3751.54 3362.43L3887.63 3452.09C3910.56 3467.2 3934.59 3452.68 3958.46 3416.44C3982.32 3380.2 3988.25 3353.76 3963.24 3337.29L3827.15 3247.63Z" fill="#C960FF"/>
<path d="M3094.68 3155.71C3116.02 3131.03 3124.61 3096.46 3114.5 3062.92C3105.82 3034.1 3085.06 3012.09 3059.31 3001.1C3038.81 2992.23 3069.74 3062.43 3060.05 3079.36C3049.74 3097.27 2999.75 3111.84 2980.92 3103.25C2963.13 3095.02 2946.51 3024.99 2938.31 3037.64C2923.05 3061.01 2917.79 3090.87 2926.47 3119.69C2936.55 3153.12 2962.84 3177.29 2994.25 3186.03L3030.19 3305.32C3036.25 3325.42 3057.43 3328.67 3089.13 3319.1C3120.83 3309.53 3137.23 3296.92 3130.62 3275L3094.68 3155.71Z" fill="#C960FF"/>
<path d="M1225.87 2266.12C1221.82 2166.63 1168.78 2071.8 1076.3 2018.35C996.837 1972.42 904.759 1966.89 824.574 1996.32C760.486 2019.44 975.747 2110.87 989.545 2168.76C1004 2230.15 923.234 2367.1 863.462 2387.37C806.709 2406.27 623.621 2285.3 631.786 2330.58C646.616 2414.47 697.244 2491.86 776.707 2537.79C868.858 2591.04 977.751 2589.8 1065.85 2543.56L1394.72 2733.63C1450.15 2765.66 1504.02 2728.6 1554.53 2641.03C1605.04 2553.45 1615.17 2491.12 1554.74 2456.19L1225.87 2266.12Z" fill="#EBBFFF"/>
<path d="M914.219 1724.83C967.987 1753.34 1034.1 1754.49 1090.29 1722.02C1138.57 1694.12 1169.32 1647.09 1178.03 1595.6C1185.19 1554.56 1071.83 1640.3 1037.08 1629.77C1000.29 1618.5 952.393 1533.57 959.757 1495.7C966.935 1459.84 1086.17 1400.23 1059.79 1390.6C1011.01 1372.6 954.828 1375.55 906.551 1403.45C850.566 1435.8 818.301 1493.81 816.084 1554.68L616.281 1670.15C582.609 1689.61 585.892 1729.54 616.869 1783.25C647.847 1836.96 677.702 1861.52 714.417 1840.3L914.219 1724.83Z" fill="#C960FF"/>
<path d="M1959.55 3023.79C2010.7 2925.83 2012.15 2805.06 1952.76 2702.1C1901.74 2613.64 1816.24 2557 1722.84 2540.61C1648.4 2527.13 1804.86 2735.05 1786.11 2798.42C1766.05 2865.52 1612.61 2952.22 1543.91 2938.4C1478.86 2924.94 1369.69 2706.54 1352.5 2754.64C1320.35 2843.59 1326.23 2946.25 1377.25 3034.72C1436.42 3137.3 1541.84 3196.8 1652.16 3201.44L1863.32 3567.56C1898.91 3629.26 1971.22 3623.64 2068.25 3567.57C2165.28 3511.49 2209.51 3457.18 2170.71 3389.91L1959.55 3023.79Z" fill="#C960FF"/>
<defs>
<filter id="filter0_f" x="521.085" y="399.207" width="4496.19" height="3296.57" filterUnits="userSpaceOnUse" color-interpolation-filters="sRGB">
<feFlood flood-opacity="0" result="BackgroundImageFix"/>
<feBlend mode="normal" in="SourceGraphic" in2="BackgroundImageFix" result="shape"/>
<feGaussianBlur stdDeviation="0.5" result="effect1_foregroundBlur"/>
</filter>
</defs>
</svg>
