<svg width="936" height="724" viewBox="0 0 936 724" fill="none" xmlns="http://www.w3.org/2000/svg">
<g opacity="0.8" filter="url(#filter0_f)">
<path d="M196.728 86.0001C205.076 87.7691 214.123 85.6272 220.608 79.5483C226.18 74.3252 228.678 67.2741 228.011 60.4166C227.51 54.9439 215.154 69.7837 210.043 69.6452C204.627 69.4842 195.048 60.3296 194.689 55.2526C194.377 50.4394 208.473 38.7225 204.534 38.4097C197.242 37.8068 189.697 40.1264 184.125 45.3495C177.663 51.4065 175.355 59.9083 177.242 67.7343L154.182 89.3508C150.295 92.9938 152.178 97.9629 158.329 103.729C164.48 109.495 169.43 111.589 173.667 107.617L196.728 86.0001Z" fill="white"/>
<path d="M49.7218 313.138C56.5501 316.312 65.0405 316.246 72.3489 312.275C78.6284 308.863 82.7102 303.265 83.9713 297.211C85.0054 292.385 70.2039 302.766 65.7697 301.638C61.0748 300.431 55.1568 290.635 56.208 286.179C57.2296 281.96 72.7129 274.62 69.3509 273.573C63.1335 271.614 55.9082 272.129 49.6288 275.542C42.3467 279.499 38.0407 286.387 37.5869 293.518L11.5984 307.64C7.21857 310.02 7.52943 314.684 11.36 320.877C15.1905 327.07 18.9578 329.855 23.7333 327.26L49.7218 313.138Z" fill="white"/>
<path d="M280.558 182.891C272.443 181.181 263.644 183.275 257.331 189.193C251.906 194.278 249.467 201.137 250.106 207.803C250.585 213.124 262.62 198.68 267.589 198.809C272.854 198.959 282.155 207.848 282.497 212.784C282.794 217.463 269.072 228.872 272.902 229.172C279.991 229.749 287.331 227.485 292.755 222.4C299.046 216.503 301.302 208.234 299.478 200.627L321.929 179.581C325.713 176.035 323.889 171.206 317.916 165.607C311.944 160.008 307.134 157.978 303.009 161.846L280.558 182.891Z" fill="white"/>
<path d="M639.654 677.861C632.987 676.457 625.758 678.177 620.571 683.039C616.114 687.217 614.111 692.852 614.635 698.329C615.029 702.701 624.916 690.834 628.999 690.94C633.325 691.063 640.967 698.366 641.248 702.421C641.492 706.266 630.218 715.64 633.364 715.886C639.189 716.36 645.219 714.5 649.676 710.322C654.845 705.477 656.698 698.683 655.199 692.433L673.645 675.142C676.754 672.228 675.255 668.261 670.348 663.661C665.441 659.061 661.49 657.393 658.1 660.57L639.654 677.861Z" fill="white"/>
<path d="M922.354 564.769C922.239 562.112 920.726 559.579 918.088 558.151C915.822 556.925 913.196 556.777 910.909 557.563C909.081 558.181 915.221 560.623 915.614 562.169C916.026 563.808 913.723 567.466 912.018 568.007C910.4 568.512 905.178 565.281 905.411 566.49C905.834 568.731 907.278 570.798 909.544 572.024C912.172 573.447 915.278 573.414 917.791 572.179L927.17 577.255C928.751 578.11 930.287 577.121 931.728 574.782C933.168 572.443 933.457 570.778 931.734 569.845L922.354 564.769Z" fill="white"/>
<path d="M386.897 643.07C384.262 645.749 383.11 649.576 384.19 653.354C385.118 656.6 387.51 659.128 390.537 660.443C392.946 661.504 389.522 653.564 390.739 651.709C392.034 649.746 398.045 648.295 400.256 649.319C402.345 650.299 404.065 658.171 405.089 656.788C406.995 654.233 407.732 650.92 406.804 647.674C405.728 643.909 402.685 641.121 398.975 640.036L395.135 626.601C394.487 624.337 391.976 623.901 388.164 624.859C384.351 625.816 382.351 627.167 383.057 629.635L386.897 643.07Z" fill="white"/>
<path d="M667.364 534.306C669.341 536.014 672.165 536.761 674.954 536.061C677.35 535.459 679.215 533.908 680.186 531.945C680.97 530.382 675.109 532.603 673.74 531.814C672.291 530.974 671.22 527.076 671.976 525.642C672.7 524.287 678.509 523.171 677.489 522.507C675.603 521.271 673.158 520.793 670.762 521.395C667.983 522.093 665.926 524.066 665.125 526.472L655.209 528.963C653.538 529.383 653.216 531.011 653.922 533.484C654.629 535.957 655.626 537.254 657.448 536.796L667.364 534.306Z" fill="white"/>
<path d="M496.827 344.038C493.562 339.203 487.838 336.01 481.285 336.01C475.655 336.01 470.593 338.383 467.234 342.153C464.537 345.147 478.778 343.505 481.285 345.989C483.935 348.628 483.84 357.765 481.285 360.493C478.849 363.065 465.412 362.311 467.234 364.33C470.593 368.077 475.655 370.473 481.285 370.473C487.814 370.473 493.562 367.279 496.827 362.445H520.127C524.054 362.445 525.781 359.051 525.781 353.241C525.781 347.431 524.409 344.038 520.127 344.038H496.827Z" fill="white"/>
<path d="M485.227 591.305C488.278 588.001 489.507 583.372 488.062 578.881C486.82 575.021 483.852 572.075 480.17 570.604C477.24 569.416 481.661 578.815 480.276 581.082C478.802 583.48 471.654 585.431 468.962 584.281C466.418 583.178 464.042 573.802 462.87 575.495C460.687 578.625 459.935 582.623 461.177 586.482C462.617 590.958 466.376 594.193 470.868 595.365L476.007 611.337C476.873 614.028 479.901 614.464 484.434 613.182C488.967 611.9 491.311 610.211 490.366 607.276L485.227 591.305Z" fill="white"/>
<path d="M801.053 512.664C803.302 510.229 804.208 506.817 803.143 503.506C802.227 500.661 800.04 498.489 797.325 497.405C795.165 496.529 798.425 503.458 797.404 505.129C796.317 506.896 791.048 508.334 789.064 507.487C787.188 506.674 785.437 499.762 784.573 501.011C782.964 503.317 782.409 506.265 783.325 509.11C784.386 512.409 787.157 514.794 790.468 515.657L794.257 527.431C794.895 529.415 797.127 529.736 800.469 528.791C803.81 527.846 805.538 526.601 804.842 524.438L801.053 512.664Z" fill="white"/>
<path d="M817.442 659.464C821.474 655.099 823.097 648.984 821.187 643.05C819.547 637.951 815.626 634.059 810.762 632.115C806.89 630.546 812.731 642.963 810.902 645.958C808.954 649.126 799.51 651.703 795.955 650.185C792.593 648.728 789.455 636.34 787.906 638.578C785.022 642.712 784.029 647.994 785.669 653.093C787.572 659.005 792.538 663.28 798.472 664.828L805.262 685.928C806.406 689.484 810.407 690.06 816.395 688.366C822.383 686.673 825.48 684.442 824.232 680.564L817.442 659.464Z" fill="white"/>
<path d="M241.733 627.871C247.721 615.675 247.112 601.272 238.729 589.615C231.527 579.6 220.063 573.73 207.84 572.736C198.096 571.894 219.763 595.059 217.749 602.802C215.59 611.002 196.26 622.907 187.257 621.966C178.732 621.031 163.129 596.132 161.216 602.039C157.634 612.967 159.074 625.137 166.276 635.153C174.628 646.767 188.696 652.774 203.035 652.193L232.842 693.643C237.866 700.629 247.208 699.217 259.423 691.54C271.639 683.862 277.017 676.938 271.54 669.321L241.733 627.871Z" fill="white"/>
<path d="M494.483 471.24C498.356 464.572 498.609 456.36 494.376 449.368C490.739 443.36 484.533 439.521 477.699 438.42C472.252 437.514 483.482 451.629 482.029 455.941C480.475 460.506 469.109 466.423 464.084 465.493C459.327 464.587 451.58 449.753 450.26 453.026C447.793 459.079 448.099 466.058 451.736 472.066C455.954 479.033 463.619 483.063 471.709 483.363L486.761 508.227C489.298 512.417 494.611 512.025 501.8 508.198C508.989 504.371 512.301 500.672 509.535 496.103L494.483 471.24Z" fill="white"/>
</g>
<path d="M210.49 82.9537C222.501 85.6712 235.517 82.381 244.847 73.0426C252.863 65.0191 256.457 54.1873 255.498 43.653C254.778 35.2459 237.001 58.0425 229.647 57.8296C221.855 57.5825 208.074 43.5193 207.557 35.7201C207.108 28.3262 227.388 10.3269 221.721 9.84639C211.23 8.92025 200.374 12.4836 192.357 20.5072C183.061 29.8118 179.74 42.8721 182.455 54.8942L149.277 88.101C143.686 93.6973 146.395 101.331 155.245 110.188C164.094 119.045 171.216 122.262 177.312 116.16L210.49 82.9537Z" fill="#C960FF"/>
<path d="M113.295 172.112C115.21 162.696 112.427 152.591 104.995 145.456C98.6093 139.325 90.1106 136.689 81.9204 137.602C75.3833 138.295 93.442 151.812 93.4002 157.554C93.339 163.638 82.616 174.612 76.5491 175.137C70.7967 175.603 56.433 160.057 56.1542 164.487C55.6097 172.689 58.5686 181.105 64.9543 187.235C72.3595 194.345 82.5896 196.733 91.9093 194.426L118.337 219.799C122.791 224.075 128.692 221.842 135.443 214.798C142.194 207.754 144.58 202.146 139.723 197.484L113.295 172.112Z" fill="#C960FF"/>
<path d="M196.847 215.719C184.172 219.678 173.791 229.798 170.102 243.578C166.932 255.418 169.401 267.491 175.96 276.822C181.153 284.293 185.492 253.358 192.472 249.578C199.879 245.592 220.307 251.284 224.983 258.297C229.378 264.967 220.123 292.771 225.672 290.154C235.964 285.343 244.184 276.136 247.353 264.296C251.029 250.565 247.107 236.556 238.108 226.785L251.227 177.782C253.438 169.523 246.804 163.852 233.78 160.359C220.755 156.866 212.377 157.712 209.966 166.716L196.847 215.719Z" fill="#DB99FD"/>
<path d="M113.345 569.124C124.393 568.652 134.932 562.72 140.886 552.398C146.001 543.53 146.635 533.264 143.385 524.332C140.831 517.192 130.635 541.208 124.204 542.759C117.386 544.383 102.199 535.408 99.9605 528.749C97.8742 522.426 111.343 501.991 106.315 502.91C96.9977 504.581 88.3945 510.242 83.279 519.11C77.3467 529.394 77.4618 541.533 82.577 551.345L61.4057 588.047C57.8377 594.232 61.9404 600.229 71.6528 605.842C81.3651 611.454 88.2835 612.571 92.1738 605.826L113.345 569.124Z" fill="#C960FF"/>
<path d="M226.309 376.194C233.131 368.787 236.114 358.206 233.317 347.76C230.914 338.784 224.722 331.796 216.882 328.159C210.644 325.224 219.51 347.178 216.36 352.307C213.007 357.734 197.441 361.746 191.716 358.917C186.305 356.205 181.852 334.441 179.2 338.265C174.265 345.327 172.356 354.489 174.759 363.464C177.545 373.872 185.425 381.581 195.033 384.582L204.977 421.727C206.653 427.987 213.155 429.194 223.028 426.546C232.901 423.899 238.081 420.165 236.253 413.339L226.309 376.194Z" fill="#C960FF"/>
<path d="M315.84 320.079C325.984 322.361 336.983 319.567 344.875 311.667C351.656 304.88 354.704 295.726 353.906 286.828C353.307 279.727 338.264 299.005 332.052 298.833C325.47 298.633 313.844 286.769 313.416 280.181C313.045 273.935 330.197 258.707 325.41 258.308C316.549 257.537 307.374 260.56 300.593 267.347C292.729 275.217 289.909 286.254 292.189 296.407L264.125 324.496C259.395 329.23 261.675 335.675 269.141 343.147C276.607 350.62 282.619 353.329 287.776 348.168L315.84 320.079Z" fill="#C960FF"/>
<path d="M307.365 408.057C295.69 405.43 283.032 408.646 273.948 417.738C266.143 425.549 262.635 436.086 263.554 446.327C264.243 454.5 281.557 432.312 288.707 432.509C296.282 432.74 309.663 446.395 310.156 453.977C310.583 461.166 290.841 478.693 296.351 479.152C306.55 480.039 317.11 476.561 324.914 468.749C333.965 459.69 337.211 446.988 334.587 435.302L366.888 402.973C372.332 397.524 369.707 390.106 361.115 381.506C352.522 372.905 345.602 369.787 339.666 375.727L307.365 408.057Z" fill="#DB99FD"/>
<path d="M431.661 525.724C440.228 527.651 449.518 525.291 456.184 518.619C461.912 512.887 464.486 505.155 463.812 497.639C463.306 491.641 450.6 507.924 445.353 507.779C439.794 507.61 429.974 497.589 429.613 492.025C429.3 486.749 443.787 473.887 439.744 473.55C432.259 472.899 424.51 475.452 418.782 481.184C412.14 487.832 409.758 497.154 411.684 505.73L387.979 529.455C383.985 533.453 385.91 538.897 392.216 545.209C398.522 551.52 403.6 553.809 407.956 549.449L431.661 525.724Z" fill="#C960FF"/>
<path d="M545.845 442.77C536.253 440.612 525.852 443.254 518.389 450.724C511.977 457.142 509.094 465.799 509.849 474.213C510.416 480.928 524.641 462.698 530.515 462.86C536.739 463.049 547.733 474.269 548.138 480.499C548.488 486.405 532.269 500.805 536.795 501.182C545.175 501.911 553.851 499.053 560.263 492.635C567.7 485.192 570.367 474.756 568.21 465.155L594.749 438.593C599.221 434.117 597.066 428.022 590.006 420.956C582.946 413.889 577.26 411.327 572.384 416.208L545.845 442.77Z" fill="#EBBFFF"/>
<path d="M455.689 400.895C455.424 394.384 451.953 388.179 445.9 384.681C440.699 381.676 434.673 381.314 429.425 383.24C425.231 384.753 439.319 390.736 440.222 394.524C441.168 398.541 435.882 407.503 431.97 408.829C428.256 410.066 416.273 402.15 416.807 405.113C417.778 410.603 421.092 415.667 426.292 418.673C432.323 422.158 439.45 422.076 445.216 419.05L466.74 431.488C470.368 433.584 473.893 431.159 477.199 425.429C480.505 419.698 481.168 415.619 477.213 413.333L455.689 400.895Z" fill="#C960FF"/>
<path d="M838.367 564.191C838.201 560.109 836.025 556.219 832.23 554.026C828.969 552.142 825.191 551.915 821.901 553.122C819.271 554.071 828.104 557.822 828.67 560.197C829.263 562.716 825.949 568.334 823.496 569.166C821.168 569.941 813.655 564.978 813.99 566.836C814.598 570.278 816.676 573.453 819.937 575.337C823.718 577.522 828.186 577.471 831.801 575.574L845.296 583.372C847.57 584.686 849.781 583.166 851.853 579.573C853.926 575.98 854.342 573.422 851.862 571.989L838.367 564.191Z" fill="#DB99FD"/>
<path d="M594.285 551.543C590.495 555.659 588.837 561.538 590.391 567.342C591.726 572.328 595.167 576.211 599.522 578.232C602.988 579.862 598.062 567.665 599.812 564.815C601.676 561.8 610.324 559.571 613.505 561.143C616.511 562.65 618.985 574.741 620.459 572.617C623.2 568.693 624.261 563.603 622.926 558.616C621.378 552.833 617 548.551 611.662 546.883L606.137 526.245C605.206 522.767 601.593 522.097 596.108 523.568C590.622 525.039 587.745 527.113 588.76 530.906L594.285 551.543Z" fill="#C960FF"/>
<path d="M731.664 575.168C734.509 577.792 738.573 578.94 742.585 577.864C746.032 576.939 748.716 574.557 750.112 571.541C751.24 569.141 742.808 572.552 740.838 571.34C738.754 570.05 737.213 564.061 738.3 561.858C739.341 559.777 747.7 558.063 746.231 557.043C743.519 555.144 740 554.41 736.553 555.334C732.556 556.406 729.595 559.438 728.443 563.134L714.177 566.96C711.772 567.605 711.309 570.107 712.326 573.905C713.343 577.704 714.777 579.697 717.398 578.994L731.664 575.168Z" fill="#C960FF"/>
<path d="M676.608 536.679C676.766 540.548 678.828 544.235 682.425 546.314C685.516 548.1 689.097 548.315 692.216 547.171C694.708 546.271 686.336 542.716 685.799 540.465C685.237 538.077 688.379 532.752 690.703 531.964C692.91 531.229 700.031 535.933 699.714 534.172C699.137 530.91 697.168 527.9 694.077 526.114C690.493 524.043 686.258 524.092 682.832 525.89L670.041 518.499C667.886 517.253 665.79 518.694 663.826 522.1C661.861 525.505 661.467 527.929 663.818 529.287L676.608 536.679Z" fill="#C960FF"/>
<path d="M688.3 623.987C688.464 615.202 684.284 606.574 676.411 601.388C669.647 596.933 661.56 595.97 654.338 598.148C648.568 599.855 667.064 609.02 667.978 614.191C668.931 619.673 661.097 631.32 655.722 632.797C650.621 634.169 635.114 622.568 635.597 626.598C636.466 634.065 640.524 641.144 647.289 645.6C655.133 650.767 664.738 651.219 672.746 647.601L700.741 666.042C705.459 669.15 710.401 666.163 715.311 658.709C720.221 651.256 721.44 645.817 716.296 642.428L688.3 623.987Z" fill="#C960FF"/>
<path d="M537.619 605.081C542.009 600.005 543.777 592.895 541.697 585.995C539.911 580.067 535.641 575.54 530.344 573.281C526.128 571.456 532.489 585.895 530.497 589.377C528.375 593.061 518.091 596.057 514.218 594.291C510.558 592.597 507.14 578.193 505.453 580.795C502.313 585.602 501.231 591.744 503.018 597.673C505.09 604.548 510.498 609.519 516.96 611.318L524.354 635.854C525.601 639.989 529.957 640.657 536.478 638.688C542.999 636.72 546.372 634.125 545.013 629.617L537.619 605.081Z" fill="#C960FF"/>
<path d="M153.179 422.107C152.346 401.642 141.436 382.137 122.41 371.143C106.064 361.697 87.1219 360.56 70.6268 366.612C57.4429 371.369 101.725 390.174 104.564 402.081C107.537 414.708 90.9224 442.875 78.6265 447.045C66.9517 450.933 29.2879 426.052 30.9675 435.364C34.0182 452.619 44.4332 468.538 60.7799 477.984C79.7365 488.938 102.137 488.682 120.262 479.171L187.915 518.265C199.316 524.854 210.398 517.232 220.789 499.219C231.179 481.206 233.264 468.385 220.832 461.201L153.179 422.107Z" fill="#EBBFFF"/>
<path d="M89.0679 310.771C100.129 316.636 113.729 316.872 125.288 310.193C135.219 304.454 141.547 294.782 143.337 284.19C144.811 275.749 121.49 293.385 114.343 291.218C106.775 288.901 96.9208 271.433 98.4358 263.642C99.9123 256.267 124.441 244.005 119.014 242.025C108.978 238.323 97.4218 238.929 87.4905 244.668C75.9736 251.323 69.3361 263.254 68.88 275.774L27.7779 299.525C20.851 303.528 21.5262 311.739 27.8988 322.787C34.2714 333.834 40.413 338.887 47.9658 334.522L89.0679 310.771Z" fill="#C960FF"/>
<path d="M304.107 577.947C314.629 557.799 314.927 532.958 302.711 511.781C292.216 493.586 274.626 481.936 255.413 478.564C240.1 475.791 272.286 518.557 268.428 531.592C264.302 545.393 232.737 563.226 218.603 560.384C205.224 557.616 182.765 512.695 179.228 522.588C172.615 540.884 173.824 561.999 184.32 580.195C196.492 601.295 218.179 613.533 240.873 614.487L284.312 689.791C291.633 702.482 306.509 701.328 326.469 689.793C346.43 678.259 355.528 667.089 347.546 653.251L304.107 577.947Z" fill="#C960FF"/>
<defs>
<filter id="filter0_f">
<feGaussianBlur stdDeviation="0.5"/>
</filter>
</defs>
</svg>
