<svg width="498" height="115" viewBox="0 0 498 115" fill="none" xmlns="http://www.w3.org/2000/svg">
<g clip-path="url(#clip0)">
<rect width="497.25" height="114.442" fill="#FADDFF"/>
<rect x="167.639" y="39.0645" width="10.2998" height="36.0361" fill="black"/>
<path fill-rule="evenodd" clip-rule="evenodd" d="M157.182 75.6721C167.921 75.6721 175.632 66.4609 175.632 57.0753C175.632 48.2101 167.972 38.4785 157.182 38.4785C146.863 38.4785 139.028 46.8046 139.028 57.0753C139.028 67.3461 146.863 75.6721 157.182 75.6721ZM158.313 66.2727C163.604 66.2727 167.639 62.3311 167.639 57.0759C167.639 51.8208 163.604 47.8792 158.313 47.8792C153.022 47.8792 148.925 51.9967 148.925 57.0759C148.925 62.1551 153.022 66.2727 158.313 66.2727Z" fill="black"/>
<path fill-rule="evenodd" clip-rule="evenodd" d="M219.314 49.1111L209.882 53.4923C208.679 50.7822 206.142 48.6011 202.711 48.6011C197.834 48.6011 194.056 52.3971 194.056 57.0798C194.056 61.7624 197.834 65.5584 202.711 65.5584C206.221 65.5584 208.795 63.5937 209.963 60.7476L219.375 65.1858C216.483 71.3955 210.279 75.677 202.544 75.677C192.13 75.677 183.947 67.3509 183.947 57.0802C183.947 46.8095 192.502 38.4834 202.544 38.4834C209.798 38.4834 216.276 42.8277 219.314 49.1111Z" fill="black"/>
<rect x="225.146" y="39.0566" width="10.2998" height="36.0489" fill="black"/>
<path d="M248.035 53.0761L258.334 52.2178V75.1062H248.035V53.0761Z" fill="black"/>
<path d="M270.923 53.0761L281.223 52.2178V75.1062H270.923V53.0761Z" fill="black"/>
<path d="M244.677 38.4814C253.792 38.4814 258.334 45.4647 258.334 52.7867L248.035 54.7016C248.035 51.5354 245.174 48.6851 241.74 48.6851C238.307 48.6851 235.446 51.6444 235.446 55.0776L232.718 51.2276C231.645 48.6851 235.536 38.4814 244.677 38.4814Z" fill="black"/>
<path d="M267.565 38.4814C276.68 38.4814 281.223 45.4647 281.223 52.7867L270.923 54.7016C270.923 51.5354 268.062 48.6851 264.629 48.6851C261.195 48.6851 258.334 51.6444 258.334 55.0776L255.606 51.2276C254.533 48.6851 258.424 38.4814 267.565 38.4814Z" fill="black"/>
<path d="M267.565 38.4814C276.68 38.4814 281.223 45.4647 281.223 52.7867L270.923 53.645C270.923 50.4787 268.062 47.9229 264.629 47.9229C261.196 47.9229 258.334 50.2117 258.334 53.645L253.185 48.209C255.473 43.0591 258.424 38.4814 267.565 38.4814Z" fill="black"/>
<circle cx="297.088" cy="68.3675" r="6.71028" fill="black"/>
<rect x="381.359" y="39.0176" width="10.2998" height="36.0361" fill="black"/>
<path fill-rule="evenodd" clip-rule="evenodd" d="M370.902 75.6253C381.641 75.6253 389.352 66.4141 389.352 57.0285C389.352 48.1632 381.692 38.4316 370.902 38.4316C360.583 38.4316 352.749 46.7577 352.749 57.0285C352.749 67.2992 360.583 75.6253 370.902 75.6253ZM372.033 66.2247C377.324 66.2247 381.36 62.2831 381.36 57.0279C381.36 51.7728 377.324 47.8312 372.033 47.8312C366.742 47.8312 362.645 51.9487 362.645 57.0279C362.645 62.1072 366.742 66.2247 372.033 66.2247Z" fill="black"/>
<path fill-rule="evenodd" clip-rule="evenodd" d="M431.89 49.0616L422.458 53.4432C421.255 50.7331 418.718 48.552 415.287 48.552C410.409 48.552 406.632 52.348 406.632 57.0306C406.632 61.7133 410.409 65.5093 415.287 65.5093C418.796 65.5093 421.37 63.5446 422.538 60.6985L431.949 65.136C429.057 71.3447 422.853 75.6253 415.119 75.6253C404.705 75.6253 396.522 67.2992 396.522 57.0284C396.522 46.7577 405.077 38.4316 415.119 38.4316C422.374 38.4316 428.852 42.7769 431.89 49.0616Z" fill="black"/>
<rect x="312.408" y="23.0312" width="10.2998" height="52.009" fill="black"/>
<path d="M337.353 55.2288L347.652 52.6777V75.0707H337.353L337.353 55.2288Z" fill="black"/>
<path d="M332.688 38.3809C342.675 38.3809 347.652 45.3642 347.652 52.6861L337.352 55.737C337.352 51.8962 335.137 48.5845 330.123 48.5845C325.026 48.5845 322.708 52.3037 322.708 55.737L319.585 51.127C317.868 47.5894 322.672 38.3809 332.688 38.3809Z" fill="black"/>
<rect x="438.58" y="23.0312" width="10.2998" height="52.0224" fill="black"/>
<path d="M459.834 39.5752H473.485L446.878 67.9721L439.198 62.9941L459.834 39.5752Z" fill="black"/>
<path d="M461.11 75.1035H473.79L454.888 51.0189L447.164 57.2307L461.11 75.1035Z" fill="black"/>
<rect x="68.6465" y="-1.00098" width="80.9226" height="80.9226" rx="22.8884" transform="rotate(45 68.6465 -1.00098)" fill="#C960FF"/>
<path d="M75.3715 81.1799C75.3715 84.1025 72.3578 85.4038 68.6369 85.4038C64.916 85.4038 61.9023 84.1025 61.9023 81.1799C61.9023 78.556 63.3276 81.0092 68.6369 81.0092C73.9462 81.0092 75.3715 78.6947 75.3715 81.1799Z" fill="white"/>
<path d="M79.1888 71.1356C79.1888 76.7285 74.5265 79.1085 68.7799 79.1085C63.0333 79.1085 58.371 76.2417 58.371 71.1356C58.371 63.2493 50.1523 60.4799 50.1523 49.0561C50.1523 38.7898 58.4903 30.4707 68.7799 30.4707C79.0695 30.4707 87.4074 38.7898 87.4074 49.0561C87.4074 61.3778 79.1888 64.3744 79.1888 71.1356Z" fill="white"/>
<path d="M73.152 60.7345C75.5239 59.2435 77.0907 56.629 77.0907 53.6364C77.0907 51.0651 75.9265 48.753 74.0768 47.2189C72.608 45.9873 73.4131 52.4912 72.1945 53.6364C70.8998 54.8464 66.4171 54.8032 65.0788 53.6364C63.8167 52.5236 64.1866 46.387 63.1965 47.2189C61.3577 48.753 60.1826 51.0651 60.1826 53.6364C60.1826 56.6182 61.7494 59.2435 64.1213 60.7345V71.3762C64.1213 73.1696 65.786 73.9583 68.6367 73.9583C71.4873 73.9583 73.152 73.3317 73.152 71.3762V60.7345Z" fill="#C960FF"/>
<g style="mix-blend-mode:lighten">
<rect x="308.036" y="22.6172" width="176.974" height="78.0773" fill="url(#paint0_linear)"/>
</g>
</g>
<defs>
<linearGradient id="paint0_linear" x1="312.828" y1="96.5672" x2="485.009" y2="22.6172" gradientUnits="userSpaceOnUse">
<stop stop-color="#FF56DA"/>
<stop offset="1" stop-color="#FF3D3D"/>
</linearGradient>
<clipPath id="clip0">
<rect width="497.25" height="114.442" fill="white"/>
</clipPath>
</defs>
</svg>
