<svg xmlns="http://www.w3.org/2000/svg" xmlns:xlink="http://www.w3.org/1999/xlink" viewBox="0 0 1582.93 333.73"><defs><style>.cls-1{fill-rule:evenodd;}.cls-2{fill:#c960ff;}.cls-3{fill:#fff;}.cls-4{mask:url(#mask);}.cls-5{fill:url(#linear-gradient);}.cls-6{filter:url(#luminosity-invert);}</style><filter id="luminosity-invert" filterUnits="userSpaceOnUse" color-interpolation-filters="sRGB"><feColorMatrix values="-1 0 0 0 1 0 -1 0 0 1 0 0 -1 0 1 0 0 0 1 0"/></filter><mask id="mask" x="1018.87" y="49.88" width="564.06" height="272.9" maskUnits="userSpaceOnUse"><g class="cls-6"><rect x="1259.87" y="106.73" width="36" height="125.95"/><path class="cls-1" d="M1223.32,234.69c37.53,0,64.48-32.2,64.48-65,0-31-26.77-65-64.48-65-36.07,0-63.45,29.1-63.45,65S1187.25,234.69,1223.32,234.69Zm4-32.86c18.49,0,32.6-13.77,32.6-32.14s-14.11-32.15-32.6-32.15-32.82,14.4-32.82,32.15S1208.78,201.83,1227.27,201.83Z"/><path class="cls-1" d="M1436.48,141.84l-33,15.31c-4.2-9.47-13.07-17.1-25.06-17.1-17,0-30.25,13.27-30.25,29.64s13.2,29.63,30.25,29.63c12.27,0,21.26-6.86,25.35-16.81L1436.69,198c-10.1,21.71-31.79,36.67-58.82,36.67a64.68,64.68,0,0,1-65-65c0-35.9,29.9-65,65-65C1403.22,104.69,1425.86,119.87,1436.48,141.84Z"/><rect x="1018.87" y="50.86" width="36" height="181.78"/><path d="M1106.05,163.4l36-8.91v78.27h-36Z"/><path d="M1089.75,104.51c34.9,0,52.3,24.41,52.3,50l-36,10.67c0-13.43-7.74-25-25.27-25-17.81,0-25.91,13-25.91,25L1044,149.07C1038,136.7,1054.74,104.51,1089.75,104.51Z"/><rect x="1459.87" y="50.86" width="36" height="181.83"/><path d="M1534.15,108.69h47.72l-93,99.25L1462,190.54Z"/><path d="M1538.61,232.87h44.32l-66.06-84.18-27,21.71Z"/></g></mask><linearGradient id="linear-gradient" x1="1031.25" y1="38.63" x2="1588.49" y2="277.95" gradientTransform="matrix(1, 0, 0, -1, 0, 340.76)" gradientUnits="userSpaceOnUse"><stop offset="0" stop-color="#ff56da"/><stop offset="0.12" stop-color="#ff55d3"/><stop offset="0.3" stop-color="#ff52be"/><stop offset="0.52" stop-color="#ff4c9d"/><stop offset="0.77" stop-color="#ff456f"/><stop offset="1" stop-color="#ff3d3d"/></linearGradient></defs><title>Asset 1</title><g id="Layer_2" data-name="Layer 2"><g id="Layer_1-2" data-name="Layer 1"><rect x="512.86" y="106.9" width="36" height="125.95"/><path class="cls-1" d="M476.31,234.85c37.54,0,64.49-32.19,64.49-65,0-31-26.77-65-64.49-65-36.06,0-63.45,29.1-63.45,65S440.25,234.85,476.31,234.85Zm4-32.85c18.49,0,32.59-13.78,32.59-32.15s-14.1-32.14-32.59-32.14-32.82,14.39-32.82,32.14S461.77,202,480.27,202Z"/><path class="cls-1" d="M693.48,142l-33,15.31c-4.2-9.47-13.07-17.09-25.06-17.09-17.05,0-30.25,13.27-30.25,29.63s13.2,29.64,30.25,29.64c12.26,0,21.26-6.87,25.34-16.82l32.9,15.52c-10.11,21.7-31.79,36.66-58.83,36.66a64.68,64.68,0,0,1-65-65c0-35.9,29.9-65,65-65C660.22,104.86,682.86,120.05,693.48,142Z"/><rect x="713.86" y="106.87" width="36" height="126"/><path d="M793.86,155.87l36-3v80h-36Z"/><path d="M873.86,155.87l36-3v80h-36Z"/><path d="M782.13,104.86c31.85,0,47.73,24.41,47.73,50l-36,6.7c0-11.07-10-21-22-21s-22,10.34-22,22.34l-9.53-13.46C736.58,140.53,750.18,104.86,782.13,104.86Z"/><path d="M862.13,104.86c31.85,0,47.73,24.41,47.73,50l-36,6.7c0-11.07-10-21-22-21s-22,10.34-22,22.34l-9.53-13.46C816.58,140.53,830.18,104.86,862.13,104.86Z"/><path d="M862.13,104.86c31.86,0,47.73,24.41,47.73,50l-36,3c0-11.06-10-20-22-20s-22,8-22,20l-18-19C819.86,120.86,830.18,104.86,862.13,104.86Z"/><circle cx="965.32" cy="209.32" r="23.45" transform="translate(448.27 1050.93) rotate(-70.67)"/><rect class="cls-2" x="25.44" y="25.44" width="282.84" height="282.84" rx="80" transform="translate(-69.12 166.86) rotate(-45)"/><path class="cls-3" d="M190.37,254.1c0,10.21-10.54,14.76-23.54,14.76s-23.54-4.55-23.54-14.76c0-9.17,5-.6,23.54-.6S190.37,245.41,190.37,254.1Z"/><path class="cls-3" d="M203.71,219c0,19.54-16.3,27.86-36.38,27.86S131,236.84,131,219c0-27.57-28.73-37.25-28.73-77.18a65.11,65.11,0,0,1,130.22,0C232.44,184.89,203.71,195.36,203.71,219Z"/><path class="cls-2" d="M182.61,182.64a29.19,29.19,0,0,0,3.23-47.24c-5.13-4.3-2.32,18.43-6.58,22.43-4.52,4.23-20.19,4.08-24.87,0-4.41-3.89-3.12-25.33-6.58-22.43a29.2,29.2,0,0,0,3.24,47.24v37.2c0,6.27,5.81,9,15.78,9s15.78-2.19,15.78-9Z"/><g class="cls-4"><rect class="cls-5" x="1018.87" y="49.88" width="564.06" height="272.9"/></g></g></g></svg>
