<svg xmlns="http://www.w3.org/2000/svg" xmlns:xlink="http://www.w3.org/1999/xlink" viewBox="0 0 1019.22 500.08"><defs><style>.cls-1{fill:#942ad1;}.cls-2{fill:url(#linear-gradient);}.cls-3{fill:url(#linear-gradient-2);}.cls-4{fill:url(#linear-gradient-3);}.cls-5{fill:url(#linear-gradient-4);}.cls-6{fill:url(#linear-gradient-5);}.cls-7{fill:url(#linear-gradient-6);}.cls-8{fill:url(#linear-gradient-7);}.cls-9{fill:url(#linear-gradient-8);}.cls-10{fill:url(#linear-gradient-9);}.cls-11{fill:url(#linear-gradient-10);}.cls-12{fill:url(#linear-gradient-11);}.cls-13{fill:#682b93;}.cls-14{fill:url(#linear-gradient-12);}</style><linearGradient id="linear-gradient" x1="16.79" y1="67.3" x2="297.66" y2="67.3" gradientUnits="userSpaceOnUse"><stop offset="0" stop-color="#d28ff9" stop-opacity="0"/><stop offset="0.04" stop-color="#c981f3" stop-opacity="0.14"/><stop offset="0.12" stop-color="#bd6ceb" stop-opacity="0.34"/><stop offset="0.2" stop-color="#b25ae4" stop-opacity="0.52"/><stop offset="0.28" stop-color="#a94bde" stop-opacity="0.67"/><stop offset="0.37" stop-color="#a13fd9" stop-opacity="0.79"/><stop offset="0.47" stop-color="#9b36d6" stop-opacity="0.88"/><stop offset="0.59" stop-color="#972fd3" stop-opacity="0.95"/><stop offset="0.74" stop-color="#952bd1" stop-opacity="0.99"/><stop offset="1" stop-color="#942ad1"/></linearGradient><linearGradient id="linear-gradient-2" x1="85.47" y1="102.55" x2="344.33" y2="102.55" gradientUnits="userSpaceOnUse"><stop offset="0" stop-color="#d28ff9" stop-opacity="0"/><stop offset="0.01" stop-color="#d18df8" stop-opacity="0.02"/><stop offset="0.06" stop-color="#c478f0" stop-opacity="0.23"/><stop offset="0.11" stop-color="#b865e9" stop-opacity="0.41"/><stop offset="0.17" stop-color="#af55e2" stop-opacity="0.57"/><stop offset="0.24" stop-color="#a648dd" stop-opacity="0.71"/><stop offset="0.31" stop-color="#a03dd8" stop-opacity="0.81"/><stop offset="0.4" stop-color="#9a34d5" stop-opacity="0.9"/><stop offset="0.51" stop-color="#972ed3" stop-opacity="0.96"/><stop offset="0.65" stop-color="#952bd1" stop-opacity="0.99"/><stop offset="1" stop-color="#942ad1"/></linearGradient><linearGradient id="linear-gradient-3" x1="134.12" y1="138.55" x2="320.17" y2="138.55" gradientUnits="userSpaceOnUse"><stop offset="0" stop-color="#d28ff9" stop-opacity="0"/><stop offset="0.01" stop-color="#d08bf8" stop-opacity="0.04"/><stop offset="0.11" stop-color="#c275ef" stop-opacity="0.26"/><stop offset="0.2" stop-color="#b661e7" stop-opacity="0.46"/><stop offset="0.31" stop-color="#ab50e0" stop-opacity="0.63"/><stop offset="0.41" stop-color="#a342db" stop-opacity="0.76"/><stop offset="0.53" stop-color="#9c37d6" stop-opacity="0.87"/><stop offset="0.65" stop-color="#9830d3" stop-opacity="0.94"/><stop offset="0.8" stop-color="#952bd2" stop-opacity="0.99"/><stop offset="1" stop-color="#942ad1"/></linearGradient><linearGradient id="linear-gradient-4" x1="208.67" y1="173.55" x2="370.45" y2="173.55" gradientUnits="userSpaceOnUse"><stop offset="0" stop-color="#d28ff9" stop-opacity="0"/><stop offset="0.05" stop-color="#c87ef2" stop-opacity="0.16"/><stop offset="0.12" stop-color="#bc6beb" stop-opacity="0.36"/><stop offset="0.19" stop-color="#b159e4" stop-opacity="0.53"/><stop offset="0.27" stop-color="#a84ade" stop-opacity="0.68"/><stop offset="0.36" stop-color="#a13fd9" stop-opacity="0.8"/><stop offset="0.46" stop-color="#9b35d5" stop-opacity="0.89"/><stop offset="0.57" stop-color="#972fd3" stop-opacity="0.95"/><stop offset="0.72" stop-color="#952bd1" stop-opacity="0.99"/><stop offset="1" stop-color="#942ad1"/></linearGradient><linearGradient id="linear-gradient-5" x1="243.73" y1="208.55" x2="373.16" y2="208.55" gradientUnits="userSpaceOnUse"><stop offset="0" stop-color="#d28ff9" stop-opacity="0"/><stop offset="0.02" stop-color="#ce88f6" stop-opacity="0.07"/><stop offset="0.11" stop-color="#c072ee" stop-opacity="0.28"/><stop offset="0.2" stop-color="#b45fe6" stop-opacity="0.48"/><stop offset="0.3" stop-color="#aa4edf" stop-opacity="0.64"/><stop offset="0.4" stop-color="#a241da" stop-opacity="0.77"/><stop offset="0.51" stop-color="#9c37d6" stop-opacity="0.87"/><stop offset="0.64" stop-color="#9730d3" stop-opacity="0.94"/><stop offset="0.78" stop-color="#952bd2" stop-opacity="0.99"/><stop offset="1" stop-color="#942ad1"/></linearGradient><linearGradient id="linear-gradient-6" x1="38.83" y1="35.95" x2="319.71" y2="35.95" gradientTransform="matrix(0.96, 0, 0, -0.96, 697.26, 70.01)" xlink:href="#linear-gradient"/><linearGradient id="linear-gradient-7" x1="107.51" y1="71.2" x2="366.37" y2="71.2" gradientTransform="matrix(0.96, 0, 0, -0.96, 591.02, 144.52)" xlink:href="#linear-gradient-2"/><linearGradient id="linear-gradient-8" x1="156.16" y1="107.2" x2="342.22" y2="107.2" gradientTransform="matrix(0.96, 0, 0, -0.96, 571.38, 215.15)" xlink:href="#linear-gradient-3"/><linearGradient id="linear-gradient-9" x1="230.71" y1="142.2" x2="392.5" y2="142.2" gradientTransform="matrix(0.96, 0, 0, -0.96, 456.03, 289.73)" xlink:href="#linear-gradient-4"/><linearGradient id="linear-gradient-10" x1="265.78" y1="177.2" x2="395.21" y2="177.2" gradientTransform="matrix(0.96, 0, 0, -0.96, 423.84, 359.2)" xlink:href="#linear-gradient-5"/><linearGradient id="linear-gradient-11" x1="503.45" y1="405.53" x2="503.45" y2="78.26" gradientUnits="userSpaceOnUse"><stop offset="0" stop-color="#c960ff"/><stop offset="0.28" stop-color="#ca68fe"/><stop offset="0.7" stop-color="#ce7cfb"/><stop offset="1" stop-color="#d28ff9"/></linearGradient><linearGradient id="linear-gradient-12" x1="411.33" y1="432.86" x2="411.33" y2="296.86" gradientTransform="matrix(0.98, -0.21, 0.21, 0.98, -83.71, 87.88)" gradientUnits="userSpaceOnUse"><stop offset="0" stop-color="#942ad1"/><stop offset="1" stop-color="#5a1e84"/></linearGradient></defs><title>Asset 2</title><g id="Layer_2" data-name="Layer 2"><g id="Layer_3" data-name="Layer 3"><path class="cls-1" d="M231,50.87c4.58,0,107.59-3,122.09,0s43.5,42.64,58,56.51,44.26,25.78,59.6,25.13c0,0,4.5,91.86-23.74,128.54,0,0-55-18.91-72.49-39.65L231,50.87"/><rect class="cls-2" y="49.55" width="312.5" height="35.5"/><rect class="cls-3" x="70" y="84.55" width="288" height="36"/><rect class="cls-4" x="123" y="120.55" width="207" height="36"/><rect class="cls-5" x="199" y="155.55" width="180" height="36"/><rect class="cls-6" x="236" y="190.55" width="144" height="36"/><path class="cls-1" d="M795.21,28.42C790.85,29,692.4,38.22,679,42.77s-36.39,45.91-48.55,60.89-39.1,29.87-53.79,31.05c0,0,6.57,88.43,37.79,120.21,0,0,50.17-24.57,64.34-46.47l116.47-180"/><rect class="cls-7" x="718.41" y="18.24" width="299.84" height="34.23" transform="translate(1734.45 -35.94) rotate(172.96)"/><rect class="cls-8" x="679.34" y="58.52" width="276.33" height="34.71" transform="translate(1638.14 51.02) rotate(172.96)"/><rect class="cls-9" x="710.55" y="94.43" width="198.61" height="34.71" transform="translate(1627.3 123.52) rotate(172.96)"/><rect class="cls-10" x="668.12" y="135.27" width="172.71" height="34.71" transform="translate(1521.96 211.67) rotate(172.96)"/><rect class="cls-11" x="671.43" y="171" width="138.17" height="34.71" transform="translate(1498.52 284.56) rotate(172.96)"/><path class="cls-12" d="M382.5,419.05c94.69,3.26,227.81-41.05,240.82-149.26,5.68-47.26-11.74-85.06-38.82-122.74-32.68-45.47-42.43-70.8,23-81-31.08-6.21-27.2-53.81-67-54-42.74-.2-64,42.49-67.19,78.19-5.55,61.79-.91,127-33.81,170.81,0,0-30,32-55,33Z"/></g><g id="Layer_5" data-name="Layer 5"><rect class="cls-1" x="263" y="287.55" width="277" height="185" transform="translate(-72.11 94.86) rotate(-12.37)"/><polygon class="cls-13" points="286.04 500.08 556.6 440.73 441.42 376.15 363.45 393.25 286.04 500.08"/><polygon class="cls-14" points="411.31 422.44 246.4 319.38 516.96 260.02 411.31 422.44"/></g></g></svg>