<svg width="521" height="801" viewBox="0 0 521 801" fill="none" xmlns="http://www.w3.org/2000/svg">
<g opacity="0.09">
<path fill-rule="evenodd" clip-rule="evenodd" d="M624.042 46.9471C624.042 54.3631 618.031 60.375 610.615 60.375H523.957C516.541 60.375 510.529 54.3631 510.529 46.9471V46.9471C510.529 39.531 516.541 33.5192 523.957 33.5192H610.615C618.031 33.5192 624.042 39.531 624.042 46.9471V46.9471Z" fill="#942EFF"/>
<path fill-rule="evenodd" clip-rule="evenodd" d="M279.256 800.84C279.256 808.256 273.244 814.268 265.828 814.268H84.7854C77.3693 814.268 71.3574 808.256 71.3574 800.84V800.84C71.3574 793.424 77.3693 787.412 84.7853 787.412H265.828C273.244 787.412 279.256 793.424 279.256 800.84V800.84Z" fill="#942EFF"/>
<path fill-rule="evenodd" clip-rule="evenodd" d="M235.471 650.061C235.471 657.477 229.459 663.489 222.043 663.489H41.0002C33.5842 663.489 27.5723 657.477 27.5723 650.061V650.061C27.5723 642.645 33.5842 636.633 41.0002 636.633H222.043C229.459 636.633 235.471 642.645 235.471 650.061V650.061Z" fill="#942EFF"/>
<path fill-rule="evenodd" clip-rule="evenodd" d="M279.256 499.283C279.256 506.699 273.244 512.711 265.828 512.711H216.703C209.287 512.711 203.276 506.699 203.276 499.283V499.283C203.276 491.867 209.287 485.855 216.703 485.855H265.828C273.244 485.855 279.256 491.867 279.256 499.283V499.283Z" fill="#942EFF"/>
<path fill-rule="evenodd" clip-rule="evenodd" d="M450.662 398.763C450.662 406.18 444.65 412.191 437.234 412.191H256.191C248.775 412.191 242.763 406.18 242.763 398.763V398.763C242.763 391.347 248.775 385.336 256.191 385.336H437.234C444.65 385.336 450.662 391.347 450.662 398.763V398.763Z" fill="#942EFF"/>
<path fill-rule="evenodd" clip-rule="evenodd" d="M203.276 348.504C203.276 355.92 197.264 361.932 189.848 361.932H119.359C111.943 361.932 105.931 355.92 105.931 348.504V348.504C105.931 341.088 111.943 335.076 119.359 335.076H189.848C197.264 335.076 203.276 341.088 203.276 348.504V348.504Z" fill="#942EFF"/>
<path fill-rule="evenodd" clip-rule="evenodd" d="M674.271 298.245C674.271 305.661 668.259 311.673 660.843 311.673H479.8C472.383 311.673 466.372 305.661 466.372 298.245V298.245C466.372 290.829 472.383 284.817 479.8 284.817H660.843C668.259 284.817 674.271 290.829 674.271 298.245V298.245Z" fill="#942EFF"/>
<path fill-rule="evenodd" clip-rule="evenodd" d="M305.72 147.466C305.72 154.882 299.708 160.894 292.292 160.894H165.511C158.095 160.894 152.083 154.882 152.083 147.466V147.466C152.083 140.05 158.095 134.038 165.511 134.038H292.292C299.708 134.038 305.72 140.05 305.72 147.466V147.466Z" fill="#942EFF"/>
<path fill-rule="evenodd" clip-rule="evenodd" d="M279.256 -3.31269C279.256 4.10335 273.244 10.1152 265.828 10.1152H84.7854C77.3693 10.1152 71.3574 4.10335 71.3574 -3.31269V-3.31269C71.3574 -10.7287 77.3693 -16.7406 84.7853 -16.7406H265.828C273.244 -16.7406 279.256 -10.7287 279.256 -3.31269V-3.31269Z" fill="#942EFF"/>
<path fill-rule="evenodd" clip-rule="evenodd" d="M721.142 398.763C721.142 406.18 715.13 412.191 707.714 412.191H526.671C519.255 412.191 513.243 406.18 513.243 398.763V398.763C513.243 391.347 519.255 385.336 526.671 385.336H707.714C715.13 385.336 721.142 391.347 721.142 398.763V398.763Z" fill="#FB4469"/>
<path fill-rule="evenodd" clip-rule="evenodd" d="M287.48 197.725C287.48 205.141 281.468 211.153 274.052 211.153H93.009C85.593 211.153 79.5811 205.141 79.5811 197.725V197.725C79.5811 190.309 85.5929 184.297 93.009 184.297H274.052C281.468 184.297 287.48 190.309 287.48 197.725V197.725Z" fill="#FB4469"/>
<path fill-rule="evenodd" clip-rule="evenodd" d="M72.2017 499.283C72.2017 506.699 66.1898 512.711 58.7737 512.711H36.9763C29.5603 512.711 23.5484 506.699 23.5484 499.283V499.283C23.5484 491.867 29.5602 485.855 36.9763 485.855H58.7737C66.1898 485.855 72.2017 491.867 72.2017 499.283V499.283Z" fill="#FB4469"/>
<path fill-rule="evenodd" clip-rule="evenodd" d="M256.858 549.542C256.858 556.958 250.847 562.97 243.43 562.97H32.2988C24.8828 562.97 18.8709 556.958 18.8709 549.542V549.542C18.8709 542.126 24.8828 536.114 32.2988 536.114H243.43C250.847 536.114 256.858 542.126 256.858 549.542V549.542Z" fill="url(#paint0_linear)"/>
<path fill-rule="evenodd" clip-rule="evenodd" d="M266.038 97.2068C266.038 104.623 260.026 110.635 252.61 110.635H114.45C107.034 110.635 101.022 104.623 101.022 97.2068V97.2068C101.022 89.7908 107.034 83.7789 114.45 83.7789H252.61C260.026 83.7789 266.038 89.7908 266.038 97.2068V97.2068Z" fill="url(#paint1_linear)"/>
<path fill-rule="evenodd" clip-rule="evenodd" d="M454.12 46.9471C454.12 54.3631 448.108 60.375 440.692 60.375H259.649C252.233 60.375 246.221 54.3631 246.221 46.9471V46.9471C246.221 39.531 252.233 33.5192 259.649 33.5192H440.692C448.108 33.5192 454.12 39.531 454.12 46.9471V46.9471Z" fill="#FB4469"/>
<path fill-rule="evenodd" clip-rule="evenodd" d="M112.646 750.58C112.646 757.996 106.635 764.008 99.2186 764.008H16.4281C9.01208 764.008 3.0002 757.996 3.0002 750.58V750.58C3.0002 743.164 9.01209 737.152 16.4281 737.152H99.2186C106.635 737.152 112.646 743.164 112.646 750.58V750.58Z" fill="url(#paint2_linear)"/>
<path fill-rule="evenodd" clip-rule="evenodd" d="M246.222 700.321C246.222 707.737 240.21 713.749 232.794 713.749H137.676C130.26 713.749 124.248 707.737 124.248 700.321V700.321C124.248 692.905 130.26 686.893 137.676 686.893H232.794C240.21 686.893 246.222 692.905 246.222 700.321V700.321Z" fill="#FB4469"/>
<path fill-rule="evenodd" clip-rule="evenodd" d="M137.864 298.244C137.864 290.828 143.876 284.816 151.292 284.816H304.14C311.556 284.816 317.568 290.828 317.568 298.244V298.244C317.568 305.66 311.556 311.672 304.14 311.672H151.292C143.876 311.672 137.864 305.66 137.864 298.244V298.244Z" fill="#C960FF"/>
<path fill-rule="evenodd" clip-rule="evenodd" d="M317.568 247.986C317.568 240.57 323.58 234.558 330.996 234.558H512.039C519.455 234.558 525.467 240.57 525.467 247.986V247.986C525.467 255.402 519.455 261.413 512.039 261.413H330.996C323.58 261.413 317.568 255.402 317.568 247.986V247.986Z" fill="url(#paint3_linear)"/>
<path fill-rule="evenodd" clip-rule="evenodd" d="M95.6611 398.764C95.6611 391.348 101.673 385.336 109.089 385.336H203.168C210.584 385.336 216.596 391.348 216.596 398.764V398.764C216.596 406.18 210.584 412.192 203.168 412.192H109.089C101.673 412.192 95.6611 406.18 95.6611 398.764V398.764Z" fill="url(#paint4_linear)"/>
<path fill-rule="evenodd" clip-rule="evenodd" d="M279.256 449.024C279.256 441.608 285.268 435.596 292.684 435.596H473.727C481.143 435.596 487.155 441.608 487.155 449.024V449.024C487.155 456.44 481.143 462.452 473.727 462.452H292.684C285.268 462.452 279.256 456.44 279.256 449.024V449.024Z" fill="#C960FF"/>
</g>
<g filter="url(#filter0_d)">
<rect width="216.667" height="421.01" rx="33.5157" transform="matrix(4.37114e-08 1 1 -4.37114e-08 50 118)" fill="url(#paint5_linear)"/>
<rect width="207.583" height="414.587" rx="30.7228" transform="matrix(4.37114e-08 1 1 -4.37114e-08 53.2114 122.539)" fill="url(#paint6_linear)"/>
<rect width="187.648" height="394.268" rx="19.5508" transform="matrix(4.37114e-08 1 1 -4.37114e-08 62.9351 132.51)" fill="url(#paint7_linear)"/>
<rect x="55.7568" y="277.402" width="102.671" height="11.9074" transform="rotate(-90 55.7568 277.402)" fill="#481330"/>
<rect x="55.7578" y="267.376" width="82.6179" height="22.0491" transform="rotate(-90 55.7578 267.376)" fill="#481330"/>
<ellipse cx="67.6643" cy="267.375" rx="10.0274" ry="10.1423" transform="rotate(-90 67.6643 267.375)" fill="#481330"/>
<ellipse cx="67.6643" cy="184.758" rx="10.0274" ry="10.1423" transform="rotate(-90 67.6643 184.758)" fill="#481330"/>
<rect x="64.7412" y="254.757" width="42.3145" height="4.08349" rx="2.04175" transform="rotate(-90 64.7412 254.757)" fill="#1B1615"/>
<ellipse cx="66.7827" cy="199.121" rx="3.8731" ry="3.84761" transform="rotate(-90 66.7827 199.121)" fill="#1A1A1A"/>
<ellipse cx="66.9341" cy="199.246" rx="2.10834" ry="2.03418" transform="rotate(-90 66.9341 199.246)" fill="#525252"/>
<ellipse cx="66.7827" cy="199.247" rx="3.8731" ry="3.84761" transform="rotate(-90 66.7827 199.247)" fill="url(#paint8_radial)"/>
<ellipse cx="65.0652" cy="200.508" rx="0.408324" ry="0.354258" transform="rotate(-90 65.0652 200.508)" fill="white"/>
<g filter="url(#filter1_d)">
<rect x="260.505" y="297.471" width="152.379" height="142.273" rx="11.2113" transform="rotate(180 260.505 297.471)" fill="#FFF3F4"/>
<rect width="90.2272" height="8.42096" rx="4.21048" transform="matrix(-1.31134e-07 -1 -1 1.31134e-07 235.366 270.807)" fill="url(#paint9_linear)"/>
<rect width="63.9744" height="8.42096" rx="4.21048" transform="matrix(-1.31134e-07 -1 -1 1.31134e-07 221.386 270.807)" fill="url(#paint10_linear)"/>
<rect width="80.84" height="8.42096" rx="4.21048" transform="matrix(-1.31134e-07 -1 -1 1.31134e-07 207.407 270.807)" fill="url(#paint11_linear)"/>
<rect width="46.3804" height="8.42096" rx="4.21048" transform="matrix(-1.31134e-07 -1 -1 1.31134e-07 162.176 270.807)" fill="url(#paint12_linear)"/>
<rect width="46.3804" height="8.42096" rx="4.21048" transform="matrix(-1.31134e-07 -1 -1 1.31134e-07 148.196 270.807)" fill="url(#paint13_linear)"/>
<circle r="9.30954" transform="matrix(-1.31134e-07 -1 -1 1.31134e-07 180.58 261.497)" fill="#FFA38A"/>
<circle r="9.30954" transform="matrix(-1.31134e-07 -1 -1 1.31134e-07 180.58 235.907)" fill="#FFA38A"/>
<circle r="9.30954" transform="matrix(-1.31134e-07 -1 -1 1.31134e-07 180.58 210.317)" fill="#FFA38A"/>
</g>
<path opacity="0.71" d="M38.8387 176.133C38.8387 170.607 34.3078 166.128 28.7188 166.128C28.6986 166.128 28.6784 166.128 28.6582 166.128L23.9999 166.128L23.9999 143.508C23.9999 132.734 32.7337 124 43.5076 124L397.89 124C408.664 124 417.398 132.734 417.398 143.508L417.398 291.726C417.398 302.5 408.664 311.234 397.89 311.234L43.5076 311.234C32.7338 311.234 23.9999 302.5 23.9999 291.726L23.9999 268.573L28.7182 268.573C34.3066 268.573 38.8377 264.094 38.8387 258.569L38.8387 176.133Z" fill="url(#paint14_linear)"/>
</g>
<g filter="url(#filter2_d)">
<rect x="466.187" y="704.099" width="395.187" height="270.099" rx="17" transform="rotate(-180 466.187 704.099)" fill="#2D2236"/>
<ellipse cx="86.8443" cy="448.185" rx="4.08888" ry="3.66695" fill="#FF4040"/>
<ellipse cx="100.3" cy="448.185" rx="4.08888" ry="3.66695" fill="#FFC635"/>
<ellipse cx="113.755" cy="448.185" rx="4.08888" ry="3.66695" fill="#5BFF40"/>
<rect x="96.2109" y="473.222" width="312.05" height="9.4379" rx="4.71895" fill="#4E3952"/>
<rect x="96.2109" y="489.776" width="204.364" height="9.4379" rx="4.71895" fill="#4E3952"/>
<rect x="96.2109" y="539.438" width="17.4397" height="9.4379" rx="4.71895" fill="#4B78BB"/>
<rect x="117.844" y="539.438" width="154.578" height="9.4379" rx="4.71895" fill="#DBC1D5"/>
<rect x="127.586" y="555.993" width="69.6136" height="9.4379" rx="4.71895" fill="#DBC1D5"/>
<rect x="219.763" y="555.992" width="30.8721" height="9.4379" rx="4.71895" fill="#DBC1D5"/>
<rect x="203.757" y="555.993" width="10.4327" height="9.4379" rx="4.71895" fill="#FF4B6B"/>
<rect x="127.586" y="572.547" width="51.5019" height="9.4379" rx="4.71895" fill="#DBC1D5"/>
<rect x="127.586" y="589.101" width="33.1071" height="9.4379" rx="4.71895" fill="#4B78BB"/>
<rect x="168.134" y="589.101" width="107.643" height="9.4379" rx="4.71895" fill="#DBC1D5"/>
<rect x="127.586" y="604.902" width="140.638" height="9.4379" rx="4.71895" fill="#DBC1D5"/>
<rect x="272.423" y="621.45" width="66.3235" height="9.4379" rx="4.71895" fill="#D2D2D2"/>
<rect x="96.2109" y="506.55" width="41.2776" height="9.4379" rx="4.71895" fill="#FF4B77"/>
<rect x="144.141" y="506.55" width="92.3967" height="9.4379" rx="4.71895" fill="#DBC1D5"/>
<rect x="96.2109" y="523.104" width="41.2776" height="9.4379" rx="4.71895" fill="#FF4B6B"/>
<rect x="144.141" y="523.104" width="58.1872" height="9.4379" rx="4.71895" fill="#DBC1D5"/>
<rect x="96.2109" y="624.467" width="71.2753" height="9.4379" rx="4.71895" fill="#D2D2D2"/>
</g>
<defs>
<filter id="filter0_d" x="0.670362" y="94.6704" width="493.669" height="263.326" filterUnits="userSpaceOnUse" color-interpolation-filters="sRGB">
<feFlood flood-opacity="0" result="BackgroundImageFix"/>
<feColorMatrix in="SourceAlpha" type="matrix" values="0 0 0 0 0 0 0 0 0 0 0 0 0 0 0 0 0 0 127 0"/>
<feOffset/>
<feGaussianBlur stdDeviation="11.6648"/>
<feColorMatrix type="matrix" values="0 0 0 0 0.154715 0 0 0 0 0.0969792 0 0 0 0 0.175 0 0 0 0.43 0"/>
<feBlend mode="normal" in2="BackgroundImageFix" result="effect1_dropShadow"/>
<feBlend mode="normal" in="SourceGraphic" in2="effect1_dropShadow" result="shape"/>
</filter>
<filter id="filter1_d" x="90.5387" y="146.953" width="187.553" height="177.446" filterUnits="userSpaceOnUse" color-interpolation-filters="sRGB">
<feFlood flood-opacity="0" result="BackgroundImageFix"/>
<feColorMatrix in="SourceAlpha" type="matrix" values="0 0 0 0 0 0 0 0 0 0 0 0 0 0 0 0 0 0 127 0"/>
<feOffset dy="9.34295"/>
<feGaussianBlur stdDeviation="8.79337"/>
<feColorMatrix type="matrix" values="0 0 0 0 0.254133 0 0 0 0 0.11 0 0 0 0 0.266667 0 0 0 0.24 0"/>
<feBlend mode="normal" in2="BackgroundImageFix" result="effect1_dropShadow"/>
<feBlend mode="normal" in="SourceGraphic" in2="effect1_dropShadow" result="shape"/>
</filter>
<filter id="filter2_d" x="24" y="427" width="453.187" height="328.099" filterUnits="userSpaceOnUse" color-interpolation-filters="sRGB">
<feFlood flood-opacity="0" result="BackgroundImageFix"/>
<feColorMatrix in="SourceAlpha" type="matrix" values="0 0 0 0 0 0 0 0 0 0 0 0 0 0 0 0 0 0 127 0"/>
<feOffset dx="-18" dy="22"/>
<feGaussianBlur stdDeviation="14.5"/>
<feColorMatrix type="matrix" values="0 0 0 0 0.183333 0 0 0 0 0.0863195 0 0 0 0 0.127065 0 0 0 0.42 0"/>
<feBlend mode="normal" in2="BackgroundImageFix" result="effect1_dropShadow"/>
<feBlend mode="normal" in="SourceGraphic" in2="effect1_dropShadow" result="shape"/>
</filter>
<linearGradient id="paint0_linear" x1="256.226" y1="548.546" x2="19.9825" y2="548.546" gradientUnits="userSpaceOnUse">
<stop stop-color="#FF4789"/>
<stop offset="1" stop-color="#C548FF"/>
</linearGradient>
<linearGradient id="paint1_linear" x1="265.599" y1="96.2113" x2="101.793" y2="96.2113" gradientUnits="userSpaceOnUse">
<stop stop-color="#FF4789"/>
<stop offset="1" stop-color="#C548FF"/>
</linearGradient>
<linearGradient id="paint2_linear" x1="112.355" y1="749.584" x2="3.51235" y2="749.584" gradientUnits="userSpaceOnUse">
<stop stop-color="#FF4789"/>
<stop offset="1" stop-color="#C548FF"/>
</linearGradient>
<linearGradient id="paint3_linear" x1="318.121" y1="248.981" x2="524.496" y2="248.981" gradientUnits="userSpaceOnUse">
<stop stop-color="#FF4789"/>
<stop offset="1" stop-color="#C548FF"/>
</linearGradient>
<linearGradient id="paint4_linear" x1="95.9826" y1="399.759" x2="216.031" y2="399.759" gradientUnits="userSpaceOnUse">
<stop stop-color="#FF4789"/>
<stop offset="1" stop-color="#C548FF"/>
</linearGradient>
<linearGradient id="paint5_linear" x1="108.333" y1="0" x2="108.333" y2="421.01" gradientUnits="userSpaceOnUse">
<stop stop-color="#FFA5C5"/>
<stop offset="0.09375" stop-color="#ED6A91"/>
<stop offset="0.838542" stop-color="#BC3997"/>
<stop offset="1" stop-color="#C0229D"/>
</linearGradient>
<linearGradient id="paint6_linear" x1="103.791" y1="-1.16783e-06" x2="25.2554" y2="416.035" gradientUnits="userSpaceOnUse">
<stop stop-color="#481330"/>
<stop offset="0.296875" stop-color="#8E285F"/>
<stop offset="1" stop-color="#481330"/>
</linearGradient>
<linearGradient id="paint7_linear" x1="93.824" y1="0" x2="93.824" y2="394.268" gradientUnits="userSpaceOnUse">
<stop stop-color="#F3AEFF"/>
<stop offset="1" stop-color="#C1BBFE"/>
</linearGradient>
<radialGradient id="paint8_radial" cx="0" cy="0" r="1" gradientUnits="userSpaceOnUse" gradientTransform="translate(65.3927 199.247) rotate(70.138) scale(4.09097 4.11184)">
<stop stop-color="white" stop-opacity="0.31"/>
<stop offset="1" stop-color="white" stop-opacity="0"/>
</radialGradient>
<linearGradient id="paint9_linear" x1="8.40307e-08" y1="4.21048" x2="93.8287" y2="4.21048" gradientUnits="userSpaceOnUse">
<stop stop-color="#FF67CC"/>
<stop offset="1" stop-color="#FF9178"/>
</linearGradient>
<linearGradient id="paint10_linear" x1="5.95808e-08" y1="4.21048" x2="66.528" y2="4.21048" gradientUnits="userSpaceOnUse">
<stop stop-color="#FF67CC"/>
<stop offset="1" stop-color="#FF9178"/>
</linearGradient>
<linearGradient id="paint11_linear" x1="7.52881e-08" y1="4.21048" x2="84.0668" y2="4.21048" gradientUnits="userSpaceOnUse">
<stop stop-color="#FF67CC"/>
<stop offset="1" stop-color="#FF9178"/>
</linearGradient>
<linearGradient id="paint12_linear" x1="4.31951e-08" y1="4.21048" x2="48.2317" y2="4.21048" gradientUnits="userSpaceOnUse">
<stop stop-color="#FF878A"/>
<stop offset="1" stop-color="#D090E4"/>
</linearGradient>
<linearGradient id="paint13_linear" x1="4.31951e-08" y1="4.21048" x2="48.2317" y2="4.21048" gradientUnits="userSpaceOnUse">
<stop stop-color="#FF878A"/>
<stop offset="1" stop-color="#D090E4"/>
</linearGradient>
<linearGradient id="paint14_linear" x1="24.0003" y1="217.618" x2="417.398" y2="217.618" gradientUnits="userSpaceOnUse">
<stop offset="0.0001" stop-color="#FDA6FF" stop-opacity="0.13"/>
<stop offset="0.25" stop-color="#ECE3FF" stop-opacity="0.46"/>
<stop offset="1" stop-color="#AFBCFF" stop-opacity="0.47"/>
</linearGradient>
</defs>
</svg>
