<svg width="113" height="216" viewBox="0 0 113 216" fill="none" xmlns="http://www.w3.org/2000/svg">
<path d="M72.1506 41.9615C78.2162 43.3361 84.7886 41.6718 89.5001 36.9481C93.5482 32.8894 95.3631 27.4102 94.8788 22.0815C94.5152 17.8289 85.5379 29.3603 81.8246 29.2527C77.8899 29.1276 70.9306 22.0139 70.6696 18.0688C70.443 14.3286 80.6841 5.22381 77.8222 4.98073C72.5244 4.51224 67.0423 6.31473 62.9941 10.3734C58.2996 15.0801 56.6226 21.6865 57.9936 27.7678L41.2397 44.5652C38.4162 47.3961 39.7842 51.2574 44.253 55.7378C48.7218 60.2182 52.318 61.8455 55.3967 58.7589L72.1506 41.9615Z" fill="#C960FF"/>
<path d="M32.6528 80.0615C33.6195 75.2986 32.2144 70.187 28.4614 66.5777C25.2367 63.4766 20.9451 62.1433 16.8092 62.605C13.5081 62.9556 22.6273 69.7932 22.6062 72.6976C22.5753 75.7753 17.1605 81.3263 14.0968 81.5918C11.192 81.8273 3.93862 73.9639 3.79785 76.2048C3.52286 80.3534 5.01707 84.6106 8.24168 87.7117C11.9812 91.308 17.1472 92.5159 21.8534 91.3492L35.1989 104.184C37.448 106.347 40.4278 105.217 43.8368 101.654C47.2458 98.0908 48.4507 95.2543 45.9984 92.8959L32.6528 80.0615Z" fill="#C960FF"/>
<path d="M66.417 188.64C69.2109 185.177 70.2244 180.431 68.6966 175.916C67.384 172.036 64.4588 169.143 60.9033 167.774C58.0731 166.667 62.6001 176.069 61.3583 178.42C60.0355 180.908 53.2948 183.135 50.6933 182.059C48.2336 181.026 45.6553 171.578 44.596 173.339C42.6232 176.594 42.0423 180.684 43.355 184.563C44.8773 189.062 48.5658 192.222 52.8819 193.259L58.3146 209.315C59.2302 212.021 62.1278 212.36 66.4004 210.902C70.6729 209.444 72.848 207.647 71.8497 204.696L66.417 188.64Z" fill="#C960FF"/>
<path d="M74.8448 102.12C68.4442 104.123 63.2017 109.241 61.3387 116.212C59.7381 122.201 60.9848 128.308 64.2974 133.028C66.9196 136.808 69.1107 121.159 72.6352 119.247C76.3758 117.231 86.6914 120.11 89.0527 123.657C91.272 127.032 86.5983 141.096 89.4006 139.772C94.5981 137.338 98.7485 132.681 100.349 126.692C102.205 119.746 100.225 112.66 95.6805 107.717L102.305 82.9295C103.422 78.7521 100.072 75.8832 93.4948 74.1163C86.9177 72.3494 82.6868 72.7772 81.4695 77.3321L74.8448 102.12Z" fill="#DB99FD"/>
<path d="M23.6627 137.877C19.1422 136.925 14.2408 138.091 10.7237 141.388C7.70177 144.221 6.34334 148.042 6.69913 151.755C6.96598 154.719 13.67 146.673 16.4381 146.745C19.3714 146.828 24.5525 151.78 24.7431 154.53C24.9083 157.136 17.2646 163.492 19.3979 163.659C23.3469 163.981 27.4356 162.719 30.4575 159.886C33.9619 156.601 35.2187 151.995 34.2026 147.757L46.7093 136.034C48.8171 134.058 47.8011 131.368 44.474 128.249C41.1469 125.13 38.4676 123.999 36.1694 126.154L23.6627 137.877Z" fill="#DB99FD"/>
</svg>
