<svg width="13" height="15" viewBox="0 0 13 15" fill="none" xmlns="http://www.w3.org/2000/svg">
<path fill-rule="evenodd" clip-rule="evenodd" d="M6.26786 0C4.60114 0 3.25 1.36413 3.25 3.04688V3.51562C3.25 5.19837 4.60114 6.5625 6.26786 6.5625H6.73214C8.39884 6.5625 9.75 5.19837 9.75 3.51562V3.04688C9.75 1.36413 8.39884 0 6.73214 0H6.26786ZM4.64286 3.04688C4.64286 2.14078 5.37039 1.40625 6.26786 1.40625H6.73214C7.62961 1.40625 8.35714 2.14078 8.35714 3.04688V3.51562C8.35714 4.42172 7.62961 5.15625 6.73214 5.15625H6.26786C5.37039 5.15625 4.64286 4.42172 4.64286 3.51562V3.04688ZM1.39286 13.5938V12.3477C2.1539 10.8166 3.70786 9.84375 5.41306 9.84375H7.58694C9.29212 9.84375 10.8461 10.8166 11.6071 12.3477V13.5938H1.39286ZM5.41306 8.4375C3.1152 8.4375 1.02704 9.78638 0.0640993 11.8928L0 12.0331V12.1875V14.2969V15H0.696429H12.3036H13V14.2969V12.1875V12.0331L12.9359 11.8928C11.973 9.78638 9.88483 8.4375 7.58694 8.4375H5.41306Z" fill="#FB71C4"/>
</svg>
