<svg width="21" height="16" viewBox="0 0 21 16" fill="none" xmlns="http://www.w3.org/2000/svg">
<path d="M2.22929 0.28125C0.998917 0.28125 0 1.28017 0 2.51054V11.4196C0 12.6459 0.998917 13.6489 2.22929 13.6489L6.82187 13.6326C7.55685 13.6326 8.26746 13.8641 8.88062 14.2702L10.3993 15.2813L11.918 14.2702C12.5311 13.8641 13.2417 13.6448 13.9767 13.6448H18.5693C19.7956 13.6448 20.7986 12.6459 20.7986 11.4155V2.51054C20.7986 1.28423 19.7997 0.28125 18.5693 0.28125H13.9727C12.9453 0.28125 11.9464 0.585798 11.0896 1.15429L10.3952 1.6172L9.70087 1.15429C8.84407 0.581737 7.84921 0.28125 6.81781 0.28125H2.22929ZM2.22929 1.76744H6.82187C7.55685 1.76744 8.26746 1.98266 8.88062 2.39278L10.3993 3.40388L11.918 2.39278C12.5311 1.98672 13.2417 1.76744 13.9767 1.76744H18.5693C18.9794 1.76744 19.3124 2.10042 19.3124 2.51054V11.4196C19.3124 11.8297 18.9794 12.1627 18.5693 12.1627H13.9727C12.9453 12.1627 11.9464 12.4672 11.0896 13.0357L10.3952 13.4986L9.70087 13.0357C8.84407 12.4632 7.84921 12.1627 6.81781 12.1627H2.22929C1.81917 12.1627 1.48619 11.8297 1.48619 11.4196V2.51054C1.48619 2.10042 1.81917 1.76744 2.22929 1.76744ZM2.96833 4.73577V6.22196H8.90904V4.73577H2.96833ZM11.8814 4.73577V6.22196H17.8221V4.73577H11.8814ZM2.96833 7.70816V9.19435H8.90904V7.70816H2.96833ZM11.8814 7.70816V9.19435H17.8221V7.70816H11.8814Z" fill="#FB71C4"/>
</svg>
