<svg width="22" height="15" viewBox="0 0 22 15" fill="none" xmlns="http://www.w3.org/2000/svg">
<path fill-rule="evenodd" clip-rule="evenodd" d="M19.085 0.448019C20.0075 0.694955 20.7325 1.41991 20.9795 2.34241C21.4257 4.01279 21.4275 7.49996 21.4275 7.49996C21.4275 7.49996 21.4275 10.9871 20.9795 12.6575C20.7325 13.5801 20.0075 14.305 19.085 14.5519C17.4147 15 10.7137 15 10.7137 15C10.7137 15 4.0128 15 2.34241 14.5519C1.41992 14.305 0.69497 13.5801 0.448018 12.6575C-4.56135e-08 10.9871 0 7.49996 0 7.49996C0 7.49996 -4.56135e-08 4.01279 0.448018 2.34241C0.69497 1.41991 1.41992 0.694955 2.34241 0.448019C4.0128 1.36841e-07 10.7137 0 10.7137 0C10.7137 0 17.4147 1.36841e-07 19.085 0.448019ZM14.1363 7.50031L8.56956 10.714V4.28653L14.1363 7.50031Z" fill="#FB71C4"/>
</svg>
