<svg width="400" height="400" viewBox="0 0 400 400" fill="none" xmlns="http://www.w3.org/2000/svg">
<path d="M343.432 143.432L256.569 56.5686C225.327 25.3266 174.673 25.3266 143.431 56.5685L56.5683 143.432C25.3264 174.674 25.3264 225.327 56.5684 256.569L143.431 343.432C174.673 374.674 225.327 374.674 256.569 343.432L343.432 256.569C374.674 225.327 374.674 174.674 343.432 143.432Z" fill="#C960FF"/>
<path d="M223.503 287.237C223.503 297.452 212.97 302 199.965 302C186.959 302 176.426 297.452 176.426 287.237C176.426 278.066 181.407 286.641 199.965 286.641C218.522 286.641 223.503 278.551 223.503 287.237Z" fill="white"/>
<path d="M236.847 252.133C236.847 271.682 220.551 280 200.466 280C180.38 280 164.085 269.98 164.085 252.133C164.085 224.569 135.358 214.889 135.358 174.96C135.358 139.077 164.501 110 200.466 110C236.43 110 265.573 139.077 265.573 174.96C265.573 218.028 236.847 228.501 236.847 252.133Z" fill="white"/>
<path d="M215.747 215.78C224.037 210.569 229.514 201.431 229.514 190.971C229.514 181.983 225.444 173.902 218.979 168.54C213.845 164.235 216.66 186.968 212.4 190.971C207.875 195.2 192.207 195.049 187.529 190.971C183.118 187.081 184.411 165.633 180.95 168.54C174.523 173.902 170.416 181.983 170.416 190.971C170.416 201.393 175.892 210.569 184.183 215.78V252.975C184.183 259.244 190.001 262 199.965 262C209.928 262 215.747 259.81 215.747 252.975V215.78Z" fill="#C960FF"/>
</svg>
