<?xml version="1.0" encoding="UTF-8" standalone="no"?>
<svg xmlns="http://www.w3.org/2000/svg" width="187" height="26" version="1.1">
<path d="M18.2644 25.2665L16.8732 21.2375H7.88367L6.49243 25.2665H0L8.70414 1.22918H16.1241L24.7925 25.2665H18.2644ZM9.4176 16.7988H15.3393L12.3784 8.26282L9.4176 16.7988Z" fill="#242424"/>
<path d="M30.0325 22.0228C27.5592 19.701 26.3226 16.7647 26.3226 13.2137C26.3226 9.66272 27.5592 6.73773 30.0325 4.43871C32.5296 2.11692 35.5737 0.956029 39.1647 0.956029C41.9472 0.956029 44.4205 1.66167 46.5847 3.07295C48.7488 4.48423 50.259 6.44181 51.1151 8.9457H43.8379C42.8866 7.19298 41.3646 6.31662 39.2718 6.31662C37.179 6.31662 35.5261 6.94259 34.3133 8.19453C33.1242 9.44648 32.5296 11.1195 32.5296 13.2137C32.5296 15.3078 33.1242 16.9809 34.3133 18.2328C35.5261 19.4848 37.179 20.1108 39.2718 20.1108C41.3646 20.1108 42.8866 19.2344 43.8379 17.4817H51.1151C50.259 19.9856 48.7488 21.9431 46.5847 23.3544C44.4205 24.7657 41.9472 25.4713 39.1647 25.4713C35.5737 25.4713 32.5296 24.3218 30.0325 22.0228Z" fill="#242424"/>
<path d="M83.3872 1.29747V25.2665H77.2872V11.7455L71.4725 25.2665H66.9421L61.1274 11.7455V25.2665H55.0274V1.29747H62.0192L69.2251 17.8231L76.3953 1.29747H83.3872Z" fill="#242424"/>
<path d="M111.831 1.53648H115.898V25.2665H111.831V14.7843H100.166V25.2665H96.0998V1.53648H100.166V11.7796H111.831V1.53648Z" fill="#c960ff"/>
<path d="M134.201 20.4863C135.39 19.3254 135.985 17.7776 135.985 15.8428C135.985 13.9079 135.39 12.3715 134.201 11.2333C133.036 10.0952 131.644 9.52614 130.027 9.52614C128.41 9.52614 127.007 10.0838 125.818 11.1992C124.653 12.3146 124.07 13.8397 124.07 15.7745C124.07 17.7093 124.653 19.2685 125.818 20.4522C127.007 21.6131 128.41 22.1935 130.027 22.1935C131.644 22.1935 133.036 21.6245 134.201 20.4863ZM129.171 25.5738C126.555 25.5738 124.355 24.6633 122.572 22.8423C120.788 20.9985 119.896 18.6539 119.896 15.8086C119.896 12.9405 120.776 10.6187 122.536 8.84327C124.32 7.04502 126.531 6.1459 129.171 6.1459C130.717 6.1459 132.073 6.48734 133.238 7.17022C134.427 7.83033 135.343 8.70669 135.985 9.7993V6.4532H140.087V25.2665H135.985V21.7497C135.319 22.9105 134.403 23.8438 133.238 24.5495C132.073 25.2323 130.717 25.5738 129.171 25.5738Z" fill="#c960ff"/>
<path d="M153.705 25.5738C150.851 25.5738 148.532 24.686 146.748 22.9105C144.965 21.1351 144.073 18.7905 144.073 15.8769C144.073 12.9405 144.965 10.5846 146.748 8.80912C148.556 7.03364 150.875 6.1459 153.705 6.1459C156.083 6.1459 158.045 6.6922 159.591 7.78481C161.16 8.85465 162.218 10.3911 162.765 12.3942H158.378C157.64 10.4139 156.083 9.42371 153.705 9.42371C152.04 9.42371 150.708 9.99278 149.709 11.1309C148.734 12.2463 148.247 13.8169 148.247 15.8428C148.247 17.8686 148.734 19.4506 149.709 20.5888C150.708 21.7269 152.04 22.296 153.705 22.296C156.059 22.296 157.617 21.3058 158.378 19.3254H162.765C162.195 21.2375 161.124 22.7626 159.555 23.9007C157.985 25.0161 156.035 25.5738 153.705 25.5738Z" fill="#c960ff"/>
<path d="M170.885 25.2665H166.818V0H170.885V14.6819L178.019 6.4532H183.656L174.595 15.8769L183.656 25.2665H178.162L170.885 17.1744V25.2665Z" fill="#c960ff"/>
</svg>
