<svg xmlns="http://www.w3.org/2000/svg" xmlns:xlink="http://www.w3.org/1999/xlink" viewBox="0 0 774.74 126"><defs><style>.cls-1{fill-rule:evenodd;}.cls-2{mask:url(#mask);}.cls-3{fill:url(#linear-gradient);}.cls-4{filter:url(#luminosity-invert);}</style><filter id="luminosity-invert" filterUnits="userSpaceOnUse" color-interpolation-filters="sRGB"><feColorMatrix values="-1 0 0 0 1 0 -1 0 0 1 0 0 -1 0 1 0 0 0 1 0"/></filter><mask id="mask" x="402.74" y="0" width="374.02" height="126" maskUnits="userSpaceOnUse"><g class="cls-4"><rect x="562.66" y="39.6" width="23.86" height="83.47"/><path class="cls-1" d="M538.44,124.4c24.88,0,42.74-21.34,42.74-43.08,0-20.53-17.74-43.08-42.74-43.08-23.9,0-42.05,19.29-42.05,43.08S514.54,124.4,538.44,124.4Zm2.62-21.78c12.26,0,21.6-9.13,21.6-21.3S553.32,60,541.06,60a21.3,21.3,0,1,0,0,42.6Z"/><path class="cls-1" d="M679.71,62.86,657.86,73c-2.78-6.28-8.66-11.33-16.61-11.33a19.64,19.64,0,1,0,0,39.28,17.54,17.54,0,0,0,16.8-11.14l21.8,10.28c-6.7,14.38-21.07,24.3-39,24.3a42.87,42.87,0,0,1-43.08-43.08c0-23.79,19.81-43.08,43.08-43.08A43.52,43.52,0,0,1,679.71,62.86Z"/><rect x="402.94" y="2.57" width="23.86" height="120.47"/><path d="M460.73,77.16l23.85-5.91v51.87H460.73Z"/><path d="M449.92,38.13c23.13,0,34.66,16.17,34.66,33.13l-23.86,7.07c0-8.9-5.13-16.57-16.74-16.57-11.81,0-17.18,8.62-17.18,16.57l-7.23-10.68C415.59,59.46,426.72,38.13,449.92,38.13Z"/><rect x="695.21" y="2.57" width="23.86" height="120.51"/><path d="M744.45,40.89h31.61l-61.63,65.78L696.64,95.14Z"/><path d="M747.4,123.19h29.37L733,67.4l-17.9,14.39Z"/></g></mask><linearGradient id="linear-gradient" x1="-143.91" y1="756.56" x2="204.62" y2="906.25" gradientTransform="matrix(1, 0, 0, -1, 564, 892)" gradientUnits="userSpaceOnUse"><stop offset="0" stop-color="#ff56da"/><stop offset="1" stop-color="#ff3d3d"/></linearGradient></defs><title>Asset 2</title><g id="Layer_2" data-name="Layer 2"><g id="Layer_11" data-name="Layer 11"><rect x="66.27" y="39.71" width="23.86" height="83.47"/><path class="cls-1" d="M42.05,124.51c24.88,0,42.74-21.34,42.74-43.08,0-20.54-17.74-43.08-42.74-43.08-23.9,0-42,19.29-42,43.08S18.15,124.51,42.05,124.51Zm2.62-21.78c12.26,0,21.6-9.13,21.6-21.3s-9.34-21.31-21.6-21.31a21.31,21.31,0,1,0,0,42.61Z"/><path class="cls-1" d="M186,63,164.13,73.13c-2.79-6.28-8.67-11.33-16.62-11.33a19.64,19.64,0,1,0,0,39.28,17.52,17.52,0,0,0,16.8-11.15l21.8,10.28c-6.69,14.39-21.07,24.3-39,24.3a42.86,42.86,0,0,1-43.08-43.07c0-23.8,19.82-43.08,43.08-43.08A43.5,43.5,0,0,1,186,63Z"/><rect x="199.48" y="39.69" width="23.86" height="83.5"/><path d="M252.5,72.16l23.86-2v53H252.5Z"/><path d="M305.52,72.16l23.86-2v53H305.52Z"/><path d="M244.72,38.36c21.12,0,31.64,16.17,31.64,33.13L252.5,75.93c0-7.33-6.63-13.94-14.58-13.94A14.91,14.91,0,0,0,223.34,76.8L217,67.88C214.54,62,223.55,38.36,244.72,38.36Z"/><path d="M297.74,38.36c21.12,0,31.64,16.17,31.64,33.13l-23.86,4.44c0-7.33-6.63-13.94-14.58-13.94A14.91,14.91,0,0,0,276.36,76.8L270,67.88C267.55,62,276.57,38.36,297.74,38.36Z"/><path d="M297.74,38.36c21.12,0,31.64,16.17,31.64,33.13l-23.86,2c0-7.33-6.63-13.25-14.58-13.25s-14.58,5.3-14.58,13.25L264.43,60.89C269.73,49,276.57,38.36,297.74,38.36Z"/><circle cx="366.13" cy="107.58" r="15.54"/><g class="cls-2"><rect class="cls-3" x="402.74" width="372" height="126"/></g></g></g></svg>
