<svg width="499" height="801" viewBox="0 0 499 801" fill="none" xmlns="http://www.w3.org/2000/svg">
<g opacity="0.09">
<path fill-rule="evenodd" clip-rule="evenodd" d="M453.299 98.5C453.299 105.956 447.255 112 439.799 112H358.5C351.044 112 345 105.956 345 98.5V98.5C345 91.0441 351.044 84.9999 358.5 84.9999H439.799C447.255 84.9999 453.299 91.0441 453.299 98.5V98.5Z" fill="#942EFF"/>
<path fill-rule="evenodd" clip-rule="evenodd" d="M221.792 653.913C221.792 661.369 215.747 667.413 208.291 667.413H36.9435C29.4876 667.413 23.4435 661.369 23.4435 653.913C23.4435 646.457 29.4876 640.413 36.9435 640.413H208.291C215.747 640.413 221.792 646.457 221.792 653.913Z" fill="#942EFF"/>
<path fill-rule="evenodd" clip-rule="evenodd" d="M263.565 502.324C263.565 509.78 257.521 515.824 250.065 515.824H204.575C197.119 515.824 191.075 509.78 191.075 502.324C191.075 494.868 197.119 488.824 204.575 488.824H250.065C257.521 488.824 263.565 494.868 263.565 502.324Z" fill="#942EFF"/>
<path fill-rule="evenodd" clip-rule="evenodd" d="M427.096 401.266C427.096 408.721 421.052 414.766 413.596 414.766H242.248C234.792 414.766 228.748 408.721 228.748 401.266C228.748 393.81 234.792 387.766 242.248 387.766H413.596C421.052 387.766 427.096 393.81 427.096 401.266Z" fill="#942EFF"/>
<path fill-rule="evenodd" clip-rule="evenodd" d="M191.075 350.735C191.075 358.191 185.031 364.235 177.575 364.235H111.703C104.247 364.235 98.2027 358.191 98.2027 350.735C98.2027 343.279 104.247 337.235 111.703 337.235H177.575C185.031 337.235 191.075 343.279 191.075 350.735Z" fill="#942EFF"/>
<path fill-rule="evenodd" clip-rule="evenodd" d="M288.812 148.618C288.812 156.074 282.768 162.118 275.312 162.118H155.734C148.278 162.118 142.234 156.074 142.234 148.618C142.234 141.162 148.278 135.118 155.734 135.118H275.312C282.768 135.118 288.812 141.162 288.812 148.618Z" fill="#942EFF"/>
<path fill-rule="evenodd" clip-rule="evenodd" d="M271.411 199.147C271.411 206.603 265.366 212.647 257.911 212.647H86.5627C79.1068 212.647 73.0626 206.603 73.0626 199.147C73.0626 191.692 79.1068 185.647 86.5626 185.647H257.911C265.366 185.647 271.411 191.692 271.411 199.147Z" fill="#FB4469"/>
<path fill-rule="evenodd" clip-rule="evenodd" d="M66.0225 502.324C66.0225 509.78 59.9783 515.824 52.5224 515.824H33.1043C25.6485 515.824 19.6043 509.78 19.6043 502.324C19.6043 494.868 25.6485 488.824 33.1043 488.824H52.5224C59.9783 488.824 66.0225 494.868 66.0225 502.324Z" fill="#FB4469"/>
<path fill-rule="evenodd" clip-rule="evenodd" d="M242.196 552.853C242.196 560.309 236.152 566.354 228.696 566.354H28.6415C21.1856 566.354 15.1414 560.309 15.1414 552.853C15.1414 545.398 21.1856 539.353 28.6415 539.353H228.696C236.152 539.353 242.196 545.398 242.196 552.853Z" fill="url(#paint0_linear)"/>
<path fill-rule="evenodd" clip-rule="evenodd" d="M250.954 98.0888C250.954 105.545 244.91 111.589 237.454 111.589H107.019C99.5632 111.589 93.519 105.545 93.519 98.0888V98.0888C93.519 90.633 99.5632 84.5888 107.019 84.5888H237.454C244.91 84.5888 250.954 90.633 250.954 98.0888V98.0888Z" fill="url(#paint1_linear)"/>
<path fill-rule="evenodd" clip-rule="evenodd" d="M430.396 47.5595C430.396 55.0154 424.351 61.0596 416.895 61.0596H245.548C238.092 61.0596 232.047 55.0154 232.047 47.5595C232.047 40.1037 238.092 34.0595 245.548 34.0595H416.895C424.351 34.0595 430.396 40.1037 430.396 47.5595Z" fill="#FB4469"/>
<path fill-rule="evenodd" clip-rule="evenodd" d="M104.609 754.971C104.609 762.427 98.5652 768.471 91.1093 768.471H13.5003C6.04441 768.471 0.000236511 762.427 0.000236511 754.971C0.000236511 747.515 6.04441 741.471 13.5003 741.471H91.1093C98.5652 741.471 104.609 747.515 104.609 754.971Z" fill="url(#paint2_linear)"/>
<path fill-rule="evenodd" clip-rule="evenodd" d="M232.048 704.442C232.048 711.898 226.004 717.942 218.548 717.942H129.178C121.722 717.942 115.678 711.898 115.678 704.442C115.678 696.986 121.722 690.942 129.178 690.942H218.548C226.004 690.942 232.048 696.986 232.048 704.442Z" fill="#FB4469"/>
<path fill-rule="evenodd" clip-rule="evenodd" d="M128.668 300.206C128.668 292.75 134.713 286.706 142.168 286.706H286.617C294.073 286.706 300.117 292.75 300.117 300.206C300.117 307.662 294.073 313.706 286.617 313.706H142.168C134.713 313.706 128.668 307.662 128.668 300.206Z" fill="#C960FF"/>
<path fill-rule="evenodd" clip-rule="evenodd" d="M300.117 249.678C300.117 242.222 306.161 236.178 313.617 236.178H484.965C492.421 236.178 498.465 242.222 498.465 249.678C498.465 257.134 492.421 263.178 484.965 263.178H313.617C306.161 263.178 300.117 257.134 300.117 249.678Z" fill="url(#paint3_linear)"/>
<path fill-rule="evenodd" clip-rule="evenodd" d="M88.4043 401.266C88.4043 393.81 94.4485 387.766 101.904 387.766H190.283C197.739 387.766 203.783 393.81 203.783 401.266C203.783 408.722 197.739 414.766 190.283 414.766H101.904C94.4485 414.766 88.4043 408.722 88.4043 401.266Z" fill="url(#paint4_linear)"/>
<path fill-rule="evenodd" clip-rule="evenodd" d="M263.565 451.795C263.565 444.339 269.609 438.295 277.065 438.295H448.413C455.869 438.295 461.913 444.339 461.913 451.795C461.913 459.251 455.869 465.295 448.413 465.295H277.065C269.609 465.295 263.565 459.251 263.565 451.795Z" fill="#C960FF"/>
</g>
<g filter="url(#filter0_d)">
<rect width="216.67" height="396.522" rx="33.5157" transform="matrix(4.37114e-08 1 1 -4.37114e-08 76.4873 139)" fill="url(#paint5_linear)"/>
<rect width="207.586" height="390.473" rx="30.7228" transform="matrix(4.37114e-08 1 1 -4.37114e-08 79.5117 143.539)" fill="url(#paint6_linear)"/>
<rect width="187.651" height="371.336" rx="19.5508" transform="matrix(4.37114e-08 1 1 -4.37114e-08 88.6699 153.51)" fill="url(#paint7_linear)"/>
<rect x="81.9092" y="298.404" width="102.673" height="11.2148" transform="rotate(-90 81.9092 298.404)" fill="#481330"/>
<rect x="81.9102" y="288.378" width="82.6191" height="20.7666" transform="rotate(-90 81.9102 288.378)" fill="#481330"/>
<ellipse cx="93.1242" cy="288.377" rx="10.0276" ry="9.55238" transform="rotate(-90 93.1242 288.377)" fill="#481330"/>
<ellipse cx="93.1242" cy="205.759" rx="10.0276" ry="9.55238" transform="rotate(-90 93.1242 205.759)" fill="#481330"/>
<rect x="90.3711" y="275.758" width="42.3151" height="3.84598" rx="1.92299" transform="rotate(-90 90.3711 275.758)" fill="#1B1615"/>
<ellipse cx="92.2937" cy="220.122" rx="3.87316" ry="3.62382" transform="rotate(-90 92.2937 220.122)" fill="#1A1A1A"/>
<ellipse cx="92.4364" cy="220.247" rx="2.10837" ry="1.91587" transform="rotate(-90 92.4364 220.247)" fill="#525252"/>
<ellipse cx="92.2937" cy="220.248" rx="3.87316" ry="3.62382" transform="rotate(-90 92.2937 220.248)" fill="url(#paint8_radial)"/>
<ellipse cx="90.6764" cy="221.509" rx="0.40833" ry="0.333653" transform="rotate(-90 90.6764 221.509)" fill="white"/>
<g filter="url(#filter1_d)">
<rect x="274.749" y="318.474" width="143.516" height="142.275" rx="11.2113" transform="rotate(180 274.749 318.474)" fill="#FFF3F4"/>
<rect width="90.2285" height="7.93116" rx="3.96558" transform="matrix(-1.26048e-07 -1 -1 1.36534e-07 251.072 291.809)" fill="url(#paint9_linear)"/>
<rect width="63.9753" height="7.93116" rx="3.96558" transform="matrix(-1.26048e-07 -1 -1 1.36534e-07 237.905 291.809)" fill="url(#paint10_linear)"/>
<rect width="80.8411" height="7.93116" rx="3.96558" transform="matrix(-1.26048e-07 -1 -1 1.36534e-07 224.738 291.809)" fill="url(#paint11_linear)"/>
<rect width="46.3811" height="7.93116" rx="3.96558" transform="matrix(-1.26048e-07 -1 -1 1.36534e-07 182.138 291.809)" fill="url(#paint12_linear)"/>
<rect width="46.3811" height="7.93116" rx="3.96558" transform="matrix(-1.26048e-07 -1 -1 1.36534e-07 168.972 291.809)" fill="url(#paint13_linear)"/>
<ellipse rx="9.30968" ry="8.76806" transform="matrix(-1.26048e-07 -1 -1 1.36534e-07 199.472 282.499)" fill="#FFA38A"/>
<ellipse rx="9.30968" ry="8.76806" transform="matrix(-1.26048e-07 -1 -1 1.36534e-07 199.472 256.909)" fill="#FFA38A"/>
<ellipse rx="9.30968" ry="8.76806" transform="matrix(-1.26048e-07 -1 -1 1.36534e-07 199.472 231.319)" fill="#FFA38A"/>
</g>
<path opacity="0.71" d="M65.9759 197.134C65.9759 191.608 61.7086 187.128 56.4446 187.128C56.4256 187.128 56.4066 187.128 56.3876 187.129L52.0002 187.129L52.0002 164.508C52.0002 153.734 60.2261 145 70.3732 145L404.144 145C414.291 145 422.517 153.734 422.517 164.508L422.517 312.729C422.517 323.503 414.291 332.237 404.144 332.237L70.3733 332.237C60.2261 332.237 52.0002 323.503 52.0002 312.729L52.0002 289.575L56.4441 289.575C61.7075 289.575 65.975 285.096 65.976 279.571L65.9759 197.134Z" fill="url(#paint14_linear)"/>
</g>
<g filter="url(#filter2_d)">
<rect x="485" y="737.1" width="423" height="295.099" rx="17" transform="rotate(-180 485 737.1)" fill="#2D2236"/>
<ellipse cx="78.9582" cy="457.498" rx="4.37666" ry="4.00637" fill="#FF4040"/>
<ellipse cx="93.3605" cy="457.498" rx="4.37666" ry="4.00637" fill="#FFC635"/>
<ellipse cx="107.764" cy="457.498" rx="4.37666" ry="4.00637" fill="#5BFF40"/>
<rect x="88.9839" y="484.851" width="334.012" height="10.3115" rx="5.15575" fill="#4E3952"/>
<rect x="88.9839" y="502.938" width="218.747" height="10.3115" rx="5.15575" fill="#4E3952"/>
<rect x="88.9839" y="557.197" width="18.6671" height="10.3115" rx="5.15575" fill="#4B78BB"/>
<rect x="112.14" y="557.197" width="165.457" height="10.3115" rx="5.15575" fill="#DBC1D5"/>
<rect x="122.568" y="575.283" width="74.513" height="10.3115" rx="5.15575" fill="#DBC1D5"/>
<rect x="221.232" y="575.283" width="33.0449" height="10.3115" rx="5.15575" fill="#DBC1D5"/>
<rect x="204.1" y="575.283" width="11.167" height="10.3115" rx="5.15575" fill="#FF4B6B"/>
<rect x="122.568" y="593.37" width="55.1265" height="10.3115" rx="5.15575" fill="#DBC1D5"/>
<rect x="122.568" y="611.456" width="35.4371" height="10.3115" rx="5.15575" fill="#4B78BB"/>
<rect x="165.969" y="611.456" width="115.219" height="10.3115" rx="5.15575" fill="#DBC1D5"/>
<rect x="122.568" y="628.721" width="150.536" height="10.3115" rx="5.15575" fill="#DBC1D5"/>
<rect x="277.598" y="646.799" width="70.9913" height="10.3115" rx="5.15575" fill="#D2D2D2"/>
<rect x="88.9839" y="521.263" width="44.1827" height="10.3115" rx="5.15575" fill="#FF4B77"/>
<rect x="140.287" y="521.263" width="98.8996" height="10.3115" rx="5.15575" fill="#DBC1D5"/>
<rect x="88.9839" y="539.35" width="44.1827" height="10.3115" rx="5.15575" fill="#FF4B6B"/>
<rect x="140.287" y="539.35" width="62.2824" height="10.3115" rx="5.15575" fill="#DBC1D5"/>
<rect x="88.9839" y="650.095" width="76.2916" height="10.3115" rx="5.15575" fill="#D2D2D2"/>
</g>
<defs>
<filter id="filter0_d" x="28.6704" y="115.67" width="467.669" height="263.329" filterUnits="userSpaceOnUse" color-interpolation-filters="sRGB">
<feFlood flood-opacity="0" result="BackgroundImageFix"/>
<feColorMatrix in="SourceAlpha" type="matrix" values="0 0 0 0 0 0 0 0 0 0 0 0 0 0 0 0 0 0 127 0"/>
<feOffset/>
<feGaussianBlur stdDeviation="11.6648"/>
<feColorMatrix type="matrix" values="0 0 0 0 0.154715 0 0 0 0 0.0969792 0 0 0 0 0.175 0 0 0 0.43 0"/>
<feBlend mode="normal" in2="BackgroundImageFix" result="effect1_dropShadow"/>
<feBlend mode="normal" in="SourceGraphic" in2="effect1_dropShadow" result="shape"/>
</filter>
<filter id="filter1_d" x="113.645" y="167.954" width="178.69" height="177.449" filterUnits="userSpaceOnUse" color-interpolation-filters="sRGB">
<feFlood flood-opacity="0" result="BackgroundImageFix"/>
<feColorMatrix in="SourceAlpha" type="matrix" values="0 0 0 0 0 0 0 0 0 0 0 0 0 0 0 0 0 0 127 0"/>
<feOffset dy="9.34295"/>
<feGaussianBlur stdDeviation="8.79337"/>
<feColorMatrix type="matrix" values="0 0 0 0 0.254133 0 0 0 0 0.11 0 0 0 0 0.266667 0 0 0 0.24 0"/>
<feBlend mode="normal" in2="BackgroundImageFix" result="effect1_dropShadow"/>
<feBlend mode="normal" in="SourceGraphic" in2="effect1_dropShadow" result="shape"/>
</filter>
<filter id="filter2_d" x="15" y="435" width="481" height="353.1" filterUnits="userSpaceOnUse" color-interpolation-filters="sRGB">
<feFlood flood-opacity="0" result="BackgroundImageFix"/>
<feColorMatrix in="SourceAlpha" type="matrix" values="0 0 0 0 0 0 0 0 0 0 0 0 0 0 0 0 0 0 127 0"/>
<feOffset dx="-18" dy="22"/>
<feGaussianBlur stdDeviation="14.5"/>
<feColorMatrix type="matrix" values="0 0 0 0 0.183333 0 0 0 0 0.0863195 0 0 0 0 0.127065 0 0 0 0.42 0"/>
<feBlend mode="normal" in2="BackgroundImageFix" result="effect1_dropShadow"/>
<feBlend mode="normal" in="SourceGraphic" in2="effect1_dropShadow" result="shape"/>
</filter>
<linearGradient id="paint0_linear" x1="241.592" y1="551.853" x2="16.202" y2="551.853" gradientUnits="userSpaceOnUse">
<stop stop-color="#FF4789"/>
<stop offset="1" stop-color="#C548FF"/>
</linearGradient>
<linearGradient id="paint1_linear" x1="250.536" y1="97.088" x2="94.2544" y2="97.088" gradientUnits="userSpaceOnUse">
<stop stop-color="#FF4789"/>
<stop offset="1" stop-color="#C548FF"/>
</linearGradient>
<linearGradient id="paint2_linear" x1="104.331" y1="753.97" x2="0.488862" y2="753.97" gradientUnits="userSpaceOnUse">
<stop stop-color="#FF4789"/>
<stop offset="1" stop-color="#C548FF"/>
</linearGradient>
<linearGradient id="paint3_linear" x1="300.644" y1="250.679" x2="497.538" y2="250.679" gradientUnits="userSpaceOnUse">
<stop stop-color="#FF4789"/>
<stop offset="1" stop-color="#C548FF"/>
</linearGradient>
<linearGradient id="paint4_linear" x1="88.711" y1="402.267" x2="203.244" y2="402.267" gradientUnits="userSpaceOnUse">
<stop stop-color="#FF4789"/>
<stop offset="1" stop-color="#C548FF"/>
</linearGradient>
<linearGradient id="paint5_linear" x1="108.335" y1="0" x2="108.335" y2="396.522" gradientUnits="userSpaceOnUse">
<stop stop-color="#FFA5C5"/>
<stop offset="0.09375" stop-color="#ED6A91"/>
<stop offset="0.838542" stop-color="#BC3997"/>
<stop offset="1" stop-color="#C0229D"/>
</linearGradient>
<linearGradient id="paint6_linear" x1="103.793" y1="-1.0999e-06" x2="33.8563" y2="393.366" gradientUnits="userSpaceOnUse">
<stop stop-color="#481330"/>
<stop offset="0.296875" stop-color="#8E285F"/>
<stop offset="1" stop-color="#481330"/>
</linearGradient>
<linearGradient id="paint7_linear" x1="93.8254" y1="0" x2="93.8254" y2="371.336" gradientUnits="userSpaceOnUse">
<stop stop-color="#F3AEFF"/>
<stop offset="1" stop-color="#C1BBFE"/>
</linearGradient>
<radialGradient id="paint8_radial" cx="0" cy="0" r="1" gradientUnits="userSpaceOnUse" gradientTransform="translate(90.9038 220.248) rotate(69.0152) scale(3.88124 4.082)">
<stop stop-color="white" stop-opacity="0.31"/>
<stop offset="1" stop-color="white" stop-opacity="0"/>
</radialGradient>
<linearGradient id="paint9_linear" x1="8.40319e-08" y1="3.96558" x2="93.8301" y2="3.96558" gradientUnits="userSpaceOnUse">
<stop stop-color="#FF67CC"/>
<stop offset="1" stop-color="#FF9178"/>
</linearGradient>
<linearGradient id="paint10_linear" x1="5.95817e-08" y1="3.96558" x2="66.5289" y2="3.96558" gradientUnits="userSpaceOnUse">
<stop stop-color="#FF67CC"/>
<stop offset="1" stop-color="#FF9178"/>
</linearGradient>
<linearGradient id="paint11_linear" x1="7.52892e-08" y1="3.96558" x2="84.068" y2="3.96558" gradientUnits="userSpaceOnUse">
<stop stop-color="#FF67CC"/>
<stop offset="1" stop-color="#FF9178"/>
</linearGradient>
<linearGradient id="paint12_linear" x1="4.31957e-08" y1="3.96558" x2="48.2324" y2="3.96558" gradientUnits="userSpaceOnUse">
<stop stop-color="#FF878A"/>
<stop offset="1" stop-color="#D090E4"/>
</linearGradient>
<linearGradient id="paint13_linear" x1="4.31957e-08" y1="3.96558" x2="48.2324" y2="3.96558" gradientUnits="userSpaceOnUse">
<stop stop-color="#FF878A"/>
<stop offset="1" stop-color="#D090E4"/>
</linearGradient>
<linearGradient id="paint14_linear" x1="52.0006" y1="238.619" x2="422.517" y2="238.619" gradientUnits="userSpaceOnUse">
<stop offset="0.0001" stop-color="#FDA6FF" stop-opacity="0.13"/>
<stop offset="0.25" stop-color="#ECE3FF" stop-opacity="0.46"/>
<stop offset="1" stop-color="#AFBCFF" stop-opacity="0.47"/>
</linearGradient>
</defs>
</svg>
