<?xml version="1.0" encoding="UTF-8" standalone="no"?>
<svg
   xmlns:dc="http://purl.org/dc/elements/1.1/"
   xmlns:cc="http://creativecommons.org/ns#"
   xmlns:rdf="http://www.w3.org/1999/02/22-rdf-syntax-ns#"
   xmlns:svg="http://www.w3.org/2000/svg"
   xmlns="http://www.w3.org/2000/svg"
   xmlns:sodipodi="http://sodipodi.sourceforge.net/DTD/sodipodi-0.dtd"
   xmlns:inkscape="http://www.inkscape.org/namespaces/inkscape"
   width="1478"
   height="590.11377"
   viewBox="0 0 1478 590.11377"
   version="1.1"
   id="svg4153"
   sodipodi:docname="big_background.svg"
   style="fill:none"
   inkscape:version="0.92.4 (5da689c313, 2019-01-14)">
  <metadata
     id="metadata4159">
    <rdf:RDF>
      <cc:Work
         rdf:about="">
        <dc:format>image/svg+xml</dc:format>
        <dc:type
           rdf:resource="http://purl.org/dc/dcmitype/StillImage" />
        <dc:title></dc:title>
      </cc:Work>
    </rdf:RDF>
  </metadata>
  <defs
     id="defs4157" />
  <sodipodi:namedview
     pagecolor="#ffffff"
     bordercolor="#666666"
     borderopacity="1"
     objecttolerance="10"
     gridtolerance="10"
     guidetolerance="10"
     inkscape:pageopacity="0"
     inkscape:pageshadow="2"
     inkscape:window-width="1920"
     inkscape:window-height="986"
     id="namedview4155"
     showgrid="false"
     fit-margin-top="0"
     fit-margin-left="0"
     fit-margin-right="0"
     fit-margin-bottom="0"
     inkscape:zoom="0.94547708"
     inkscape:cx="415.14244"
     inkscape:cy="306.00093"
     inkscape:window-x="-11"
     inkscape:window-y="-11"
     inkscape:window-maximized="1"
     inkscape:current-layer="svg4153" />
  <g
     id="g4047"
     transform="matrix(1,0,0,0.73124382,16,0)"
     style="opacity:0.4">
    <rect
       width="18.291599"
       height="26.0378"
       transform="matrix(-1,0,0,1,1420.6,0)"
       id="rect3937"
       x="0"
       y="0"
       style="fill:#ffffff" />
    <rect
       width="80.868103"
       height="26.0378"
       transform="matrix(-1,0,0,1,1333,0)"
       id="rect3939"
       x="0"
       y="0"
       style="fill:#ffffff" />
    <rect
       width="32.7323"
       height="26.0378"
       transform="matrix(-1,0,0,1,1384.02,0)"
       id="rect3941"
       x="0"
       y="0"
       style="fill:#fb4469" />
    <rect
       width="21.179701"
       height="26.0378"
       transform="matrix(-1,0,0,1,1209.77,0)"
       id="rect3943"
       x="0"
       y="0"
       style="fill:#fb4469" />
    <rect
       width="19.254299"
       height="26.0378"
       transform="matrix(-1,0,0,1,773.658,0)"
       id="rect3945"
       x="0"
       y="0"
       style="fill:#ffffff" />
    <rect
       width="248.381"
       height="26.0378"
       transform="matrix(-1,0,0,1,1161.63,0)"
       id="rect3947"
       x="0"
       y="0"
       style="fill:#c960ff" />
    <rect
       width="80.868103"
       height="26.0378"
       transform="matrix(-1,0,0,1,881.483,0)"
       id="rect3949"
       x="0"
       y="0"
       style="fill:#ffffff" />
    <rect
       width="80.868103"
       height="26.0378"
       transform="matrix(-1,0,0,1,747.665,0)"
       id="rect3951"
       x="0"
       y="0"
       style="fill:#fb4469" />
    <rect
       width="19.254299"
       height="26.0378"
       transform="matrix(-1,0,0,1,394.348,0)"
       id="rect3953"
       x="0"
       y="0"
       style="fill:#ffffff" />
    <rect
       width="15.4035"
       height="26.0378"
       transform="matrix(-1,0,0,1,1420.6,416.86)"
       id="rect3955"
       x="0"
       y="0"
       style="fill:#fb4469" />
    <rect
       width="127.078"
       height="26.0378"
       transform="matrix(1,0,0,-1,226,755.597)"
       id="rect3957"
       x="0"
       y="0"
       style="fill:#fb4469" />
    <rect
       width="127.078"
       height="26.0378"
       transform="matrix(1,0,0,-1,741.149,754.498)"
       id="rect3959"
       x="0"
       y="0"
       style="fill:#c960ff" />
    <rect
       width="15.4035"
       height="26.0378"
       transform="matrix(1,0,0,-1,716.118,754.498)"
       id="rect3961"
       x="0"
       y="0"
       style="fill:#ffffff" />
    <rect
       width="134.78"
       height="26.0378"
       transform="matrix(1,0,0,-1,1015.52,754.498)"
       id="rect3963"
       x="0"
       y="0"
       style="fill:#fb4469" />
    <rect
       width="134.78"
       height="26.0378"
       transform="matrix(1,0,0,-1,1251.7,546.708)"
       id="rect3965"
       x="0"
       y="0"
       style="fill:#ffffff" />
    <rect
       width="15.4035"
       height="26.0378"
       transform="matrix(1,0,0,-1,990.492,754.498)"
       id="rect3967"
       x="0"
       y="0"
       style="fill:#ffffff" />
    <rect
       width="15.4035"
       height="26.0378"
       transform="matrix(1,0,0,-1,1356.63,598.613)"
       id="rect3969"
       x="0"
       y="0"
       style="fill:#c960ff" />
    <rect
       width="165.58701"
       height="26.0378"
       transform="matrix(-1,0,0,1,1434.08,52.0755)"
       id="rect3971"
       x="0"
       y="0"
       style="fill:#c960ff" />
    <rect
       width="248.381"
       height="26.0378"
       transform="matrix(-1,0,0,1,1132.75,52.0755)"
       id="rect3973"
       x="0"
       y="0"
       style="fill:#fb4469" />
    <rect
       width="108.787"
       height="26.0378"
       transform="matrix(-1,0,0,1,1434.08,104.151)"
       id="rect3975"
       x="0"
       y="0"
       style="fill:#ffffff" />
    <rect
       width="108.787"
       height="26.0378"
       transform="matrix(-1,0,0,1,1250.2,104.151)"
       id="rect3977"
       x="0"
       y="0"
       style="fill:#c960ff" />
    <rect
       width="181.612"
       height="26.0378"
       transform="matrix(-1,0,0,1,1367.31,156.227)"
       id="rect3979"
       x="0"
       y="0"
       style="fill:#fb4469" />
    <rect
       width="195.856"
       height="26.0378"
       transform="matrix(-1,0,0,1,1434.08,208.302)"
       id="rect3981"
       x="0"
       y="0"
       style="fill:#c960ff" />
    <rect
       width="72.203697"
       height="26.0378"
       transform="matrix(-1,0,0,1,1351.29,260.378)"
       id="rect3983"
       x="0"
       y="0"
       style="fill:#ffffff" />
    <rect
       width="82.793503"
       height="26.0378"
       transform="matrix(-1,0,0,1,1462,155.714)"
       id="rect3985"
       x="0"
       y="0"
       style="fill:#ffffff" />
    <rect
       width="82.793503"
       height="26.0378"
       transform="matrix(-1,0,0,1,1438.37,257.902)"
       id="rect3987"
       x="0"
       y="0"
       style="fill:#fb4469" />
    <rect
       width="41.396801"
       height="26.0378"
       transform="matrix(-1,0,0,1,1420.6,363.334)"
       id="rect3989"
       x="0"
       y="0"
       style="fill:#ffffff" />
    <rect
       width="229.685"
       height="26.0378"
       transform="matrix(-1,0,0,1,1434.08,312.453)"
       id="rect3991"
       x="0"
       y="0"
       style="fill:#ffffff" />
    <rect
       x="1436.23"
       y="805.513"
       width="158.34801"
       height="25.984301"
       transform="rotate(-180,1436.23,805.513)"
       id="rect3993"
       style="fill:#c960ff" />
    <rect
       x="1316.2"
       y="755.01001"
       width="82.793503"
       height="26.0378"
       transform="rotate(-180,1316.2,755.01)"
       id="rect3995"
       style="fill:#fb4469" />
    <rect
       x="1411.51"
       y="755.01001"
       width="82.793503"
       height="26.0378"
       transform="rotate(-180,1411.51,755.01)"
       id="rect3997"
       style="fill:#c960ff" />
    <rect
       x="1398.99"
       y="702.93402"
       width="246.895"
       height="26.0378"
       transform="rotate(-180,1398.99,702.934)"
       id="rect3999"
       style="fill:#fb4469" />
    <rect
       width="166.55"
       height="26.0378"
       transform="matrix(1,0,0,-1,655.467,807)"
       id="rect4001"
       x="0"
       y="0"
       style="fill:#ffffff" />
    <rect
       width="239.716"
       height="26.0378"
       transform="matrix(1,0,0,-1,993.38,807)"
       id="rect4003"
       x="0"
       y="0"
       style="fill:#ffffff" />
    <rect
       width="43.322201"
       height="26.0378"
       transform="matrix(1,0,0,-1,633.324,754.498)"
       id="rect4005"
       x="0"
       y="0"
       style="fill:#c960ff" />
    <rect
       width="43.322201"
       height="26.0378"
       transform="matrix(1,0,0,-1,881.705,754.498)"
       id="rect4007"
       x="0"
       y="0"
       style="fill:#ffffff" />
    <rect
       width="43.322201"
       height="26.0378"
       transform="matrix(1,0,0,-1,940.431,807)"
       id="rect4009"
       x="0"
       y="0"
       style="fill:#c960ff" />
    <rect
       width="105.899"
       height="26.0378"
       transform="matrix(1,0,0,-1,1231.48,598.783)"
       id="rect4011"
       x="0"
       y="0"
       style="fill:#ffffff" />
    <rect
       width="44.264"
       height="26.0378"
       transform="matrix(1,0,0,-1,1172.75,755.01)"
       id="rect4013"
       x="0"
       y="0"
       style="fill:#c960ff" />
    <rect
       width="59.6884"
       height="26.0378"
       transform="matrix(1,0,0,-1,1326.79,650.859)"
       id="rect4015"
       x="0"
       y="0"
       style="fill:#fb4469" />
    <rect
       width="43.322201"
       height="26.0378"
       transform="matrix(1,0,0,-1,888.444,807)"
       id="rect4017"
       x="0"
       y="0"
       style="fill:#ffffff" />
    <rect
       width="19.254299"
       height="26.0378"
       transform="matrix(1,0,0,-1,541.866,807)"
       id="rect4019"
       x="0"
       y="0"
       style="fill:#fb4469" />
    <rect
       width="17.805099"
       height="26.0378"
       transform="matrix(-1,0,0,1,1268.49,260.378)"
       id="rect4021"
       x="0"
       y="0"
       style="fill:#fb4469" />
    <rect
       width="127.078"
       height="26.0378"
       transform="matrix(-1,0,0,1,1395.57,416.604)"
       id="rect4023"
       x="0"
       y="0"
       style="fill:#ffffff" />
    <rect
       width="50.383499"
       height="25.984301"
       transform="matrix(1,0,0,-1,911.833,754.544)"
       id="rect4025"
       x="0"
       y="0"
       style="fill:#fb4469" />
    <rect
       width="17.328899"
       height="26.0378"
       transform="matrix(1,0,0,-1,854.749,807)"
       id="rect4027"
       x="0"
       y="0"
       style="fill:#fb4469" />
    <rect
       width="32.7323"
       height="26.0378"
       transform="matrix(-1,0,0,1,1301.23,104.151)"
       id="rect4029"
       x="0"
       y="0"
       style="fill:#fb4469" />
    <rect
       width="32.7323"
       height="26.0378"
       transform="matrix(-1,0,0,1,1235.76,52.0755)"
       id="rect4031"
       x="0"
       y="0"
       style="fill:#ffffff" />
    <rect
       width="21.179701"
       height="26.0378"
       transform="matrix(-1,0,0,1,1126.98,104.151)"
       id="rect4033"
       x="0"
       y="0"
       style="fill:#ffffff" />
    <rect
       width="21.179701"
       height="26.0378"
       transform="matrix(-1,0,0,1,864.154,52.0755)"
       id="rect4035"
       x="0"
       y="0"
       style="fill:#c960ff" />
    <rect
       width="108.787"
       height="26.0378"
       transform="matrix(-1,0,0,1,1302.33,624.65)"
       id="rect4037"
       x="0"
       y="0"
       style="fill:#c960ff" />
    <rect
       width="32.7323"
       height="26.0378"
       transform="matrix(1,0,0,-1,491.805,807)"
       id="rect4039"
       x="0"
       y="0"
       style="fill:#ffffff" />
    <rect
       width="183"
       height="26"
       transform="matrix(-1,0,0,1,1434,469)"
       id="rect4041"
       x="0"
       y="0"
       style="fill:#c960ff" />
    <rect
       width="19.254299"
       height="26.0378"
       transform="matrix(1,0,0,-1,1022.16,702.422)"
       id="rect4043"
       x="0"
       y="0"
       style="fill:#ffffff" />
    <rect
       width="80.868103"
       height="26.0378"
       transform="matrix(1,0,0,-1,1048.16,702.422)"
       id="rect4045"
       x="0"
       y="0"
       style="fill:#fb4469" />
  </g>
  <g
     id="g4151"
     transform="matrix(1,0,0,0.73124382,16,0)"
     style="opacity:0.4">
    <rect
       width="18.2764"
       height="26.0378"
       transform="matrix(1,0,0,-1,25.3623,807)"
       id="rect4049"
       x="0"
       y="0"
       style="fill:#ffffff" />
    <rect
       width="80.800697"
       height="26.0378"
       transform="matrix(1,0,0,-1,112.896,807)"
       id="rect4051"
       x="0"
       y="0"
       style="fill:#ffffff" />
    <rect
       width="32.705002"
       height="26.0378"
       transform="matrix(1,0,0,-1,61.9148,807)"
       id="rect4053"
       x="0"
       y="0"
       style="fill:#fb4469" />
    <rect
       width="21.1621"
       height="26.0378"
       transform="matrix(1,0,0,-1,236.021,807)"
       id="rect4055"
       x="0"
       y="0"
       style="fill:#fb4469" />
    <rect
       width="19.2383"
       height="26.0378"
       transform="matrix(1,0,0,-1,671.768,807)"
       id="rect4057"
       x="0"
       y="0"
       style="fill:#ffffff" />
    <rect
       width="248.174"
       height="26.0378"
       transform="matrix(1,0,0,-1,284.117,807)"
       id="rect4059"
       x="0"
       y="0"
       style="fill:#c960ff" />
    <rect
       width="80.800697"
       height="26.0378"
       transform="matrix(1,0,0,-1,564.033,807)"
       id="rect4061"
       x="0"
       y="0"
       style="fill:#ffffff" />
    <rect
       width="80.800697"
       height="26.0378"
       transform="matrix(1,0,0,-1,697.74,807)"
       id="rect4063"
       x="0"
       y="0"
       style="fill:#fb4469" />
    <rect
       width="19.2383"
       height="26.0378"
       transform="matrix(1,0,0,-1,1050.76,807)"
       id="rect4065"
       x="0"
       y="0"
       style="fill:#ffffff" />
    <rect
       width="15.3906"
       height="26.0378"
       transform="matrix(1,0,0,-1,25.3623,390.14)"
       id="rect4067"
       x="0"
       y="0"
       style="fill:#fb4469" />
    <rect
       width="126.973"
       height="26.0378"
       transform="matrix(-1,0,0,1,704.25,52.5021)"
       id="rect4069"
       x="0"
       y="0"
       style="fill:#c960ff" />
    <rect
       width="15.3906"
       height="26.0378"
       transform="matrix(-1,0,0,1,729.26,52.5021)"
       id="rect4071"
       x="0"
       y="0"
       style="fill:#ffffff" />
    <rect
       width="134.668"
       height="26.0378"
       transform="matrix(-1,0,0,1,430.105,52.5021)"
       id="rect4073"
       x="0"
       y="0"
       style="fill:#fb4469" />
    <rect
       width="134.668"
       height="26.0378"
       transform="matrix(-1,0,0,1,194.129,260.292)"
       id="rect4075"
       x="0"
       y="0"
       style="fill:#ffffff" />
    <rect
       width="15.3906"
       height="26.0378"
       transform="matrix(-1,0,0,1,455.115,52.5021)"
       id="rect4077"
       x="0"
       y="0"
       style="fill:#ffffff" />
    <rect
       width="15.3906"
       height="26.0378"
       transform="matrix(-1,0,0,1,89.2805,208.387)"
       id="rect4079"
       x="0"
       y="0"
       style="fill:#c960ff" />
    <rect
       width="165.44901"
       height="26.0378"
       transform="matrix(1,0,0,-1,11.8954,754.925)"
       id="rect4081"
       x="0"
       y="0"
       style="fill:#c960ff" />
    <rect
       width="108.696"
       height="26.0378"
       transform="matrix(1,0,0,-1,11.8954,702.849)"
       id="rect4083"
       x="0"
       y="0"
       style="fill:#ffffff" />
    <rect
       width="108.696"
       height="26.0378"
       transform="matrix(1,0,0,-1,195.621,702.849)"
       id="rect4085"
       x="0"
       y="0"
       style="fill:#c960ff" />
    <rect
       width="181.46001"
       height="26.0378"
       transform="matrix(1,0,0,-1,78.6086,650.773)"
       id="rect4087"
       x="0"
       y="0"
       style="fill:#fb4469" />
    <rect
       width="195.692"
       height="26.0378"
       transform="matrix(1,0,0,-1,11.8954,598.698)"
       id="rect4089"
       x="0"
       y="0"
       style="fill:#c960ff" />
    <rect
       width="72.143501"
       height="26.0378"
       transform="matrix(1,0,0,-1,94.62,546.622)"
       id="rect4091"
       x="0"
       y="0"
       style="fill:#ffffff" />
    <rect
       width="82.724503"
       height="26.0378"
       transform="matrix(1,0,0,-1,-16,651.286)"
       id="rect4093"
       x="0"
       y="0"
       style="fill:#ffffff" />
    <rect
       width="82.724503"
       height="26.0378"
       transform="matrix(1,0,0,-1,7.60962,549.098)"
       id="rect4095"
       x="0"
       y="0"
       style="fill:#fb4469" />
    <rect
       width="41.362301"
       height="26.0378"
       transform="matrix(1,0,0,-1,25.3623,443.666)"
       id="rect4097"
       x="0"
       y="0"
       style="fill:#ffffff" />
    <rect
       width="229.494"
       height="26.0378"
       transform="matrix(1,0,0,-1,11.8954,494.547)"
       id="rect4099"
       x="0"
       y="0"
       style="fill:#ffffff" />
    <rect
       x="9.7458496"
       y="1.48651"
       width="158.216"
       height="25.984301"
       id="rect4101"
       style="fill:#c960ff" />
    <rect
       x="129.67999"
       y="51.9902"
       width="82.724503"
       height="26.0378"
       id="rect4103"
       style="fill:#fb4469" />
    <rect
       x="34.451302"
       y="51.9902"
       width="82.724503"
       height="26.0378"
       id="rect4105"
       style="fill:#c960ff" />
    <rect
       x="46.955898"
       y="104.066"
       width="246.689"
       height="26.0378"
       id="rect4107"
       style="fill:#fb4469" />
    <rect
       width="166.411"
       height="26.0378"
       transform="matrix(-1,0,0,1,789.861,0)"
       id="rect4109"
       x="0"
       y="0"
       style="fill:#ffffff" />
    <rect
       width="239.51601"
       height="26.0378"
       transform="matrix(-1,0,0,1,452.229,0)"
       id="rect4111"
       x="0"
       y="0"
       style="fill:#ffffff" />
    <rect
       width="43.286098"
       height="26.0378"
       transform="matrix(-1,0,0,1,865.852,0)"
       id="rect4113"
       x="0"
       y="0"
       style="fill:#c960ff" />
    <rect
       width="43.286098"
       height="26.0378"
       transform="matrix(-1,0,0,1,811.985,52.5021)"
       id="rect4115"
       x="0"
       y="0"
       style="fill:#c960ff" />
    <rect
       width="43.286098"
       height="26.0378"
       transform="matrix(-1,0,0,1,563.811,52.5021)"
       id="rect4117"
       x="0"
       y="0"
       style="fill:#ffffff" />
    <rect
       width="43.286098"
       height="26.0378"
       transform="matrix(-1,0,0,1,505.134,0)"
       id="rect4119"
       x="0"
       y="0"
       style="fill:#c960ff" />
    <rect
       width="105.81"
       height="26.0378"
       transform="matrix(-1,0,0,1,214.329,208.217)"
       id="rect4121"
       x="0"
       y="0"
       style="fill:#ffffff" />
    <rect
       width="44.2271"
       height="26.0378"
       transform="matrix(-1,0,0,1,273.006,51.9902)"
       id="rect4123"
       x="0"
       y="0"
       style="fill:#c960ff" />
    <rect
       width="59.638599"
       height="26.0378"
       transform="matrix(-1,0,0,1,119.1,156.141)"
       id="rect4125"
       x="0"
       y="0"
       style="fill:#fb4469" />
    <rect
       width="43.286098"
       height="26.0378"
       transform="matrix(-1,0,0,1,557.078,0)"
       id="rect4127"
       x="0"
       y="0"
       style="fill:#ffffff" />
    <rect
       width="19.2383"
       height="26.0378"
       transform="matrix(-1,0,0,1,903.366,0)"
       id="rect4129"
       x="0"
       y="0"
       style="fill:#fb4469" />
    <rect
       width="17.790199"
       height="26.0378"
       transform="matrix(1,0,0,-1,177.344,546.622)"
       id="rect4131"
       x="0"
       y="0"
       style="fill:#fb4469" />
    <rect
       width="126.973"
       height="26.0378"
       transform="matrix(1,0,0,-1,50.3718,390.396)"
       id="rect4133"
       x="0"
       y="0"
       style="fill:#ffffff" />
    <rect
       width="17.3144"
       height="26.0378"
       transform="matrix(-1,0,0,1,500.325,52.5021)"
       id="rect4135"
       x="0"
       y="0"
       style="fill:#fb4469" />
    <rect
       width="17.3144"
       height="26.0378"
       transform="matrix(-1,0,0,1,590.745,0)"
       id="rect4137"
       x="0"
       y="0"
       style="fill:#fb4469" />
    <rect
       width="32.705002"
       height="26.0378"
       transform="matrix(1,0,0,-1,144.64,702.849)"
       id="rect4139"
       x="0"
       y="0"
       style="fill:#fb4469" />
    <rect
       width="21.1621"
       height="26.0378"
       transform="matrix(1,0,0,-1,318.746,702.849)"
       id="rect4141"
       x="0"
       y="0"
       style="fill:#ffffff" />
    <rect
       width="21.1621"
       height="26.0378"
       transform="matrix(1,0,0,-1,581.348,754.925)"
       id="rect4143"
       x="0"
       y="0"
       style="fill:#c960ff" />
    <rect
       width="108.696"
       height="26.0378"
       transform="matrix(1,0,0,-1,143.54,182.35)"
       id="rect4145"
       x="0"
       y="0"
       style="fill:#c960ff" />
    <rect
       width="19.2383"
       height="26.0378"
       transform="matrix(-1,0,0,1,423.47,104.578)"
       id="rect4147"
       x="0"
       y="0"
       style="fill:#ffffff" />
    <rect
       width="80.800697"
       height="26.0378"
       transform="matrix(-1,0,0,1,397.498,104.578)"
       id="rect4149"
       x="0"
       y="0"
       style="fill:#fb4469" />
  </g>
</svg>
