<svg width="248" height="248" viewBox="0 0 248 248" fill="none" xmlns="http://www.w3.org/2000/svg">
<path fill-rule="evenodd" clip-rule="evenodd" d="M137.228 242.526L242.526 137.228C249.825 129.929 249.825 118.071 242.526 110.772L137.228 5.47437C129.929 -1.82479 118.071 -1.82479 110.772 5.47437L5.47437 110.772C-1.82479 118.071 -1.82479 129.929 5.47437 137.228L110.772 242.526C118.071 249.825 129.929 249.825 137.228 242.526ZM124 180.048C137.966 180.048 149.297 174.251 149.297 160.628C149.297 153.619 152.914 148.272 157.069 142.127C162.679 133.833 169.271 124.087 169.271 106.846C169.271 81.8389 149.007 61.5752 124 61.5752C98.9931 61.5752 78.7294 81.8389 78.7294 106.846C78.7294 122.044 84.688 130.954 90.0962 139.04C94.5897 145.759 98.7032 151.91 98.7032 160.628C98.7032 173.065 110.034 180.048 124 180.048ZM144.474 117.992C144.474 125.291 140.68 131.668 134.935 135.305V161.26C134.935 166.029 130.904 167.558 124 167.558C117.096 167.558 113.064 165.634 113.064 161.26V135.305C107.32 131.668 103.525 125.265 103.525 117.992C103.525 111.721 106.371 106.082 110.825 102.34C112.013 101.334 112.393 104.505 112.845 108.29C113.306 112.139 113.842 116.623 115.383 117.992C118.624 120.838 129.481 120.943 132.617 117.992C133.97 116.711 134.293 112.679 134.589 108.98C134.938 104.615 135.25 100.714 137.175 102.34C141.655 106.082 144.474 111.721 144.474 117.992ZM140.311 184.686C140.311 191.906 133.012 195.121 124 195.121C114.988 195.121 107.689 191.906 107.689 184.686C107.689 181.032 108.786 181.363 112.046 182.348C114.569 183.11 118.389 184.264 124 184.264C129.6 184.264 133.416 183.179 135.94 182.462C139.211 181.533 140.311 181.22 140.311 184.686Z" fill="#242424"/>
</svg>
