<svg width="350" height="350" xmlns="http://www.w3.org/2000/svg" xmlns:xlink="http://www.w3.org/1999/xlink"><use xlink:href="#path0_fill" fill="#C960FF"/><use xlink:href="#path1_fill" transform="translate(151.98 256.42)" fill="#FFF"/><use xlink:href="#path2_fill" transform="translate(111.11 86.9)" fill="#FFF"/><use xlink:href="#path3_fill" transform="translate(146.1 143.9)" fill="#C960FF"/><defs><path id="path0_fill" d="M342.274 193.669L193.669 342.274c-10.302 10.301-27.036 10.301-37.338 0L7.726 193.669c-10.301-10.302-10.301-27.036 0-37.338L156.33 7.726c10.302-10.301 27.036-10.301 37.338 0L342.274 156.33c10.301 10.302 10.301 27.036 0 37.338z"/><path id="path1_fill" d="M46.04 4.226c0 10.19-10.302 14.727-23.02 14.727C10.3 18.953 0 14.416 0 4.226c0-9.148 4.872-.595 23.02-.595s23.02-8.07 23.02.595z"/><path id="path2_fill" d="M99.59 139.792c0 19.226-15.99 27.408-35.7 27.408s-35.701-9.855-35.701-27.408C28.189 112.681 0 103.161 0 63.89 0 28.598 28.598 0 63.89 0s63.89 28.598 63.89 63.89c0 42.358-28.19 52.659-28.19 75.902z"/><path id="path3_fill" d="M44.329 47.054c8.107-5.132 13.462-14.131 13.462-24.432 0-8.851-3.98-16.81-10.301-22.09-5.02-4.24-2.269 18.148-6.434 22.09-4.425 4.165-19.747 4.016-24.321 0-4.314-3.83-3.05-24.954-6.434-22.09C4.016 5.812 0 13.77 0 22.622c0 10.264 5.355 19.3 13.462 24.432v36.631c0 6.174 5.69 8.888 15.433 8.888 9.744 0 15.434-2.157 15.434-8.888v-36.63z"/></defs></svg>