<svg xmlns="http://www.w3.org/2000/svg" width="187" height="26"><path d="M18.264 25.267l-1.39-4.03h-8.99l-1.392 4.03H0L8.704 1.229h7.42l8.669 24.038h-6.529zm-8.846-8.468h5.921l-2.96-8.536-2.961 8.536zM30.032 22.023c-2.473-2.322-3.71-5.258-3.71-8.81 0-3.55 1.237-6.475 3.71-8.774C32.53 2.117 35.575.956 39.165.956c2.782 0 5.255.706 7.42 2.117 2.164 1.411 3.674 3.369 4.53 5.873h-7.277c-.951-1.753-2.473-2.63-4.566-2.63s-3.746.627-4.959 1.879c-1.189 1.251-1.783 2.925-1.783 5.019 0 2.094.594 3.767 1.783 5.019 1.213 1.252 2.866 1.878 4.959 1.878 2.093 0 3.615-.877 4.566-2.63h7.277c-.856 2.505-2.366 4.462-4.53 5.873-2.165 1.412-4.638 2.117-7.42 2.117-3.591 0-6.635-1.15-9.133-3.448zM83.387 1.297v23.97h-6.1V11.745l-5.815 13.52h-4.53l-5.815-13.52v13.52h-6.1V1.297h6.992l7.206 16.526 7.17-16.526h6.992z" fill="#242424"/><path d="M111.831 1.536h4.067v23.73h-4.067V14.785h-11.665v10.482H96.1V1.537h4.066V11.78h11.665V1.536zM134.201 20.486c1.189-1.16 1.784-2.708 1.784-4.643 0-1.935-.595-3.472-1.784-4.61-1.165-1.138-2.557-1.707-4.174-1.707-1.617 0-3.02.558-4.209 1.673-1.165 1.116-1.748 2.64-1.748 4.575s.583 3.495 1.748 4.678c1.189 1.161 2.592 1.741 4.209 1.741 1.617 0 3.009-.569 4.174-1.707zm-5.03 5.088c-2.616 0-4.816-.91-6.599-2.732-1.784-1.843-2.676-4.188-2.676-7.033 0-2.868.88-5.19 2.64-6.966 1.784-1.798 3.995-2.697 6.635-2.697 1.546 0 2.902.341 4.067 1.024 1.189.66 2.105 1.537 2.747 2.63V6.452h4.102v18.814h-4.102V21.75a7.725 7.725 0 01-2.747 2.8c-1.165.682-2.521 1.024-4.067 1.024zM153.705 25.574c-2.854 0-5.173-.888-6.957-2.664-1.783-1.775-2.675-4.12-2.675-7.033 0-2.937.892-5.292 2.675-7.068 1.808-1.775 4.127-2.663 6.957-2.663 2.378 0 4.34.546 5.886 1.639 1.569 1.07 2.627 2.606 3.174 4.61h-4.387c-.738-1.981-2.295-2.971-4.673-2.971-1.665 0-2.997.569-3.996 1.707-.975 1.115-1.462 2.686-1.462 4.712s.487 3.608 1.462 4.746c.999 1.138 2.331 1.707 3.996 1.707 2.354 0 3.912-.99 4.673-2.97h4.387c-.57 1.912-1.641 3.437-3.21 4.575-1.57 1.115-3.52 1.673-5.85 1.673zM170.885 25.267h-4.067V0h4.067v14.682l7.134-8.229h5.637l-9.061 9.424 9.061 9.39h-5.494l-7.277-8.093v8.093z" fill="#c960ff"/></svg>