<svg width="400" height="400" fill="none" xmlns="http://www.w3.org/2000/svg"><path d="M343.432 143.432l-86.863-86.863c-31.242-31.242-81.896-31.242-113.138 0l-86.863 86.863c-31.242 31.242-31.242 81.895 0 113.137l86.863 86.863c31.242 31.242 81.896 31.242 113.138 0l86.863-86.863c31.242-31.242 31.242-81.895 0-113.137z" fill="#C960FF"/><path d="M223.503 287.237c0 10.215-10.533 14.763-23.538 14.763-13.006 0-23.539-4.548-23.539-14.763 0-9.171 4.981-.596 23.539-.596 18.557 0 23.538-8.09 23.538.596zM236.847 252.133c0 19.549-16.296 27.867-36.381 27.867-20.086 0-36.381-10.02-36.381-27.867 0-27.564-28.727-37.244-28.727-77.173 0-35.883 29.143-64.96 65.108-64.96 35.964 0 65.107 29.077 65.107 64.96 0 43.068-28.726 53.541-28.726 77.173z" fill="#fff"/><path d="M215.747 215.78c8.29-5.211 13.767-14.349 13.767-24.809 0-8.988-4.07-17.069-10.535-22.431-5.134-4.305-2.319 18.428-6.579 22.431-4.525 4.229-20.193 4.078-24.871 0-4.411-3.89-3.118-25.338-6.579-22.431-6.427 5.362-10.534 13.443-10.534 22.431 0 10.422 5.476 19.598 13.767 24.809v37.195c0 6.269 5.818 9.025 15.782 9.025 9.963 0 15.782-2.19 15.782-9.025V215.78z" fill="#C960FF"/></svg>