<svg width="936" height="724" fill="none" xmlns="http://www.w3.org/2000/svg"><g opacity=".8" filter="url(#filter0_f)" fill="#fff"><path d="M196.728 86c8.348 1.77 17.395-.373 23.88-6.452 5.572-5.223 8.07-12.274 7.403-19.131-.501-5.473-12.857 9.367-17.968 9.228-5.416-.16-14.995-9.315-15.354-14.392-.312-4.814 13.784-16.53 9.845-16.843-7.292-.603-14.837 1.716-20.409 6.94-6.462 6.056-8.77 14.558-6.883 22.384l-23.06 21.617c-3.887 3.643-2.004 8.612 4.147 14.378s11.101 7.86 15.338 3.888L196.728 86zM49.722 313.138c6.828 3.174 15.318 3.108 22.627-.863 6.28-3.412 10.361-9.01 11.622-15.064 1.034-4.826-13.767 5.555-18.201 4.427-4.695-1.207-10.613-11.003-9.562-15.459 1.022-4.219 16.505-11.559 13.143-12.606-6.218-1.959-13.443-1.444-19.722 1.969-7.282 3.957-11.588 10.845-12.042 17.976L11.598 307.64c-4.38 2.38-4.069 7.044-.238 13.237 3.83 6.193 7.598 8.978 12.373 6.383l25.989-14.122zM280.558 182.891c-8.115-1.71-16.914.384-23.227 6.302-5.425 5.085-7.864 11.944-7.225 18.61.479 5.321 12.514-9.123 17.483-8.994 5.265.15 14.566 9.039 14.908 13.975.297 4.679-13.425 16.088-9.595 16.388 7.089.577 14.429-1.687 19.853-6.772 6.291-5.897 8.547-14.166 6.723-21.773l22.451-21.046c3.784-3.546 1.96-8.375-4.013-13.974-5.972-5.599-10.782-7.629-14.907-3.761l-22.451 21.045zM639.654 677.861c-6.667-1.404-13.896.316-19.083 5.178-4.457 4.178-6.46 9.813-5.936 15.29.394 4.372 10.281-7.495 14.364-7.389 4.326.123 11.968 7.426 12.249 11.481.244 3.845-11.03 13.219-7.884 13.465 5.825.474 11.855-1.386 16.312-5.564 5.169-4.845 7.022-11.639 5.523-17.889l18.446-17.291c3.109-2.914 1.61-6.881-3.297-11.481s-8.858-6.268-12.248-3.091l-18.446 17.291zM922.354 564.769c-.115-2.657-1.628-5.19-4.266-6.618a8.992 8.992 0 00-7.179-.588c-1.828.618 4.312 3.06 4.705 4.606.412 1.639-1.891 5.297-3.596 5.838-1.618.505-6.84-2.726-6.607-1.517.423 2.241 1.867 4.308 4.133 5.534 2.628 1.423 5.734 1.39 8.247.155l9.379 5.076c1.581.855 3.117-.134 4.558-2.473 1.44-2.339 1.729-4.004.006-4.937l-9.38-5.076zM386.897 643.07c-2.635 2.679-3.787 6.506-2.707 10.284.928 3.246 3.32 5.774 6.347 7.089 2.409 1.061-1.015-6.879.202-8.734 1.295-1.963 7.306-3.414 9.517-2.39 2.089.98 3.809 8.852 4.833 7.469 1.906-2.555 2.643-5.868 1.715-9.114-1.076-3.765-4.119-6.553-7.829-7.638l-3.84-13.435c-.648-2.264-3.159-2.7-6.971-1.742-3.813.957-5.813 2.308-5.107 4.776l3.84 13.435zM667.364 534.306c1.977 1.708 4.801 2.455 7.59 1.755 2.396-.602 4.261-2.153 5.232-4.116.784-1.563-5.077.658-6.446-.131-1.449-.84-2.52-4.738-1.764-6.172.724-1.355 6.533-2.471 5.513-3.135a8.523 8.523 0 00-6.727-1.112c-2.779.698-4.836 2.671-5.637 5.077l-9.916 2.491c-1.671.42-1.993 2.048-1.287 4.521.707 2.473 1.704 3.77 3.526 3.312l9.916-2.49zM496.827 344.038c-3.265-4.835-8.989-8.028-15.542-8.028-5.63 0-10.692 2.373-14.051 6.143-2.697 2.994 11.544 1.352 14.051 3.836 2.65 2.639 2.555 11.776 0 14.504-2.436 2.572-15.873 1.818-14.051 3.837 3.359 3.747 8.421 6.143 14.051 6.143 6.529 0 12.277-3.194 15.542-8.028h23.3c3.927 0 5.654-3.394 5.654-9.204 0-5.81-1.372-9.203-5.654-9.203h-23.3zM485.227 591.305c3.051-3.304 4.28-7.933 2.835-12.424-1.242-3.86-4.21-6.806-7.892-8.277-2.93-1.188 1.491 8.211.106 10.478-1.474 2.398-8.622 4.349-11.314 3.199-2.544-1.103-4.92-10.479-6.092-8.786-2.183 3.13-2.935 7.128-1.693 10.987 1.44 4.476 5.199 7.711 9.691 8.883l5.139 15.972c.866 2.691 3.894 3.127 8.427 1.845 4.533-1.282 6.877-2.971 5.932-5.906l-5.139-15.971zM801.053 512.664c2.249-2.435 3.155-5.847 2.09-9.158-.916-2.845-3.103-5.017-5.818-6.101-2.16-.876 1.1 6.053.079 7.724-1.087 1.767-6.356 3.205-8.34 2.358-1.876-.813-3.627-7.725-4.491-6.476-1.609 2.306-2.164 5.254-1.248 8.099 1.061 3.299 3.832 5.684 7.143 6.547l3.789 11.774c.638 1.984 2.87 2.305 6.212 1.36 3.341-.945 5.069-2.19 4.373-4.353l-3.789-11.774zM817.442 659.464c4.032-4.365 5.655-10.48 3.745-16.414-1.64-5.099-5.561-8.991-10.425-10.935-3.872-1.569 1.969 10.848.14 13.843-1.948 3.168-11.392 5.745-14.947 4.227-3.362-1.457-6.5-13.845-8.049-11.607-2.884 4.134-3.877 9.416-2.237 14.515 1.903 5.912 6.869 10.187 12.803 11.735l6.79 21.1c1.144 3.556 5.145 4.132 11.133 2.438 5.988-1.693 9.085-3.924 7.837-7.802l-6.79-21.1zM241.733 627.871c5.988-12.196 5.379-26.599-3.004-38.256-7.202-10.015-18.666-15.885-30.889-16.879-9.744-.842 11.923 22.323 9.909 30.066-2.159 8.2-21.489 20.105-30.492 19.164-8.525-.935-24.128-25.834-26.041-19.927-3.582 10.928-2.142 23.098 5.06 33.114 8.352 11.614 22.42 17.621 36.759 17.04l29.807 41.45c5.024 6.986 14.366 5.574 26.581-2.103 12.216-7.678 17.594-14.602 12.117-22.219l-29.807-41.45zM494.483 471.24c3.873-6.668 4.126-14.88-.107-21.872-3.637-6.008-9.843-9.847-16.677-10.948-5.447-.906 5.783 13.209 4.33 17.521-1.554 4.565-12.92 10.482-17.945 9.552-4.757-.906-12.504-15.74-13.824-12.467-2.467 6.053-2.161 13.032 1.476 19.04 4.218 6.967 11.883 10.997 19.973 11.297l15.052 24.864c2.537 4.19 7.85 3.798 15.039-.029s10.501-7.526 7.735-12.095l-15.052-24.863z"/></g><path d="M210.49 82.954c12.011 2.717 25.027-.573 34.357-9.911a36.783 36.783 0 0010.651-29.39c-.72-8.407-18.497 14.39-25.851 14.177-7.792-.247-21.573-14.31-22.09-22.11-.449-7.394 19.831-25.393 14.164-25.874-10.491-.926-21.347 2.638-29.364 10.661-9.296 9.305-12.617 22.365-9.902 34.387l-33.178 33.207c-5.591 5.596-2.882 13.23 5.968 22.087 8.849 8.857 15.971 12.074 22.067 5.972l33.178-33.206zM113.295 172.112c1.915-9.416-.868-19.521-8.3-26.656a28.669 28.669 0 00-23.075-7.854c-6.537.693 11.522 14.21 11.48 19.952-.061 6.084-10.784 17.058-16.85 17.583-5.753.466-20.117-15.08-20.396-10.65-.544 8.202 2.415 16.618 8.8 22.748 7.406 7.11 17.636 9.498 26.955 7.191l26.428 25.373c4.454 4.276 10.355 2.043 17.106-5.001 6.751-7.044 9.137-12.652 4.28-17.314l-26.428-25.372z" fill="#C960FF"/><path d="M196.847 215.719c-12.675 3.959-23.056 14.079-26.745 27.859-3.17 11.84-.701 23.913 5.858 33.244 5.193 7.471 9.532-23.464 16.512-27.244 7.407-3.986 27.835 1.706 32.511 8.719 4.395 6.67-4.86 34.474.689 31.857 10.292-4.811 18.512-14.018 21.681-25.858 3.676-13.731-.246-27.74-9.245-37.511l13.119-49.003c2.211-8.259-4.423-13.93-17.447-17.423-13.025-3.493-21.403-2.647-23.814 6.357l-13.119 49.003z" fill="#DB99FD"/><path d="M113.345 569.124c11.048-.472 21.587-6.404 27.541-16.726 5.115-8.868 5.749-19.134 2.499-28.066-2.554-7.14-12.75 16.876-19.181 18.427-6.818 1.624-22.005-7.351-24.243-14.01-2.087-6.323 11.382-26.758 6.354-25.839a33.383 33.383 0 00-23.036 16.2c-5.932 10.284-5.817 22.423-.702 32.235l-21.171 36.702c-3.568 6.185.534 12.182 10.247 17.795 9.712 5.612 16.63 6.729 20.52-.016l21.172-36.702zM226.309 376.194c6.822-7.407 9.805-17.988 7.008-28.434a30.127 30.127 0 00-16.435-19.601c-6.238-2.935 2.628 19.019-.522 24.148-3.353 5.427-18.919 9.439-24.644 6.61-5.411-2.712-9.864-24.476-12.516-20.652-4.935 7.062-6.844 16.224-4.441 25.199 2.786 10.408 10.666 18.117 20.274 21.118l9.944 37.145c1.676 6.26 8.178 7.467 18.051 4.819 9.873-2.647 15.053-6.381 13.225-13.207l-9.944-37.145zM315.84 320.079c10.144 2.282 21.143-.512 29.035-8.412a31.147 31.147 0 009.031-24.839c-.599-7.101-15.642 12.177-21.854 12.005-6.582-.2-18.208-12.064-18.636-18.652-.371-6.246 16.781-21.474 11.994-21.873-8.861-.771-18.036 2.252-24.817 9.039-7.864 7.87-10.684 18.907-8.404 29.06l-28.064 28.089c-4.73 4.734-2.45 11.179 5.016 18.651 7.466 7.473 13.478 10.182 18.635 5.021l28.064-28.089z" fill="#C960FF"/><path d="M307.365 408.057c-11.675-2.627-24.333.589-33.417 9.681a35.846 35.846 0 00-10.394 28.589c.689 8.173 18.003-14.015 25.153-13.818 7.575.231 20.956 13.886 21.449 21.468.427 7.189-19.315 24.716-13.805 25.175 10.199.887 20.759-2.591 28.563-10.403 9.051-9.059 12.297-21.761 9.673-33.447l32.301-32.329c5.444-5.449 2.819-12.867-5.773-21.467-8.593-8.601-15.513-11.719-21.449-5.779l-32.301 32.33z" fill="#DB99FD"/><path d="M431.661 525.724c8.567 1.927 17.857-.433 24.523-7.105a26.305 26.305 0 007.628-20.98c-.506-5.998-13.212 10.285-18.459 10.14-5.559-.169-15.379-10.19-15.74-15.754-.313-5.276 14.174-18.138 10.131-18.475-7.485-.651-15.234 1.902-20.962 7.634-6.642 6.648-9.024 15.97-7.098 24.546l-23.705 23.725c-3.994 3.998-2.069 9.442 4.237 15.754 6.306 6.311 11.384 8.6 15.74 4.24l23.705-23.725z" fill="#C960FF"/><path d="M545.845 442.77c-9.592-2.158-19.993.484-27.456 7.954a29.454 29.454 0 00-8.54 23.489c.567 6.715 14.792-11.515 20.666-11.353 6.224.189 17.218 11.409 17.623 17.639.35 5.906-15.869 20.306-11.343 20.683 8.38.729 17.056-2.129 23.468-8.547 7.437-7.443 10.104-17.879 7.947-27.48l26.539-26.562c4.472-4.476 2.317-10.571-4.743-17.637-7.06-7.067-12.746-9.629-17.622-4.748l-26.539 26.562z" fill="#EBBFFF"/><path d="M455.689 400.895c-.265-6.511-3.736-12.716-9.789-16.214a19.46 19.46 0 00-16.475-1.441c-4.194 1.513 9.894 7.496 10.797 11.284.946 4.017-4.34 12.979-8.252 14.305-3.714 1.237-15.697-6.679-15.163-3.716a19.581 19.581 0 009.485 13.56c6.031 3.485 13.158 3.403 18.924.377l21.524 12.438c3.628 2.096 7.153-.329 10.459-6.059 3.306-5.731 3.969-9.81.014-12.096l-21.524-12.438z" fill="#C960FF"/><path d="M838.367 564.191c-.166-4.082-2.342-7.972-6.137-10.165a12.203 12.203 0 00-10.329-.904c-2.63.949 6.203 4.7 6.769 7.075.593 2.519-2.721 8.137-5.174 8.969-2.328.775-9.841-4.188-9.506-2.33a12.27 12.27 0 005.947 8.501 12.272 12.272 0 0011.864.237l13.495 7.798c2.274 1.314 4.485-.206 6.557-3.799 2.073-3.593 2.489-6.151.009-7.584l-13.495-7.798z" fill="#DB99FD"/><path d="M594.285 551.543c-3.79 4.116-5.448 9.995-3.894 15.799a16.743 16.743 0 009.131 10.89c3.466 1.63-1.46-10.567.29-13.417 1.864-3.015 10.512-5.244 13.693-3.672 3.006 1.507 5.48 13.598 6.954 11.474a16.829 16.829 0 002.467-14.001c-1.548-5.783-5.926-10.065-11.264-11.733l-5.525-20.638c-.931-3.478-4.544-4.148-10.029-2.677-5.486 1.471-8.363 3.545-7.348 7.338l5.525 20.637zM731.664 575.168c2.845 2.624 6.909 3.772 10.921 2.696a11.575 11.575 0 007.527-6.323c1.128-2.4-7.304 1.011-9.274-.201-2.084-1.29-3.625-7.279-2.538-9.482 1.041-2.081 9.4-3.795 7.931-4.815a11.614 11.614 0 00-9.678-1.709 11.646 11.646 0 00-8.11 7.8l-14.266 3.826c-2.405.645-2.868 3.147-1.851 6.945 1.017 3.799 2.451 5.792 5.072 5.089l14.266-3.826zM676.608 536.679c.158 3.869 2.22 7.556 5.817 9.635a11.567 11.567 0 009.791.857c2.492-.9-5.88-4.455-6.417-6.706-.562-2.388 2.58-7.713 4.904-8.501 2.207-.735 9.328 3.969 9.011 2.208a11.634 11.634 0 00-5.637-8.058 11.632 11.632 0 00-11.245-.224l-12.791-7.391c-2.155-1.246-4.251.195-6.215 3.601-1.965 3.405-2.359 5.829-.008 7.187l12.79 7.392zM688.3 623.987c.164-8.785-4.016-17.413-11.889-22.599a26.263 26.263 0 00-22.073-3.24c-5.77 1.707 12.726 10.872 13.64 16.043.953 5.482-6.881 17.129-12.256 18.606-5.101 1.372-20.608-10.229-20.125-6.199.869 7.467 4.927 14.546 11.692 19.002 7.844 5.167 17.449 5.619 25.457 2.001l27.995 18.441c4.718 3.108 9.66.121 14.57-7.333 4.91-7.453 6.129-12.892.985-16.281L688.3 623.987zM537.619 605.081c4.39-5.076 6.158-12.186 4.078-19.086a20.073 20.073 0 00-11.353-12.714c-4.216-1.825 2.145 12.614.153 16.096-2.122 3.684-12.406 6.68-16.279 4.914-3.66-1.694-7.078-16.098-8.765-13.496a20.184 20.184 0 00-2.435 16.878c2.072 6.875 7.48 11.846 13.942 13.645l7.394 24.536c1.247 4.135 5.603 4.803 12.124 2.834 6.521-1.968 9.894-4.563 8.535-9.071l-7.394-24.536z" fill="#C960FF"/><path d="M153.179 422.107c-.833-20.465-11.743-39.97-30.769-50.964-16.346-9.446-35.288-10.583-51.783-4.531-13.184 4.757 31.098 23.562 33.937 35.469 2.973 12.627-13.642 40.794-25.938 44.964-11.674 3.888-49.338-20.993-47.659-11.681 3.051 17.255 13.466 33.174 29.813 42.62 18.957 10.954 41.357 10.698 59.482 1.187l67.653 39.094c11.401 6.589 22.483-1.033 32.874-19.046 10.39-18.013 12.475-30.834.043-38.018l-67.653-39.094z" fill="#EBBFFF"/><path d="M89.068 310.771c11.061 5.865 24.661 6.101 36.22-.578 9.931-5.739 16.259-15.411 18.049-26.003 1.474-8.441-21.847 9.195-28.994 7.028-7.568-2.317-17.422-19.785-15.907-27.576 1.476-7.375 26.005-19.637 20.578-21.617-10.036-3.702-21.592-3.096-31.523 2.643-11.517 6.655-18.155 18.586-18.611 31.106l-41.102 23.751c-6.927 4.003-6.252 12.214.12 23.262 6.373 11.047 12.515 16.1 20.068 11.735l41.102-23.751zM304.107 577.947c10.522-20.148 10.82-44.989-1.396-66.166-10.495-18.195-28.085-29.845-47.298-33.217-15.313-2.773 16.873 39.993 13.015 53.028-4.126 13.801-35.691 31.634-49.825 28.792-13.379-2.768-35.838-47.689-39.375-37.796-6.613 18.296-5.404 39.411 5.092 57.607 12.172 21.1 33.859 33.338 56.553 34.292l43.439 75.304c7.321 12.691 22.197 11.537 42.157.002 19.961-11.534 29.059-22.704 21.077-36.542l-43.439-75.304z" fill="#C960FF"/><defs><filter id="filter0_f"><feGaussianBlur stdDeviation=".5"/></filter></defs></svg>