<svg fill="#FFF" xmlns="http://www.w3.org/2000/svg" viewBox="2 2 45 45" width="100" height="100"><path d="M42.298 11.65a5.963 5.963 0 0 0-2.768-2.256c-2.464-.988-4.583-1.648-6.479-2.02-1.33-.26-2.647.394-3.28 1.626l-.158.308c-1.404-.155-2.895-.207-4.593-.164-1.741-.042-3.237.009-4.643.164L20.22 9c-.633-1.232-1.952-1.885-3.279-1.625-1.896.371-4.016 1.031-6.479 2.02a5.967 5.967 0 0 0-2.768 2.256c-4.721 7.131-6.571 14.823-5.655 23.517a.998.998 0 0 0 .461.741c3.632 2.29 6.775 3.858 9.891 4.936 1.303.455 2.748-.054 3.517-1.229l1.371-2.101a22.27 22.27 0 0 1-3.18-1.483 1 1 0 0 1 .991-1.736c3.041 1.734 6.479 2.651 9.942 2.651s6.901-.917 9.942-2.651a1 1 0 0 1 .991 1.736 22.127 22.127 0 0 1-3.291 1.524l1.411 2.102a3.053 3.053 0 0 0 2.528 1.357c.322 0 .647-.053.963-.161 3.125-1.079 6.274-2.649 9.914-4.944a1 1 0 0 0 .461-.741c.918-8.695-.932-16.388-5.653-23.519zm-23.69 17.333c-1.926 0-3.511-2.029-3.511-4.495s1.585-4.495 3.511-4.495 3.511 2.029 3.511 4.495-1.585 4.495-3.511 4.495zm12.993-.026c-1.908 0-3.478-2.041-3.478-4.522s1.57-4.522 3.478-4.522c1.908 0 3.478 2.041 3.478 4.522s-1.57 4.522-3.478 4.522z"/></svg>