<svg width="33" height="33" fill="none" xmlns="http://www.w3.org/2000/svg"><path d="M16.5 0C7.386 0 0 7.408 0 16.548c0 7.317 4.73 13.51 11.28 15.708.824.155 1.12-.362 1.12-.802 0-.4-.012-1.694-.025-3.077-4.576.996-5.543-1.952-5.543-1.952-.748-1.913-1.83-2.418-1.83-2.418-1.496-1.02.116-1.008.116-1.008 1.662.117 2.526 1.707 2.526 1.707 1.47 2.534 3.854 1.797 4.796 1.37.141-1.073.58-1.797 1.044-2.21-3.661-.414-7.516-1.837-7.516-8.184 0-1.81.645-3.284 1.702-4.447-.168-.414-.735-2.095.155-4.383 0 0 1.379-.44 4.537 1.693a15.716 15.716 0 014.125-.555c1.405 0 2.81.194 4.138.555 3.145-2.146 4.538-1.693 4.538-1.693.902 2.275.335 3.969.167 4.383 1.057 1.163 1.702 2.637 1.702 4.447 0 6.36-3.855 7.757-7.529 8.17.593.517 1.122 1.526 1.122 3.064 0 2.211-.013 3.995-.013 4.538 0 .44.297.957 1.135.789C28.282 30.058 33 23.853 33 16.548 33 7.408 25.614 0 16.5 0zM6.175 23.568c-.04.077-.168.103-.284.052-.116-.052-.18-.168-.142-.246.039-.09.168-.103.284-.052.116.052.193.168.142.246zm.812.737c-.078.077-.232.039-.335-.078-.104-.116-.13-.271-.052-.349.077-.077.232-.038.335.078.116.116.142.271.052.349zm.567.918c-.103.064-.27 0-.374-.142-.103-.143-.103-.324 0-.401.103-.065.27-.013.374.142.103.155.103.336 0 .4zm.94 1.086c-.09.103-.283.077-.424-.065-.142-.13-.18-.323-.09-.427.09-.103.283-.077.425.065.141.13.18.323.09.427zm1.213.362c-.039.129-.22.194-.413.129-.18-.052-.31-.207-.27-.336.038-.13.219-.194.412-.13.193.052.31.207.27.337zm1.379.155c0 .142-.155.245-.348.258-.194 0-.361-.103-.361-.245 0-.142.155-.246.348-.259.206 0 .36.104.36.246zm1.366-.052c.026.13-.116.272-.309.31-.193.04-.374-.051-.4-.18-.025-.143.116-.272.31-.31.206-.04.374.038.4.18z" fill="#fff"/></svg>