<svg width="1440" height="53" fill="none" xmlns="http://www.w3.org/2000/svg"><path d="M311.4 2.51L299.57 52h-14.84l-7.91-33.11L268.84 52H254L242.17 2.51h13.02l6.37 35.84 8.68-35.84h13.09l8.68 35.84 6.44-35.84h12.95zm31.065 10.01c4.48 0 8.026 1.493 10.64 4.48 2.66 2.987 3.99 7.093 3.99 12.32V52h-11.97V30.72c0-2.613-.7-4.643-2.1-6.09-1.354-1.493-3.174-2.24-5.46-2.24-2.427 0-4.364.77-5.81 2.31-1.4 1.54-2.1 3.733-2.1 6.58V52h-11.97V.2h11.97v19.88c1.12-2.333 2.776-4.177 4.97-5.53 2.24-1.353 4.853-2.03 7.84-2.03zm40.794-.07c3.874 0 7.327.817 10.36 2.45 3.08 1.587 5.484 3.897 7.21 6.93 1.774 3.033 2.66 6.58 2.66 10.64 0 4.06-.886 7.607-2.66 10.64-1.726 3.033-4.13 5.367-7.21 7-3.033 1.587-6.486 2.38-10.36 2.38-3.873 0-7.35-.793-10.43-2.38-3.08-1.633-5.506-3.967-7.28-7-1.726-3.033-2.59-6.58-2.59-10.64 0-4.06.864-7.607 2.59-10.64 1.774-3.033 4.2-5.343 7.28-6.93 3.08-1.633 6.557-2.45 10.43-2.45zm0 10.36c-2.286 0-4.223.84-5.81 2.52-1.54 1.633-2.31 4.013-2.31 7.14s.77 5.507 2.31 7.14c1.587 1.633 3.524 2.45 5.81 2.45 2.287 0 4.2-.817 5.74-2.45 1.54-1.633 2.31-4.013 2.31-7.14s-.77-5.507-2.31-7.14c-1.54-1.68-3.453-2.52-5.74-2.52zM490.98 2.51L479.15 52h-14.84l-7.91-33.11L448.42 52h-14.84L421.75 2.51h13.02l6.37 35.84 8.68-35.84h13.09l8.68 35.84 6.44-35.84h12.95zm43.385 28.91c0 .98-.117 2.053-.35 3.22h-27.09c.14 2.94.886 5.063 2.24 6.37 1.353 1.26 3.08 1.89 5.18 1.89 1.773 0 3.243-.443 4.41-1.33 1.166-.887 1.936-2.03 2.31-3.43h12.67a16.815 16.815 0 01-3.36 7.42c-1.727 2.147-3.92 3.85-6.58 5.11-2.66 1.213-5.624 1.82-8.89 1.82-3.827 0-7.234-.793-10.22-2.38-2.94-1.633-5.25-3.967-6.93-7-1.68-3.033-2.52-6.58-2.52-10.64 0-4.107.816-7.653 2.45-10.64 1.68-3.033 4.013-5.343 7-6.93 2.986-1.633 6.393-2.45 10.22-2.45 3.873 0 7.28.793 10.22 2.38 2.94 1.587 5.203 3.827 6.79 6.72 1.633 2.847 2.45 6.137 2.45 9.87zm-12.11-1.82c.046-2.567-.654-4.48-2.1-5.74-1.4-1.307-3.15-1.96-5.25-1.96-2.194 0-4.014.653-5.46 1.96-1.447 1.307-2.264 3.22-2.45 5.74h15.26zm63.023 13.37h-18.55l-3.08 9.03h-12.6l18.13-49.14h13.79L601.098 52h-12.74l-3.08-9.03zm-3.08-9.1l-6.16-18.2-6.23 18.2h12.39zm35.523-13.58c1.493-2.38 3.407-4.27 5.74-5.67 2.38-1.4 4.947-2.1 7.7-2.1v12.81h-3.43c-3.173 0-5.647.677-7.42 2.03-1.727 1.353-2.59 3.64-2.59 6.86V52h-11.97V12.94h11.97v7.35zm55.55 11.13c0 .98-.117 2.053-.35 3.22h-27.09c.14 2.94.887 5.063 2.24 6.37 1.353 1.26 3.08 1.89 5.18 1.89 1.773 0 3.243-.443 4.41-1.33 1.167-.887 1.937-2.03 2.31-3.43h12.67a16.793 16.793 0 01-3.36 7.42c-1.727 2.147-3.92 3.85-6.58 5.11-2.66 1.213-5.623 1.82-8.89 1.82-3.827 0-7.233-.793-10.22-2.38-2.94-1.633-5.25-3.967-6.93-7-1.68-3.033-2.52-6.58-2.52-10.64 0-4.107.817-7.653 2.45-10.64 1.68-3.033 4.013-5.343 7-6.93 2.987-1.633 6.393-2.45 10.22-2.45 3.873 0 7.28.793 10.22 2.38 2.94 1.587 5.203 3.827 6.79 6.72 1.633 2.847 2.45 6.137 2.45 9.87zm-12.11-1.82c.047-2.567-.653-4.48-2.1-5.74-1.4-1.307-3.15-1.96-5.25-1.96-2.193 0-4.013.653-5.46 1.96s-2.263 3.22-2.45 5.74h15.26z" fill="#352A3A"/><path fill="#C960FF" d="M950 2h34v15h-34zM1201 2h50v50h-50z"/><path fill="#DB99FD" stroke="#DB99FD" stroke-width="3" d="M1001.5 3.5h191v47h-191z"/><path fill="#C960FF" d="M707 2h97v50h-97zM950 2h34v50h-34z"/><path fill="#A44BD1" d="M1292 2h148v50h-148z"/><path fill="#DB99FD" d="M142 2h49v50h-49z"/><path fill="#A44BD1" d="M861 2h75v50h-75z"/><path fill="#C960FF" d="M0 2h94v50H0z"/></svg>