<svg xmlns="http://www.w3.org/2000/svg" width="671.787" height="671.787"><g fill="#fff"><path d="M335.895-.001c-91.224 0-102.663.386-138.49 2.021-35.752 1.63-60.169 7.31-81.535 15.612-22.088 8.584-40.82 20.07-59.493 38.743-18.674 18.673-30.16 37.406-38.743 59.494C9.33 137.235 3.653 161.652 2.02 197.404.386 233.231 0 244.669 0 335.894c0 91.222.386 102.66 2.02 138.487 1.633 35.752 7.31 60.17 15.614 81.535 8.584 22.088 20.07 40.82 38.743 59.495 18.674 18.673 37.405 30.158 59.493 38.742 21.366 8.303 45.783 13.982 81.535 15.612 35.827 1.635 47.266 2.022 138.49 2.022 91.222 0 102.661-.387 138.488-2.022 35.752-1.63 60.169-7.31 81.534-15.612 22.088-8.584 40.82-20.069 59.495-38.742 18.673-18.675 30.159-37.407 38.743-59.495 8.302-21.365 13.981-45.783 15.612-81.535 1.634-35.826 2.021-47.265 2.021-138.488 0-91.224-.387-102.662-2.021-138.489-1.631-35.752-7.31-60.17-15.612-81.535-8.584-22.088-20.07-40.821-38.743-59.494-18.675-18.674-37.407-30.159-59.495-38.743-21.365-8.303-45.782-13.981-81.534-15.612C438.556.385 427.117-.001 335.895-.001zm0 60.521c89.686 0 100.31.343 135.729 1.959 32.75 1.493 50.535 6.965 62.37 11.565 15.68 6.093 26.869 13.372 38.622 25.125 11.755 11.755 19.033 22.944 25.127 38.623 4.6 11.836 10.072 29.621 11.565 62.37 1.616 35.42 1.959 46.043 1.959 135.731 0 89.687-.343 100.311-1.959 135.73-1.493 32.749-6.965 50.534-11.565 62.37-6.094 15.68-13.372 26.868-25.127 38.622-11.753 11.754-22.943 19.033-38.621 25.126-11.836 4.6-29.622 10.072-62.371 11.565-35.413 1.617-46.036 1.96-135.73 1.96-89.694 0-100.315-.343-135.73-1.96-32.75-1.493-50.535-6.965-62.37-11.565-15.68-6.093-26.869-13.372-38.622-25.126-11.754-11.754-19.033-22.943-25.127-38.622-4.6-11.836-10.071-29.621-11.565-62.37-1.616-35.419-1.959-46.043-1.959-135.73 0-89.688.343-100.312 1.959-135.73 1.494-32.75 6.965-50.535 11.565-62.371 6.094-15.679 13.373-26.868 25.126-38.621 11.754-11.755 22.944-19.034 38.622-25.127 11.836-4.6 29.622-10.072 62.371-11.565 35.419-1.616 46.043-1.959 135.73-1.959"/><path d="M335.895 447.857c-61.838 0-111.966-50.128-111.966-111.964 0-61.837 50.128-111.965 111.966-111.965 61.836 0 111.964 50.128 111.964 111.965 0 61.836-50.128 111.964-111.964 111.964zm0-284.45c-95.263 0-172.487 77.224-172.487 172.486 0 95.262 77.224 172.486 172.487 172.486 95.261 0 172.485-77.224 172.485-172.486 0-95.262-77.224-172.486-172.485-172.486M555.503 156.592c0 22.261-18.047 40.307-40.308 40.307-22.26 0-40.307-18.046-40.307-40.307 0-22.261 18.047-40.308 40.307-40.308 22.261 0 40.308 18.047 40.308 40.308"/></g></svg>