<svg xmlns="http://www.w3.org/2000/svg" viewBox="0 0 1582.93 333.73"><defs><linearGradient id="linear-gradient" x1="1031.25" y1="38.63" x2="1588.49" y2="277.95" gradientTransform="matrix(1 0 0 -1 0 340.76)" gradientUnits="userSpaceOnUse"><stop offset="0" stop-color="#ff56da"/><stop offset=".12" stop-color="#ff55d3"/><stop offset=".3" stop-color="#ff52be"/><stop offset=".52" stop-color="#ff4c9d"/><stop offset=".77" stop-color="#ff456f"/><stop offset="1" stop-color="#ff3d3d"/></linearGradient><filter id="luminosity-invert" filterUnits="userSpaceOnUse" color-interpolation-filters="sRGB"><feColorMatrix values="-1 0 0 0 1 0 -1 0 0 1 0 0 -1 0 1 0 0 0 1 0"/></filter><style>.cls-1{fill-rule:evenodd}.cls-2{fill:#c960ff}.cls-3{fill:#fff}</style><mask id="mask" x="1018.87" y="49.88" width="564.06" height="272.9" maskUnits="userSpaceOnUse"><g filter="url(#luminosity-invert)"><path d="M1259.87 106.73h36v125.95h-36z"/><path class="cls-1" d="M1223.32 234.69c37.53 0 64.48-32.2 64.48-65 0-31-26.77-65-64.48-65-36.07 0-63.45 29.1-63.45 65s27.38 65 63.45 65zm4-32.86c18.49 0 32.6-13.77 32.6-32.14s-14.11-32.15-32.6-32.15-32.82 14.4-32.82 32.15 14.28 32.14 32.77 32.14zM1436.48 141.84l-33 15.31c-4.2-9.47-13.07-17.1-25.06-17.1-17 0-30.25 13.27-30.25 29.64s13.2 29.63 30.25 29.63c12.27 0 21.26-6.86 25.35-16.81l32.92 15.49c-10.1 21.71-31.79 36.67-58.82 36.67a64.68 64.68 0 01-65-65c0-35.9 29.9-65 65-65 25.35.02 47.99 15.2 58.61 37.17z"/><path d="M1018.87 50.86h36v181.78h-36zM1106.05 163.4l36-8.91v78.27h-36z"/><path d="M1089.75 104.51c34.9 0 52.3 24.41 52.3 50l-36 10.67c0-13.43-7.74-25-25.27-25-17.81 0-25.91 13-25.91 25L1044 149.07c-6-12.37 10.74-44.56 45.75-44.56zM1459.87 50.86h36v181.83h-36z"/><path d="M1534.15 108.69h47.72l-93 99.25-26.87-17.4z"/><path d="M1538.61 232.87h44.32l-66.06-84.18-27 21.71z"/></g></mask></defs><g id="Layer_2" data-name="Layer 2"><g id="Layer_1-2" data-name="Layer 1"><path d="M512.86 106.9h36v125.95h-36z"/><path class="cls-1" d="M476.31 234.85c37.54 0 64.49-32.19 64.49-65 0-31-26.77-65-64.49-65-36.06 0-63.45 29.1-63.45 65s27.39 65 63.45 65zm4-32.85c18.49 0 32.59-13.78 32.59-32.15s-14.1-32.14-32.59-32.14-32.82 14.39-32.82 32.14S461.77 202 480.27 202zM693.48 142l-33 15.31c-4.2-9.47-13.07-17.09-25.06-17.09-17.05 0-30.25 13.27-30.25 29.63s13.2 29.64 30.25 29.64c12.26 0 21.26-6.87 25.34-16.82l32.9 15.52c-10.11 21.7-31.79 36.66-58.83 36.66a64.68 64.68 0 01-65-65c0-35.9 29.9-65 65-65 25.39.01 48.03 15.2 58.65 37.15z"/><path d="M713.86 106.87h36v126h-36zM793.86 155.87l36-3v80h-36zM873.86 155.87l36-3v80h-36z"/><path d="M782.13 104.86c31.85 0 47.73 24.41 47.73 50l-36 6.7c0-11.07-10-21-22-21s-22 10.34-22 22.34l-9.53-13.46c-3.75-8.91 9.85-44.58 41.8-44.58z"/><path d="M862.13 104.86c31.85 0 47.73 24.41 47.73 50l-36 6.7c0-11.07-10-21-22-21s-22 10.34-22 22.34l-9.53-13.46c-3.75-8.91 9.85-44.58 41.8-44.58z"/><path d="M862.13 104.86c31.86 0 47.73 24.41 47.73 50l-36 3c0-11.06-10-20-22-20s-22 8-22 20l-18-19c8-18 18.32-34 50.27-34z"/><circle cx="965.32" cy="209.32" r="23.45" transform="rotate(-70.67 965.315 209.317)"/><rect class="cls-2" x="25.44" y="25.44" width="282.84" height="282.84" rx="80" transform="rotate(-45 166.858 166.865)"/><path class="cls-3" d="M190.37 254.1c0 10.21-10.54 14.76-23.54 14.76s-23.54-4.55-23.54-14.76c0-9.17 5-.6 23.54-.6s23.54-8.09 23.54.6zM203.71 219c0 19.54-16.3 27.86-36.38 27.86S131 236.84 131 219c0-27.57-28.73-37.25-28.73-77.18a65.11 65.11 0 01130.22 0c-.05 43.07-28.78 53.54-28.78 77.18z"/><path class="cls-2" d="M182.61 182.64a29.19 29.19 0 003.23-47.24c-5.13-4.3-2.32 18.43-6.58 22.43-4.52 4.23-20.19 4.08-24.87 0-4.41-3.89-3.12-25.33-6.58-22.43a29.2 29.2 0 003.24 47.24v37.2c0 6.27 5.81 9 15.78 9s15.78-2.19 15.78-9z"/><g mask="url(#mask)"><path fill="url(#linear-gradient)" d="M1018.87 49.88h564.06v272.9h-564.06z"/></g></g></g></svg>