<svg id="Layer_1" data-name="Layer 1" xmlns="http://www.w3.org/2000/svg" xmlns:xlink="http://www.w3.org/1999/xlink" viewBox="0 0 1582.39 333.73"><defs><linearGradient id="linear-gradient" x1="1361.63" y1="434.3" x2="1200.32" y2="122.65" gradientTransform="matrix(1 0 0 -1 0 398)" gradientUnits="userSpaceOnUse"><stop offset="0" stop-color="#ff5f96"/><stop offset="1" stop-color="#bd00ff"/></linearGradient><linearGradient id="linear-gradient-2" x1="1470.66" y1="377.87" x2="1309.35" y2="66.22" xlink:href="#linear-gradient"/><linearGradient id="linear-gradient-3" x1="1224.51" y1="505.27" x2="1063.21" y2="193.62" xlink:href="#linear-gradient"/><linearGradient id="linear-gradient-4" x1="1572.1" y1="325.37" x2="1410.8" y2="13.72" gradientTransform="matrix(1 0 0 -1 .2 368.36)" xlink:href="#linear-gradient"/><style>.cls-1{fill-rule:evenodd}.cls-2{fill:#c960ff}.cls-3{fill:#fff}</style></defs><path d="M512.86 106.9h36v125.95h-36z"/><path class="cls-1" d="M476.11 264.49c37.54 0 64.49-32.19 64.49-65 0-31-26.77-65-64.49-65-36.07 0-63.45 29.1-63.45 65s27.34 65 63.45 65Zm3.95-32.86c18.5 0 32.6-13.77 32.6-32.14s-14.1-32.14-32.6-32.14-32.81 14.39-32.81 32.14 14.32 32.14 32.81 32.14ZM693.27 171.65l-33 15.31c-4.21-9.47-13.07-17.09-25.07-17.09-17 0-30.25 13.27-30.25 29.63s13.21 29.64 30.25 29.64c12.27 0 21.27-6.87 25.35-16.82l32.9 15.52c-10.11 21.7-31.8 36.66-58.83 36.66a64.68 64.68 0 0 1-65-65c0-35.9 29.9-65 65-65 25.38 0 48.04 15.19 58.65 37.15Z" transform="translate(.2 -29.64)"/><path d="M713.86 106.87h36v126h-36z"/><path d="m793.66 185.51 36-3v80h-36ZM873.66 185.51l36-3v80h-36Z" transform="translate(.2 -29.64)"/><path d="M781.92 134.5c31.86 0 47.74 24.41 47.74 50l-36 6.7c0-11.07-10-21-22-21s-22 10.34-22 22.34l-9.54-13.46c-3.75-8.91 9.88-44.58 41.8-44.58Z" transform="translate(.2 -29.64)"/><path d="M861.92 134.5c31.86 0 47.74 24.41 47.74 50l-36 6.7c0-11.07-10-21-22-21s-22 10.34-22 22.34l-9.54-13.46c-3.75-8.91 9.88-44.58 41.8-44.58Z" transform="translate(.2 -29.64)"/><path d="M861.92 134.5c31.86 0 47.74 24.41 47.74 50l-36 3c0-11.06-10-20-22-20s-22 8-22 20l-18-19c8-18 18.34-34 50.26-34Z" transform="translate(.2 -29.64)"/><circle cx="965.32" cy="209.32" r="23.45"/><rect class="cls-2" x="25.24" y="55.08" width="282.84" height="282.84" rx="80" transform="rotate(-45 130.983 181.435)"/><path class="cls-3" d="M190.16 283.74c0 10.21-10.53 14.76-23.53 14.76s-23.54-4.55-23.54-14.76c0-9.17 5-.6 23.54-.6s23.53-8.09 23.53.6ZM203.51 248.64c0 19.54-16.3 27.86-36.38 27.86s-36.38-10-36.38-27.86c0-27.57-28.73-37.25-28.73-77.18a65.11 65.11 0 0 1 130.21 0c0 43.07-28.72 53.54-28.72 77.18Z" transform="translate(.2 -29.64)"/><path class="cls-2" d="M182.41 212.28a29.2 29.2 0 0 0 3.23-47.28c-5.13-4.3-2.32 18.43-6.58 22.43-4.52 4.23-20.19 4.08-24.87 0-4.41-3.89-3.12-25.34-6.58-22.43a29.2 29.2 0 0 0 3.23 47.24v37.2c0 6.27 5.82 9 15.79 9s15.78-2.19 15.78-9Z" transform="translate(.2 -29.64)"/><path d="M1259.66 146.42a61.43 61.43 0 0 0-36.55-12.09c-36.06 0-63.45 29.1-63.45 65s27.39 65 63.45 65a62.45 62.45 0 0 0 36.55-11.68v9.68h36V136.38h-36Zm-32.6 85.05c-18.49 0-32.81-14.39-32.81-32.14s14.32-32.15 32.81-32.15 32.6 13.78 32.6 32.15-14.1 32.14-32.6 32.14Z" transform="translate(.2 -29.64)" style="fill:url(#linear-gradient)"/><path d="M1378.25 229c-17 0-30.26-13.26-30.26-29.63s13.21-29.64 30.26-29.64c12 0 20.85 7.63 25.06 17.1l33-15.31c-10.62-22-33.26-37.15-58.62-37.15-35.1 0-65 29.1-65 65a64.68 64.68 0 0 0 65 65c27 0 48.72-15 58.83-36.67l-32.9-15.51c-4.11 9.91-13.11 16.81-25.37 16.81Z" transform="translate(.2 -29.64)" style="fill:url(#linear-gradient-2)"/><path d="M1089.55 134.15a48.77 48.77 0 0 0-34.89 13.92V80.5h-36v181.79h36v-67.47c0-12 8.11-25 25.92-25 17.53 0 25.27 11.57 25.27 25v67.58h36v-78.27c-.01-25.58-17.41-49.98-52.3-49.98Z" transform="translate(.2 -29.64)" style="fill:url(#linear-gradient-3)"/><path style="fill:url(#linear-gradient-4)" d="M1581.86 108.69h-47.71l-38.29 43.45V50.86h-36v181.83h36v-32.22l9.53-10.17 33.22 42.57h43.78v-.69l-52.99-67.51 52.46-55.98z"/></svg>