<svg width="499" height="801" fill="none" xmlns="http://www.w3.org/2000/svg"><g opacity=".09" fill-rule="evenodd" clip-rule="evenodd"><path d="M453.299 98.5c0 7.456-6.044 13.5-13.5 13.5H358.5c-7.456 0-13.5-6.044-13.5-13.5S351.044 85 358.5 85h81.299c7.456 0 13.5 6.044 13.5 13.5ZM221.792 653.913c0 7.456-6.045 13.5-13.501 13.5H36.944c-7.456 0-13.5-6.044-13.5-13.5s6.044-13.5 13.5-13.5H208.29c7.456 0 13.501 6.044 13.501 13.5ZM263.565 502.324c0 7.456-6.044 13.5-13.5 13.5h-45.49c-7.456 0-13.5-6.044-13.5-13.5s6.044-13.5 13.5-13.5h45.49c7.456 0 13.5 6.044 13.5 13.5ZM427.096 401.266c0 7.455-6.044 13.5-13.5 13.5H242.248c-7.456 0-13.5-6.045-13.5-13.5 0-7.456 6.044-13.5 13.5-13.5h171.348c7.456 0 13.5 6.044 13.5 13.5ZM191.075 350.735c0 7.456-6.044 13.5-13.5 13.5h-65.872c-7.456 0-13.5-6.044-13.5-13.5s6.044-13.5 13.5-13.5h65.872c7.456 0 13.5 6.044 13.5 13.5ZM288.812 148.618c0 7.456-6.044 13.5-13.5 13.5H155.734c-7.456 0-13.5-6.044-13.5-13.5s6.044-13.5 13.5-13.5h119.578c7.456 0 13.5 6.044 13.5 13.5Z" fill="#942EFF"/><path d="M271.411 199.147c0 7.456-6.045 13.5-13.5 13.5H86.563c-7.456 0-13.5-6.044-13.5-13.5 0-7.455 6.044-13.5 13.5-13.5H257.91c7.455 0 13.5 6.045 13.5 13.5ZM66.022 502.324c0 7.456-6.044 13.5-13.5 13.5H33.104c-7.456 0-13.5-6.044-13.5-13.5s6.044-13.5 13.5-13.5h19.418c7.456 0 13.5 6.044 13.5 13.5Z" fill="#FB4469"/><path d="M242.196 552.853c0 7.456-6.044 13.501-13.5 13.501H28.642c-7.456 0-13.5-6.045-13.5-13.501 0-7.455 6.044-13.5 13.5-13.5h200.054c7.456 0 13.5 6.045 13.5 13.5Z" fill="url(#a)"/><path d="M250.954 98.089c0 7.456-6.044 13.5-13.5 13.5H107.019c-7.456 0-13.5-6.044-13.5-13.5s6.044-13.5 13.5-13.5h130.435c7.456 0 13.5 6.044 13.5 13.5Z" fill="url(#b)"/><path d="M430.396 47.56c0 7.455-6.045 13.5-13.501 13.5H245.548c-7.456 0-13.501-6.045-13.501-13.5 0-7.456 6.045-13.5 13.501-13.5h171.347c7.456 0 13.501 6.044 13.501 13.5Z" fill="#FB4469"/><path d="M104.609 754.971c0 7.456-6.044 13.5-13.5 13.5H13.5c-7.456 0-13.5-6.044-13.5-13.5s6.044-13.5 13.5-13.5h77.61c7.455 0 13.499 6.044 13.499 13.5Z" fill="url(#c)"/><path d="M232.048 704.442c0 7.456-6.044 13.5-13.5 13.5h-89.37c-7.456 0-13.5-6.044-13.5-13.5s6.044-13.5 13.5-13.5h89.37c7.456 0 13.5 6.044 13.5 13.5Z" fill="#FB4469"/><path d="M128.668 300.206c0-7.456 6.045-13.5 13.5-13.5h144.449c7.456 0 13.5 6.044 13.5 13.5s-6.044 13.5-13.5 13.5H142.168c-7.455 0-13.5-6.044-13.5-13.5Z" fill="#C960FF"/><path d="M300.117 249.678c0-7.456 6.044-13.5 13.5-13.5h171.348c7.456 0 13.5 6.044 13.5 13.5s-6.044 13.5-13.5 13.5H313.617c-7.456 0-13.5-6.044-13.5-13.5Z" fill="url(#d)"/><path d="M88.404 401.266c0-7.456 6.044-13.5 13.5-13.5h88.379c7.456 0 13.5 6.044 13.5 13.5s-6.044 13.5-13.5 13.5h-88.379c-7.456 0-13.5-6.044-13.5-13.5Z" fill="url(#e)"/><path d="M263.565 451.795c0-7.456 6.044-13.5 13.5-13.5h171.348c7.456 0 13.5 6.044 13.5 13.5s-6.044 13.5-13.5 13.5H277.065c-7.456 0-13.5-6.044-13.5-13.5Z" fill="#C960FF"/></g><g filter="url(#f)"><rect width="216.67" height="396.522" rx="33.516" transform="matrix(0 1 1 0 76.487 139)" fill="url(#g)"/><rect width="207.586" height="390.473" rx="30.723" transform="matrix(0 1 1 0 79.512 143.539)" fill="url(#h)"/><rect width="187.651" height="371.336" rx="19.551" transform="matrix(0 1 1 0 88.67 153.51)" fill="url(#i)"/><path fill="#481330" d="M81.91 298.404V195.731h11.214v102.673z"/><path fill="#481330" d="M81.91 288.378V205.76h20.767v82.62z"/><ellipse cx="93.124" cy="288.377" rx="10.028" ry="9.552" transform="rotate(-90 93.124 288.377)" fill="#481330"/><ellipse cx="93.124" cy="205.759" rx="10.028" ry="9.552" transform="rotate(-90 93.124 205.759)" fill="#481330"/><rect x="90.371" y="275.758" width="42.315" height="3.846" rx="1.923" transform="rotate(-90 90.371 275.758)" fill="#1B1615"/><ellipse cx="92.294" cy="220.122" rx="3.873" ry="3.624" transform="rotate(-90 92.294 220.122)" fill="#1A1A1A"/><ellipse cx="92.436" cy="220.247" rx="2.108" ry="1.916" transform="rotate(-90 92.436 220.247)" fill="#525252"/><ellipse cx="92.294" cy="220.248" rx="3.873" ry="3.624" transform="rotate(-90 92.294 220.248)" fill="url(#j)"/><ellipse cx="90.676" cy="221.509" rx=".408" ry=".334" transform="rotate(-90 90.676 221.509)" fill="#fff"/><g filter="url(#k)"><rect x="274.749" y="318.474" width="143.516" height="142.275" rx="11.211" transform="rotate(180 274.749 318.474)" fill="#FFF3F4"/><rect width="90.228" height="7.931" rx="3.966" transform="matrix(0 -1 -1 0 251.072 291.809)" fill="url(#l)"/><rect width="63.975" height="7.931" rx="3.966" transform="matrix(0 -1 -1 0 237.905 291.809)" fill="url(#m)"/><rect width="80.841" height="7.931" rx="3.966" transform="matrix(0 -1 -1 0 224.738 291.809)" fill="url(#n)"/><rect width="46.381" height="7.931" rx="3.966" transform="matrix(0 -1 -1 0 182.138 291.809)" fill="url(#o)"/><rect width="46.381" height="7.931" rx="3.966" transform="matrix(0 -1 -1 0 168.972 291.809)" fill="url(#p)"/><ellipse rx="9.31" ry="8.768" transform="matrix(0 -1 -1 0 199.472 282.499)" fill="#FFA38A"/><ellipse rx="9.31" ry="8.768" transform="matrix(0 -1 -1 0 199.472 256.909)" fill="#FFA38A"/><ellipse rx="9.31" ry="8.768" transform="matrix(0 -1 -1 0 199.472 231.319)" fill="#FFA38A"/></g><path opacity=".71" d="M65.976 197.134c0-5.526-4.267-10.006-9.531-10.006l-.057.001H52v-22.621C52 153.734 60.226 145 70.373 145h333.771c10.147 0 18.373 8.734 18.373 19.508v148.221c0 10.774-8.226 19.508-18.373 19.508H70.374c-10.148 0-18.374-8.734-18.374-19.508v-23.154h4.444c5.264 0 9.531-4.479 9.532-10.004v-82.437Z" fill="url(#q)"/></g><g filter="url(#r)"><rect x="485" y="737.1" width="423" height="295.099" rx="17" transform="rotate(-180 485 737.1)" fill="#2D2236"/><ellipse cx="78.958" cy="457.498" rx="4.377" ry="4.006" fill="#FF4040"/><ellipse cx="93.361" cy="457.498" rx="4.377" ry="4.006" fill="#FFC635"/><ellipse cx="107.764" cy="457.498" rx="4.377" ry="4.006" fill="#5BFF40"/><rect x="88.984" y="484.851" width="334.012" height="10.312" rx="5.156" fill="#4E3952"/><rect x="88.984" y="502.938" width="218.747" height="10.312" rx="5.156" fill="#4E3952"/><rect x="88.984" y="557.197" width="18.667" height="10.312" rx="5.156" fill="#4B78BB"/><rect x="112.14" y="557.197" width="165.457" height="10.312" rx="5.156" fill="#DBC1D5"/><rect x="122.568" y="575.283" width="74.513" height="10.312" rx="5.156" fill="#DBC1D5"/><rect x="221.232" y="575.283" width="33.045" height="10.312" rx="5.156" fill="#DBC1D5"/><rect x="204.1" y="575.283" width="11.167" height="10.312" rx="5.156" fill="#FF4B6B"/><rect x="122.568" y="593.37" width="55.127" height="10.312" rx="5.156" fill="#DBC1D5"/><rect x="122.568" y="611.456" width="35.437" height="10.312" rx="5.156" fill="#4B78BB"/><rect x="165.969" y="611.456" width="115.219" height="10.312" rx="5.156" fill="#DBC1D5"/><rect x="122.568" y="628.721" width="150.536" height="10.312" rx="5.156" fill="#DBC1D5"/><rect x="277.598" y="646.799" width="70.991" height="10.312" rx="5.156" fill="#D2D2D2"/><rect x="88.984" y="521.263" width="44.183" height="10.312" rx="5.156" fill="#FF4B77"/><rect x="140.287" y="521.263" width="98.9" height="10.312" rx="5.156" fill="#DBC1D5"/><rect x="88.984" y="539.35" width="44.183" height="10.312" rx="5.156" fill="#FF4B6B"/><rect x="140.287" y="539.35" width="62.282" height="10.312" rx="5.156" fill="#DBC1D5"/><rect x="88.984" y="650.095" width="76.292" height="10.312" rx="5.156" fill="#D2D2D2"/></g><defs><linearGradient id="a" x1="241.592" y1="551.853" x2="16.202" y2="551.853" gradientUnits="userSpaceOnUse"><stop stop-color="#FF4789"/><stop offset="1" stop-color="#C548FF"/></linearGradient><linearGradient id="b" x1="250.536" y1="97.088" x2="94.254" y2="97.088" gradientUnits="userSpaceOnUse"><stop stop-color="#FF4789"/><stop offset="1" stop-color="#C548FF"/></linearGradient><linearGradient id="c" x1="104.331" y1="753.97" x2=".489" y2="753.97" gradientUnits="userSpaceOnUse"><stop stop-color="#FF4789"/><stop offset="1" stop-color="#C548FF"/></linearGradient><linearGradient id="d" x1="300.644" y1="250.679" x2="497.538" y2="250.679" gradientUnits="userSpaceOnUse"><stop stop-color="#FF4789"/><stop offset="1" stop-color="#C548FF"/></linearGradient><linearGradient id="e" x1="88.711" y1="402.267" x2="203.244" y2="402.267" gradientUnits="userSpaceOnUse"><stop stop-color="#FF4789"/><stop offset="1" stop-color="#C548FF"/></linearGradient><linearGradient id="g" x1="108.335" y1="0" x2="108.335" y2="396.522" gradientUnits="userSpaceOnUse"><stop stop-color="#FFA5C5"/><stop offset=".094" stop-color="#ED6A91"/><stop offset=".839" stop-color="#BC3997"/><stop offset="1" stop-color="#C0229D"/></linearGradient><linearGradient id="h" x1="103.793" y1="0" x2="33.856" y2="393.366" gradientUnits="userSpaceOnUse"><stop stop-color="#481330"/><stop offset=".297" stop-color="#8E285F"/><stop offset="1" stop-color="#481330"/></linearGradient><linearGradient id="i" x1="93.825" y1="0" x2="93.825" y2="371.336" gradientUnits="userSpaceOnUse"><stop stop-color="#F3AEFF"/><stop offset="1" stop-color="#C1BBFE"/></linearGradient><linearGradient id="l" x1="0" y1="3.966" x2="93.83" y2="3.966" gradientUnits="userSpaceOnUse"><stop stop-color="#FF67CC"/><stop offset="1" stop-color="#FF9178"/></linearGradient><linearGradient id="m" x1="0" y1="3.966" x2="66.529" y2="3.966" gradientUnits="userSpaceOnUse"><stop stop-color="#FF67CC"/><stop offset="1" stop-color="#FF9178"/></linearGradient><linearGradient id="n" x1="0" y1="3.966" x2="84.068" y2="3.966" gradientUnits="userSpaceOnUse"><stop stop-color="#FF67CC"/><stop offset="1" stop-color="#FF9178"/></linearGradient><linearGradient id="o" x1="0" y1="3.966" x2="48.232" y2="3.966" gradientUnits="userSpaceOnUse"><stop stop-color="#FF878A"/><stop offset="1" stop-color="#D090E4"/></linearGradient><linearGradient id="p" x1="0" y1="3.966" x2="48.232" y2="3.966" gradientUnits="userSpaceOnUse"><stop stop-color="#FF878A"/><stop offset="1" stop-color="#D090E4"/></linearGradient><linearGradient id="q" x1="52.001" y1="238.619" x2="422.517" y2="238.619" gradientUnits="userSpaceOnUse"><stop offset="0" stop-color="#FDA6FF" stop-opacity=".13"/><stop offset=".25" stop-color="#ECE3FF" stop-opacity=".46"/><stop offset="1" stop-color="#AFBCFF" stop-opacity=".47"/></linearGradient><filter id="f" x="28.67" y="115.67" width="467.669" height="263.329" filterUnits="userSpaceOnUse" color-interpolation-filters="sRGB"><feFlood flood-opacity="0" result="BackgroundImageFix"/><feColorMatrix in="SourceAlpha" values="0 0 0 0 0 0 0 0 0 0 0 0 0 0 0 0 0 0 127 0"/><feOffset/><feGaussianBlur stdDeviation="11.665"/><feColorMatrix values="0 0 0 0 0.154715 0 0 0 0 0.0969792 0 0 0 0 0.175 0 0 0 0.43 0"/><feBlend in2="BackgroundImageFix" result="effect1_dropShadow"/><feBlend in="SourceGraphic" in2="effect1_dropShadow" result="shape"/></filter><filter id="k" x="113.645" y="167.954" width="178.69" height="177.449" filterUnits="userSpaceOnUse" color-interpolation-filters="sRGB"><feFlood flood-opacity="0" result="BackgroundImageFix"/><feColorMatrix in="SourceAlpha" values="0 0 0 0 0 0 0 0 0 0 0 0 0 0 0 0 0 0 127 0"/><feOffset dy="9.343"/><feGaussianBlur stdDeviation="8.793"/><feColorMatrix values="0 0 0 0 0.254133 0 0 0 0 0.11 0 0 0 0 0.266667 0 0 0 0.24 0"/><feBlend in2="BackgroundImageFix" result="effect1_dropShadow"/><feBlend in="SourceGraphic" in2="effect1_dropShadow" result="shape"/></filter><filter id="r" x="15" y="435" width="481" height="353.1" filterUnits="userSpaceOnUse" color-interpolation-filters="sRGB"><feFlood flood-opacity="0" result="BackgroundImageFix"/><feColorMatrix in="SourceAlpha" values="0 0 0 0 0 0 0 0 0 0 0 0 0 0 0 0 0 0 127 0"/><feOffset dx="-18" dy="22"/><feGaussianBlur stdDeviation="14.5"/><feColorMatrix values="0 0 0 0 0.183333 0 0 0 0 0.0863195 0 0 0 0 0.127065 0 0 0 0.42 0"/><feBlend in2="BackgroundImageFix" result="effect1_dropShadow"/><feBlend in="SourceGraphic" in2="effect1_dropShadow" result="shape"/></filter><radialGradient id="j" cx="0" cy="0" r="1" gradientUnits="userSpaceOnUse" gradientTransform="matrix(1.38995 3.62382 -3.81126 1.46185 90.904 220.248)"><stop stop-color="#fff" stop-opacity=".31"/><stop offset="1" stop-color="#fff" stop-opacity="0"/></radialGradient></defs></svg>