<svg width="113" height="216" fill="none" xmlns="http://www.w3.org/2000/svg"><path d="M72.15 41.962c6.066 1.374 12.639-.29 17.35-5.014a18.625 18.625 0 005.379-14.867c-.364-4.252-9.341 7.28-13.054 7.172-3.935-.125-10.894-7.24-11.155-11.184-.227-3.74 10.014-12.845 7.152-13.088a18.598 18.598 0 00-14.828 5.392c-4.694 4.707-6.371 11.313-5 17.395L41.24 44.565c-2.824 2.831-1.456 6.692 3.013 11.173 4.469 4.48 8.065 6.108 11.144 3.02L72.15 41.962zM32.653 80.061c.967-4.762-.439-9.874-4.192-13.483a14.463 14.463 0 00-11.652-3.973c-3.3.35 5.818 7.188 5.797 10.093-.03 3.077-5.446 8.628-8.51 8.894-2.904.235-10.157-7.628-10.298-5.387a14.605 14.605 0 004.444 11.507c3.74 3.596 8.905 4.804 13.611 3.637L35.2 104.184c2.249 2.163 5.229 1.033 8.638-2.53 3.409-3.563 4.614-6.4 2.161-8.758L32.653 80.06zM66.417 188.64c2.794-3.463 3.807-8.209 2.28-12.724a13.24 13.24 0 00-7.794-8.142c-2.83-1.107 1.697 8.295.455 10.646-1.322 2.488-8.063 4.715-10.665 3.639-2.46-1.033-5.038-10.481-6.097-8.72a13.37 13.37 0 00-1.241 11.224 13.32 13.32 0 009.527 8.696l5.433 16.056c.915 2.706 3.813 3.045 8.085 1.587 4.273-1.458 6.448-3.255 5.45-6.206l-5.433-16.056z" fill="#C960FF"/><path d="M74.845 102.12c-6.4 2.003-11.643 7.121-13.506 14.092a20.153 20.153 0 002.958 16.816c2.623 3.78 4.814-11.869 8.338-13.781 3.74-2.016 14.056.863 16.418 4.41 2.219 3.375-2.455 17.439.348 16.115a20.182 20.182 0 0010.948-13.08c1.856-6.946-.124-14.032-4.669-18.975l6.625-24.787c1.117-4.178-2.233-7.047-8.81-8.814-6.577-1.767-10.808-1.339-12.026 3.216l-6.624 24.788zM23.663 137.877c-4.52-.952-9.422.214-12.94 3.511-3.021 2.833-4.38 6.654-4.024 10.367.267 2.964 6.971-5.082 9.74-5.01 2.932.083 8.113 5.035 8.304 7.785.165 2.606-7.478 8.962-5.345 9.129 3.949.322 8.038-.94 11.06-3.773 3.504-3.285 4.76-7.891 3.745-12.129l12.506-11.723c2.108-1.976 1.092-4.666-2.235-7.785-3.327-3.119-6.006-4.25-8.305-2.095l-12.506 11.723z" fill="#DB99FD"/></svg>