<svg width="41" height="33" fill="none" xmlns="http://www.w3.org/2000/svg"><path d="M40.469 3.911A16.503 16.503 0 0135.7 5.222a8.367 8.367 0 003.653-4.61 16.582 16.582 0 01-5.271 2.02A8.268 8.268 0 0028.019 0c-4.586 0-8.304 3.729-8.304 8.328 0 .655.075 1.29.214 1.902-6.9-.344-13.018-3.664-17.111-8.693a8.279 8.279 0 00-1.125 4.19 8.329 8.329 0 003.696 6.931 8.276 8.276 0 01-3.76-1.042v.107c0 4.03 2.86 7.394 6.653 8.167a8.132 8.132 0 01-2.185.29c-.536 0-1.05-.053-1.565-.15 1.061 3.31 4.125 5.717 7.758 5.781A16.605 16.605 0 011.982 29.38c-.664 0-1.328-.043-1.982-.119A23.434 23.434 0 0012.729 33c15.268 0 23.615-12.69 23.615-23.683 0-.366-.011-.72-.022-1.075a17.47 17.47 0 004.147-4.33z" fill="#fff"/></svg>