<svg width="33" height="32" viewBox="0 0 33 32" fill="none" xmlns="http://www.w3.org/2000/svg">
<path d="M31.1945 0H1.81828C0.812423 0 0 0.7875 0 1.7625V30.225C0 31.2 0.812423 31.9875 1.81828 31.9875H17.6283V19.6H13.3212V14.775H17.6283V11.2125C17.6283 7.075 20.2332 4.825 24.0374 4.825C25.8557 4.825 27.4289 4.9625 27.8803 5.0125V9.3375H25.2367C23.1734 9.3375 22.7736 10.2875 22.7736 11.6875V14.775H27.7127L27.0679 19.6H22.7736V32H31.1816C32.1874 32 32.9998 31.2125 32.9998 30.2375V1.7625C33.0127 0.7875 32.2003 0 31.1945 0Z" fill="white"/>
</svg>
