<svg width="33" height="33" viewBox="0 0 33 33" fill="none" xmlns="http://www.w3.org/2000/svg">
<path d="M16.5 0C7.38633 0 0 7.40782 0 16.548C0 23.8653 4.73086 30.0579 11.2793 32.2557C12.1043 32.4108 12.4008 31.8937 12.4008 31.4541C12.4008 31.0534 12.3879 29.7605 12.375 28.3772C7.79883 29.3727 6.83203 26.4251 6.83203 26.4251C6.08437 24.5117 5.00156 24.0075 5.00156 24.0075C3.50625 22.9862 5.11758 22.9991 5.11758 22.9991C6.78047 23.1155 7.64414 24.7057 7.64414 24.7057C9.11367 27.2396 11.4984 26.5027 12.4395 26.076C12.5813 25.003 13.0195 24.279 13.4836 23.8653C9.82266 23.4516 5.96836 22.0295 5.96836 15.6818C5.96836 13.8719 6.61289 12.3981 7.66992 11.2345C7.50234 10.8208 6.93516 9.14019 7.82461 6.85191C7.82461 6.85191 9.20391 6.41235 12.3621 8.54549C13.677 8.1835 15.0949 7.98958 16.4871 7.98958C17.8922 7.98958 19.2973 8.1835 20.625 8.54549C23.7703 6.39942 25.1625 6.85191 25.1625 6.85191C26.0648 9.12726 25.4977 10.8208 25.3301 11.2345C26.3871 12.3981 27.0316 13.8719 27.0316 15.6818C27.0316 22.0425 23.1773 23.4387 19.5035 23.8524C20.0965 24.3695 20.625 25.3779 20.625 26.9164C20.625 29.1271 20.6121 30.9111 20.6121 31.4541C20.6121 31.8937 20.9086 32.4108 21.7465 32.2427C28.282 30.0579 33 23.8524 33 16.548C33 7.40782 25.6137 0 16.5 0ZM6.17461 23.568C6.13594 23.6455 6.00703 23.6714 5.89102 23.6197C5.775 23.568 5.71055 23.4516 5.74922 23.3741C5.78789 23.2836 5.9168 23.2706 6.03281 23.3223C6.14883 23.3741 6.22617 23.4904 6.17461 23.568ZM6.98672 24.3049C6.90938 24.3824 6.75469 24.3437 6.65156 24.2273C6.54844 24.111 6.52266 23.9558 6.6 23.8782C6.67734 23.8007 6.83203 23.8395 6.93516 23.9558C7.05117 24.0722 7.07695 24.2273 6.98672 24.3049ZM7.55391 25.2228C7.45078 25.2874 7.2832 25.2228 7.18008 25.0806C7.07695 24.9384 7.07695 24.7574 7.18008 24.6798C7.2832 24.6152 7.45078 24.6669 7.55391 24.822C7.65703 24.9771 7.65703 25.1581 7.55391 25.2228ZM8.49492 26.3087C8.40469 26.4122 8.21133 26.3863 8.06953 26.2441C7.92773 26.1148 7.88906 25.9209 7.9793 25.8175C8.06953 25.714 8.26289 25.7399 8.40469 25.8821C8.54648 26.0114 8.58516 26.2053 8.49492 26.3087ZM9.70664 26.6707C9.66797 26.8 9.4875 26.8646 9.29414 26.8C9.11367 26.7483 8.98477 26.5932 9.02344 26.4639C9.06211 26.3346 9.24258 26.27 9.43594 26.3346C9.6293 26.3863 9.74531 26.5414 9.70664 26.6707ZM11.0859 26.8259C11.0859 26.9681 10.9313 27.0715 10.7379 27.0844C10.5445 27.0844 10.377 26.981 10.377 26.8388C10.377 26.6966 10.5316 26.5932 10.725 26.5802C10.9312 26.5802 11.0859 26.6837 11.0859 26.8259ZM12.4523 26.7742C12.4781 26.9034 12.3363 27.0456 12.143 27.0844C11.9496 27.1232 11.7691 27.0327 11.7434 26.9034C11.7176 26.7612 11.8594 26.6319 12.0527 26.5932C12.259 26.5544 12.4266 26.6319 12.4523 26.7742Z" fill="white"/>
</svg>
