<svg width="42" height="33" viewBox="0 0 42 33" fill="none" xmlns="http://www.w3.org/2000/svg">
<path d="M4.90872 6.7334C4.97206 6.22522 4.75038 5.71704 4.37035 5.36766L0.538376 0.698749V0H12.5727L21.8834 20.4543L30.0224 0H41.4866V0.698749L38.1614 3.87488C37.8763 4.09721 37.7497 4.44658 37.7813 4.79596V28.204C37.718 28.5534 37.8763 28.9028 38.1614 29.1251L41.3916 32.3013V33H25.1137V32.3013L28.4706 29.0298C28.7873 28.7122 28.7873 28.6169 28.7873 28.1088V9.21078L19.4765 32.9365H18.2098L7.41059 9.21078V25.1232C7.31558 25.7902 7.53726 26.4572 8.0123 26.9336L12.351 32.2695V32.9682H0V32.2695L4.37035 26.9653C4.84538 26.4889 5.0354 25.7902 4.94039 25.155V6.7334H4.90872Z" fill="white"/>
</svg>
