<svg width="41" height="33" viewBox="0 0 41 33" fill="none" xmlns="http://www.w3.org/2000/svg">
<path d="M40.4687 3.91143C38.9794 4.57766 37.3829 5.01824 35.7008 5.2224C37.4151 4.19082 38.733 2.55747 39.3544 0.612504C37.7472 1.56887 35.9793 2.25659 34.0829 2.63269C32.5721 1.01009 30.4078 0 28.0185 0C23.4326 0 19.7147 3.72875 19.7147 8.32791C19.7147 8.98339 19.7897 9.61739 19.929 10.2299C13.0288 9.88603 6.91086 6.56561 2.81792 1.53663C2.10004 2.76164 1.69289 4.20156 1.69289 5.72745C1.69289 8.61804 3.16078 11.1648 5.3894 12.6584C4.02866 12.6154 2.75363 12.2393 1.62861 11.6161C1.62861 11.6483 1.62861 11.6806 1.62861 11.7235C1.62861 15.7532 4.48938 19.1166 8.28232 19.8903C7.58588 20.0837 6.85729 20.1804 6.09656 20.1804C5.56083 20.1804 5.04654 20.1267 4.53224 20.03C5.59298 23.3396 8.65733 25.7467 12.2895 25.8111C9.4502 28.0462 5.87155 29.3787 1.98218 29.3787C1.31789 29.3787 0.653585 29.3357 -1.63491e-07 29.2605C3.67508 31.6245 8.03588 33 12.7288 33C27.997 33 36.3436 20.3093 36.3436 9.31651C36.3436 8.95116 36.3329 8.59655 36.3222 8.24194C37.9508 7.03842 39.3544 5.57701 40.4687 3.91143Z" fill="white"/>
</svg>
