<svg width="169" height="24" viewBox="0 0 169 24" version="1.1" xmlns="http://www.w3.org/2000/svg" xmlns:xlink="http://www.w3.org/1999/xlink">
<title>hack-wordmark-darkcolor</title>
<desc>Created using Figma</desc>
<g id="Canvas" transform="translate(-112 -664)">
<g id="hack-wordmark-darkcolor">
<mask id="mask0_alpha" mask-type="alpha">
<g id="hack-wordmark-dark">
<g id="ACM Hack">
<use xlink:href="#path0_fill" transform="translate(112.288 663.96)" fill="#242424"/>
<use xlink:href="#path1_fill" transform="translate(112.288 663.96)" fill="#242424"/>
<use xlink:href="#path2_fill" transform="translate(112.288 663.96)" fill="#242424"/>
<use xlink:href="#path3_fill" transform="translate(112.288 663.96)" fill="#242424"/>
<use xlink:href="#path4_fill" transform="translate(112.288 663.96)" fill="#242424"/>
<use xlink:href="#path5_fill" transform="translate(112.288 663.96)" fill="#242424"/>
<use xlink:href="#path6_fill" transform="translate(112.288 663.96)" fill="#242424"/>
</g>
</g>
</mask>
<g id="Dark" mask="url(#mask0_alpha)">
<use xlink:href="#path7_fill" transform="translate(108 664)" fill="#242424"/>
</g>
<g id="Color" mask="url(#mask0_alpha)">
<use xlink:href="#path8_fill" transform="translate(191.855 664)" fill="#C960FF"/>
</g>
</g>
</g>
<defs>
<path id="path0_fill" d="M 16.384 23.68L 15.136 19.904L 7.072 19.904L 5.824 23.68L 0 23.68L 7.808 1.152L 14.464 1.152L 22.24 23.68L 16.384 23.68ZM 8.448 15.744L 13.76 15.744L 11.104 7.744L 8.448 15.744Z"/>
<path id="path1_fill" d="M 26.9405 20.64C 24.7218 18.464 23.6125 15.712 23.6125 12.384C 23.6125 9.056 24.7218 6.31467 26.9405 4.16C 29.1805 1.984 31.9112 0.896 35.1325 0.896C 37.6285 0.896 39.8472 1.55733 41.7885 2.88C 43.7298 4.20267 45.0845 6.03733 45.8525 8.384L 39.3245 8.384C 38.4712 6.74133 37.1058 5.92 35.2285 5.92C 33.3512 5.92 31.8685 6.50667 30.7805 7.68C 29.7138 8.85333 29.1805 10.4213 29.1805 12.384C 29.1805 14.3467 29.7138 15.9147 30.7805 17.088C 31.8685 18.2613 33.3512 18.848 35.2285 18.848C 37.1058 18.848 38.4712 18.0267 39.3245 16.384L 45.8525 16.384C 45.0845 18.7307 43.7298 20.5653 41.7885 21.888C 39.8472 23.2107 37.6285 23.872 35.1325 23.872C 31.9112 23.872 29.1805 22.7947 26.9405 20.64Z"/>
<path id="path2_fill" d="M 74.802 1.216L 74.802 23.68L 69.33 23.68L 69.33 11.008L 64.114 23.68L 60.05 23.68L 54.834 11.008L 54.834 23.68L 49.362 23.68L 49.362 1.216L 55.634 1.216L 62.098 16.704L 68.53 1.216L 74.802 1.216Z"/>
<path id="path3_fill" d="M 100.318 1.44L 103.966 1.44L 103.966 23.68L 100.318 23.68L 100.318 13.856L 89.8537 13.856L 89.8537 23.68L 86.2057 23.68L 86.2057 1.44L 89.8537 1.44L 89.8537 11.04L 100.318 11.04L 100.318 1.44Z"/>
<path id="path4_fill" d="M 120.384 19.2C 121.451 18.112 121.984 16.6613 121.984 14.848C 121.984 13.0347 121.451 11.5947 120.384 10.528C 119.339 9.46133 118.091 8.928 116.64 8.928C 115.19 8.928 113.931 9.45067 112.864 10.496C 111.819 11.5413 111.296 12.9707 111.296 14.784C 111.296 16.5973 111.819 18.0587 112.864 19.168C 113.931 20.256 115.19 20.8 116.64 20.8C 118.091 20.8 119.339 20.2667 120.384 19.2ZM 115.872 23.968C 113.526 23.968 111.552 23.1147 109.952 21.408C 108.352 19.68 107.552 17.4827 107.552 14.816C 107.552 12.128 108.342 9.952 109.92 8.288C 111.52 6.60267 113.504 5.76 115.872 5.76C 117.259 5.76 118.475 6.08 119.52 6.72C 120.587 7.33867 121.408 8.16 121.984 9.184L 121.984 6.048L 125.664 6.048L 125.664 23.68L 121.984 23.68L 121.984 20.384C 121.387 21.472 120.566 22.3467 119.52 23.008C 118.475 23.648 117.259 23.968 115.872 23.968Z"/>
<path id="path5_fill" d="M 137.88 23.968C 135.32 23.968 133.24 23.136 131.64 21.472C 130.04 19.808 129.24 17.6107 129.24 14.88C 129.24 12.128 130.04 9.92 131.64 8.256C 133.261 6.592 135.341 5.76 137.88 5.76C 140.013 5.76 141.773 6.272 143.16 7.296C 144.568 8.29867 145.517 9.73867 146.008 11.616L 142.072 11.616C 141.41 9.76 140.013 8.832 137.88 8.832C 136.386 8.832 135.192 9.36533 134.296 10.432C 133.421 11.4773 132.984 12.9493 132.984 14.848C 132.984 16.7467 133.421 18.2293 134.296 19.296C 135.192 20.3627 136.386 20.896 137.88 20.896C 139.992 20.896 141.389 19.968 142.072 18.112L 146.008 18.112C 145.496 19.904 144.536 21.3333 143.128 22.4C 141.72 23.4453 139.97 23.968 137.88 23.968Z"/>
<path id="path6_fill" d="M 153.291 23.68L 149.643 23.68L 149.643 0L 153.291 0L 153.291 13.76L 159.691 6.048L 164.747 6.048L 156.619 14.88L 164.747 23.68L 159.819 23.68L 153.291 16.096L 153.291 23.68Z"/>
<path id="path7_fill" d="M 0 0L 83.8554 0L 83.8554 24L 0 24L 0 0Z"/>
<path id="path8_fill" d="M 0 0L 90.1446 0L 90.1446 24L 0 24L 0 0Z"/>
</defs>
</svg>
